<?xml version="1.0" encoding="UTF-8"?>
<svg width="19px" height="19px" viewBox="0 0 19 19" version="1.1" xmlns="http://www.w3.org/2000/svg" xmlns:xlink="http://www.w3.org/1999/xlink">
    <!-- Generator: Sketch 52.6 (67491) - http://www.bohemiancoding.com/sketch -->
    <title>添加</title>
    <desc>Created with Sketch.</desc>
    <g id="Page-1" stroke="none" stroke-width="1" fill="none" fill-rule="evenodd">
        <g id="我的爱车列表" transform="translate(-179.000000, -411.000000)" fill="#333333">
            <g id="分组-6" transform="translate(148.000000, 411.000000)">
                <g id="添加" transform="translate(31.000000, 0.000000)">
                    <path d="M18.2420213,8.74202128 L10.2579787,8.74202128 L10.2579787,0.757978725 C10.2579787,0.353723402 9.90425532,0 9.5,0 C9.09574468,0 8.74202128,0.353723402 8.74202128,0.757978725 L8.74202128,8.74202128 L0.757978725,8.74202128 C0.353723402,8.74202128 0,9.09574468 0,9.5 C0,9.90425532 0.353723402,10.2579787 0.757978725,10.2579787 L8.74202128,10.2579787 L8.74202128,18.2420213 C8.74202128,18.6462766 9.09574468,19 9.5,19 C9.90425532,19 10.2579787,18.6462766 10.2579787,18.2420213 L10.2579787,10.2579787 L18.2420213,10.2579787 C18.6462766,10.2579787 19,9.90425532 19,9.5 C19,9.09574468 18.6462766,8.74202128 18.2420213,8.74202128 Z" id="路径"></path>
                </g>
            </g>
        </g>
    </g>
</svg>