<?xml version="1.0" encoding="UTF-8"?>
<svg width="22px" height="22px" viewBox="0 0 22 22" version="1.1" xmlns="http://www.w3.org/2000/svg" xmlns:xlink="http://www.w3.org/1999/xlink">
    <!-- Generator: Sketch 52.6 (67491) - http://www.bohemiancoding.com/sketch -->
    <title>钱包</title>
    <desc>Created with Sketch.</desc>
    <g id="Page-1" stroke="none" stroke-width="1" fill="none" fill-rule="evenodd">
        <g id="停车场-支付" transform="translate(-102.000000, -407.000000)">
            <g id="分组-17" transform="translate(102.000000, 407.000000)">
                <g id="钱包">
                    <rect id="矩形" fill="#000000" opacity="0" x="0" y="0" width="22" height="22"></rect>
                    <path d="M20.3,15.1 L16.1,15.1 C14.5,15.1 13.25,13.8 13.25,12.25 L13.25,9.80000001 C13.25,8.20000002 14.55,6.95000002 16.1,6.95 L20.3,6.95 C20.45,6.95 20.6,6.95 20.75,7 L20.75,6.25 C20.75,4.45000001 19.3,3.00000001 17.5,3.00000001 L4.25,3.00000001 C2.45000001,3.00000001 1.00000001,4.45000001 1.00000001,6.2 L1.00000001,15.75 C1.00000001,17.55 2.45000001,19 4.25,19 L17.5,19 C19.3,19 20.75,17.55 20.75,15.8 L20.75,15.05 C20.6,15.05 20.45,15.1 20.3,15.1 Z" id="路径" fill="#FFFFFF"></path>
                    <path d="M16.1,9.05000001 C15.7,9.05000001 15.4,9.40000001 15.4,9.75 L15.4,12.2 C15.4,12.6 15.75,12.9 16.1,12.9 L20.3,12.9 C20.7,12.9 21,12.55 21,12.2 L21,9.75 C21,9.35 20.65,9.05000001 20.3,9.05000001 L16.1,9.05000001 Z" id="路径" fill="#FFFFFF"></path>
                </g>
            </g>
        </g>
    </g>
</svg>