<?xml version="1.0" encoding="UTF-8"?>
<svg width="31px" height="31px" viewBox="0 0 31 31" version="1.1" xmlns="http://www.w3.org/2000/svg" xmlns:xlink="http://www.w3.org/1999/xlink">
    <!-- Generator: Sketch 52.6 (67491) - http://www.bohemiancoding.com/sketch -->
    <title>停车场-01</title>
    <desc>Created with Sketch.</desc>
    <g id="Page-1" stroke="none" stroke-width="1" fill="none" fill-rule="evenodd">
        <g id="停车场-支付" transform="translate(-118.000000, -95.000000)" fill="#FFFFFF">
            <g id="分组-15" transform="translate(30.000000, 71.000000)">
                <g id="分组-27">
                    <g id="分组-14" transform="translate(88.000000, 24.000000)">
                        <g id="分组-18">
                            <g id="停车场-01">
                                <path d="M20.0276316,10.1810526 C19.4728947,9.73236842 18.6,9.50802632 17.4007895,9.50802632 L13.4034211,9.50802632 L13.4034211,15.1165789 L17.4007895,15.1165789 C18.6122368,15.1165789 19.4932895,14.8922368 20.0480263,14.4435526 C20.6027632,13.9785526 20.8760526,13.2606579 20.8760526,12.2898684 C20.8801316,11.2946053 20.5946053,10.5848684 20.0276316,10.1810526 Z M15.4265791,0 C6.90742346,0 -1.27897692e-13,6.90755556 -1.27897692e-13,15.4268741 C-1.28889212e-13,23.9496813 6.90742346,30.8572368 15.4265791,30.8572368 C23.9457347,30.8572368 30.8531581,23.9496813 30.8531581,15.4303628 C30.8566467,6.90755556 23.9492233,0 15.4265791,0 Z M17.5557895,17.2009211 L13.4034211,17.2009211 L13.4034211,23.4376316 L10.9560526,23.4376316 L10.9560526,7.41552632 L17.6006579,7.41552632 C21.4185526,7.41552632 23.3234211,9.04302632 23.3234211,12.2857895 C23.3234211,15.5652632 21.4022368,17.2009211 17.5557895,17.2009211 Z" id="形状"></path>
                            </g>
                        </g>
                    </g>
                </g>
            </g>
        </g>
    </g>
</svg>