<?xml version="1.0" encoding="UTF-8"?>
<svg width="18px" height="18px" viewBox="0 0 18 18" version="1.1" xmlns="http://www.w3.org/2000/svg" xmlns:xlink="http://www.w3.org/1999/xlink">
    <!-- Generator: Sketch 52.6 (67491) - http://www.bohemiancoding.com/sketch -->
    <title>选中</title>
    <desc>Created with Sketch.</desc>
    <g id="Page-1" stroke="none" stroke-width="1" fill="none" fill-rule="evenodd">
        <g id="停车场-支付" transform="translate(-69.000000, -409.000000)" fill="#FFFFFF" fill-rule="nonzero">
            <g id="选中" transform="translate(69.000000, 409.000000)">
                <path d="M9,2.66661855e-15 C4.02971071,2.66661855e-15 0,4.02971071 0,9 C0,13.9702893 4.02971071,18 9,18 C13.9702893,18 18,13.9702893 18,9 C18,4.02971071 13.9702893,0 9,2.66661855e-15 Z M12.9111831,5.05899108 C12.9111831,5.05899108 8.22898714,13.7290529 8.14878414,13.8084598 C7.88051892,14.0760906 7.46291018,14.0613856 7.21123869,13.7761088 L4.1801183,10.805701 C3.92844681,10.5204242 3.94227491,10.0763335 4.21054013,9.80870267 C4.47880535,9.54107187 4.89641409,9.55577686 5.14808558,9.84105365 L7.52098822,12.167383 L11.7634505,4.35315159 C11.9459815,4.01493683 12.3525277,3.90023791 12.6705741,4.09434377 C12.9858549,4.29139063 13.0937141,4.72371732 12.9111831,5.05899108 Z" id="形状"></path>
            </g>
        </g>
    </g>
</svg>