<?xml version="1.0" encoding="UTF-8"?>
<svg width="25px" height="25px" viewBox="0 0 25 25" version="1.1" xmlns="http://www.w3.org/2000/svg" xmlns:xlink="http://www.w3.org/1999/xlink">
    <!-- Generator: Sketch 52.6 (67491) - http://www.bohemiancoding.com/sketch -->
    <title>微信</title>
    <desc>Created with Sketch.</desc>
    <g id="Page-1" stroke="none" stroke-width="1" fill="none" fill-rule="evenodd">
        <g id="停车场-支付" transform="translate(-100.000000, -443.000000)" fill="#FFFFFF">
            <g id="分组-16" transform="translate(100.000000, 443.000000)">
                <g id="微信">
                    <rect id="矩形" opacity="0" x="0" y="0" width="25" height="25"></rect>
                    <path d="M16.340332,9.01855469 C16.5795898,9.01855469 16.8188477,9.01855469 17.0581055,9.05761719 C16.3818359,5.98632812 13.1079102,3.7109375 9.35546875,3.7109375 C5.16601562,3.7109375 1.73339844,6.58447266 1.73339844,10.1757812 C1.73339844,12.2509766 2.8515625,14.0063477 4.765625,15.324707 L4.00634766,17.6000977 L6.6796875,16.2841797 C7.63671875,16.484375 8.39599609,16.6821289 9.35302734,16.6821289 C9.59228516,16.6821289 9.83154297,16.6821289 10.1123047,16.6430664 C9.95361328,16.1230469 9.87304688,15.6054687 9.87304688,15.0463867 C9.87548828,11.7333984 12.7099609,9.01855469 16.340332,9.01855469 Z M12.2290039,6.94335938 C12.8271484,6.94335938 13.1860352,7.34130859 13.1860352,7.90039062 C13.1860352,8.45947266 12.7880859,8.85742188 12.2290039,8.85742188 C11.6308594,8.85742188 11.0717773,8.45703125 11.0717773,7.90039062 C11.0717773,7.30224609 11.6723633,6.94335938 12.2290039,6.94335938 Z M6.94824219,8.72802734 C6.34521484,8.72802734 5.78125,8.33251953 5.78125,7.78076172 C5.78125,7.1875 6.38427734,6.83349609 6.94824219,6.83349609 C7.51220703,6.83349609 7.91259766,7.22900391 7.91259766,7.78076172 C7.91503906,8.33496094 7.51220703,8.72802734 6.94824219,8.72802734 Z" id="形状" fill-rule="nonzero"></path>
                    <path d="M23.2861328,14.9658203 C23.2861328,11.8920898 20.2539062,9.41894531 16.8212891,9.41894531 C13.1884766,9.41894531 10.3149414,11.9335937 10.3149414,14.9658203 C10.3149414,18.0395508 13.1884766,20.5126953 16.8212891,20.5126953 C17.5805664,20.5126953 18.3374023,20.3125 19.0966797,20.1147461 L21.171875,21.2719727 L20.612793,19.3554687 C22.1289062,18.1982422 23.2861328,16.6821289 23.2861328,14.9658203 Z M14.7045898,14.0087891 C14.3457031,14.0087891 13.9453125,13.6499023 13.9453125,13.2495117 C13.9453125,12.890625 14.3432617,12.4902344 14.7045898,12.4902344 C15.2636719,12.4902344 15.6616211,12.8881836 15.6616211,13.2495117 C15.6616211,13.6499023 15.3027344,14.0087891 14.7045898,14.0087891 Z M19.050293,13.8232422 C18.6889648,13.8232422 18.2861328,13.4667969 18.2861328,13.0737305 C18.2861328,12.7172852 18.6889648,12.3242187 19.050293,12.3242187 C19.6142578,12.3242187 20.0146484,12.7197266 20.0146484,13.0737305 C20.0146484,13.4692383 19.6142578,13.8232422 19.050293,13.8232422 Z" id="形状" fill-rule="nonzero"></path>
                </g>
            </g>
        </g>
    </g>
</svg>