<?xml version="1.0" encoding="UTF-8"?>
<svg width="19px" height="19px" viewBox="0 0 19 19" version="1.1" xmlns="http://www.w3.org/2000/svg" xmlns:xlink="http://www.w3.org/1999/xlink">
    <!-- Generator: Sketch 52.6 (67491) - http://www.bohemiancoding.com/sketch -->
    <title>订单受理-未选</title>
    <desc>Created with Sketch.</desc>
    <g id="Page-1" stroke="none" stroke-width="1" fill="none" fill-rule="evenodd">
        <g id="小李详情-" transform="translate(-53.000000, -706.000000)" fill="#B3B3B3">
            <g id="分组-7" transform="translate(0.000000, 697.000000)">
                <g id="分组-6" transform="translate(43.000000, 9.000000)">
                    <g id="订单受理-未选" transform="translate(10.000000, 0.000000)">
                        <path d="M12.2121744,8.88517794 L5.551194,8.88517794 C5.27869342,8.88517794 5.05778805,8.66427257 5.05778805,8.39177199 C5.05778805,8.11927141 5.27869342,7.89836604 5.551194,7.89836604 L12.2121744,7.89836604 C12.484675,7.89836604 12.7055803,8.11927141 12.7055803,8.39177199 C12.7055803,8.66427257 12.484675,8.88517794 12.2121744,8.88517794 Z" id="路径"></path>
                        <path d="M5.551194,11.4023054 L14.1857982,11.4023054" id="路径"></path>
                        <path d="M14.1857982,11.8456137 L5.551194,11.8456137 C5.27869342,11.8456137 5.05778805,11.6247083 5.05778805,11.3522077 C5.05778805,11.0797071 5.27869342,10.8588018 5.551194,10.8588018 L14.1857982,10.8588018 C14.4582988,10.8588018 14.6792042,11.0797071 14.6792042,11.3522077 C14.6792042,11.6247083 14.4582988,11.8456137 14.1857982,11.8456137 Z" id="路径"></path>
                        <path d="M5.551194,14.3627411 L11.7187684,14.3627411" id="路径"></path>
                        <path d="M11.7187684,14.8060494 L5.551194,14.8060494 C5.27869342,14.8060494 5.05778804,14.585144 5.05778804,14.3126434 C5.05778804,14.0401428 5.27869342,13.8192375 5.551194,13.8192375 L11.7187684,13.8192375 C11.991269,13.8192375 12.2121744,14.0401428 12.2121744,14.3126434 C12.2121744,14.585144 11.991269,14.8060494 11.7187684,14.8060494 Z" id="路径"></path>
                        <path d="M13.6923922,19 L5.30449103,19 C3.39698694,19 1.85064936,17.4536624 1.85064936,15.5461583 L1.85064936,6.1714452 C1.85064935,5.25542943 2.21453519,4.37693128 2.86225615,3.72921032 C3.50997711,3.08148936 4.38847526,2.71760351 5.30449103,2.71760351 C5.57699161,2.71760351 5.79789698,2.93850888 5.79789698,3.21100946 C5.79789698,3.48351005 5.57699161,3.70441542 5.30449103,3.70441542 C4.65019405,3.70441542 4.02269537,3.96433388 3.56003754,4.42699171 C3.09737972,4.88964954 2.83746126,5.51714822 2.83746126,6.1714452 L2.83746126,15.5461583 C2.83746126,16.9086612 3.94198811,18.0131881 5.30449103,18.0131881 L13.6923922,18.0131881 C15.0548952,18.0131881 16.159422,16.9086612 16.159422,15.5461583 L16.159422,6.1714452 C16.159422,5.51714822 15.8995036,4.88964954 15.4368457,4.42699171 C14.9741879,3.96433388 14.3466892,3.70441542 13.6923922,3.70441542 C13.4198917,3.70441542 13.1989863,3.48351005 13.1989863,3.21100946 C13.1989863,2.93850888 13.4198917,2.71760351 13.6923922,2.71760351 C14.608408,2.71760351 15.4869062,3.08148936 16.1346271,3.72921032 C16.7823481,4.37693128 17.1462339,5.25542943 17.1462339,6.1714452 L17.1462339,15.5461583 C17.1462339,17.4536624 15.5998963,19 13.6923922,19 Z" id="路径"></path>
                        <path d="M11.9654714,5.43133627 L7.03141186,5.43133627 C5.94140954,5.43133625 5.05778808,4.54771477 5.05778808,3.45771245 C5.05778808,2.36771013 5.94140954,1.48408865 7.03141186,1.48408863 L7.58649356,1.48408863 C7.81009022,0.610802097 8.59698458,8.20982054e-07 9.49844164,8.20982054e-07 C10.3998987,8.20982054e-07 11.1867931,0.610802097 11.4103897,1.48408863 L11.9654714,1.48408863 C13.0554738,1.48408863 13.9390952,2.36771011 13.9390952,3.45771245 C13.9390952,4.54771479 13.0554738,5.43133627 11.9654714,5.43133627 Z M7.03141186,2.47090053 C6.48641069,2.47090053 6.04459995,2.91271128 6.04459995,3.45771245 C6.04459995,4.00271362 6.48641069,4.44452436 7.03141186,4.44452436 L11.9654714,4.44452436 C12.5104726,4.44452435 12.9522833,4.00271361 12.9522833,3.45771245 C12.9522833,2.91271128 12.5104726,2.47090054 11.9654714,2.47090053 L10.9786595,2.47090053 C10.7061589,2.47090053 10.4852536,2.24999516 10.4852536,1.97749458 C10.4852536,1.43249341 10.0434428,0.990682665 9.49844164,0.990682665 C8.95344047,0.990682665 8.51162972,1.43249341 8.51162972,1.97749458 C8.51162972,2.10835398 8.45964603,2.23385371 8.36711446,2.32638528 C8.2745829,2.41891684 8.14908316,2.47090053 8.01822377,2.47090053 L7.03141186,2.47090053 Z" id="形状" fill-rule="nonzero"></path>
                    </g>
                </g>
            </g>
        </g>
    </g>
</svg>