<?xml version="1.0" encoding="UTF-8"?>
<svg width="19px" height="19px" viewBox="0 0 19 19" version="1.1" xmlns="http://www.w3.org/2000/svg" xmlns:xlink="http://www.w3.org/1999/xlink">
    <!-- Generator: Sketch 52.6 (67491) - http://www.bohemiancoding.com/sketch -->
    <title>对</title>
    <desc>Created with Sketch.</desc>
    <g id="Page-1" stroke="none" stroke-width="1" fill="none" fill-rule="evenodd">
        <g id="绑定管家" transform="translate(-333.000000, -174.000000)">
            <g id="对" transform="translate(333.000000, 174.000000)">
                <rect id="矩形" fill="#000000" opacity="0" x="0" y="0" width="19" height="19"></rect>
                <path d="M16.4747812,5.53315625 C16.2360937,5.3093125 15.8596562,5.32 15.6358125,5.55928125 L7.7175625,13.9899375 L3.39209375,9.728 C3.15815625,9.497625 2.7823125,9.5 2.5519375,9.7339375 C2.3215625,9.96728125 2.32453125,10.3437187 2.55846875,10.5735 L7.317375,15.26175 C7.31915625,15.2635312 7.32153125,15.264125 7.3233125,15.2659063 C7.32509375,15.2676875 7.3256875,15.2700625 7.32746875,15.2718438 C7.364875,15.3074688 7.41,15.3276563 7.45334375,15.3514063 C7.47471875,15.363875 7.493125,15.3822813 7.5156875,15.3911875 C7.58575,15.4185 7.65996875,15.43275 7.73359375,15.43275 C7.811375,15.43275 7.88915625,15.4173125 7.96159375,15.3864375 C7.9859375,15.3763438 8.0049375,15.3555625 8.0275,15.3425 C8.07203125,15.316375 8.11834375,15.2944063 8.15634375,15.2558125 C8.158125,15.2540312 8.15871875,15.2510625 8.1605,15.2492813 C8.1616875,15.2475 8.1640625,15.2469062 8.16584375,15.245125 L16.5003125,6.372125 C16.7259375,6.13403125 16.7134687,5.7581875 16.4747812,5.53315625 Z" id="路径" fill="#00C1DE"></path>
            </g>
        </g>
    </g>
</svg>