<?xml version="1.0" encoding="UTF-8"?>
<svg width="20px" height="20px" viewBox="0 0 20 20" version="1.1" xmlns="http://www.w3.org/2000/svg" xmlns:xlink="http://www.w3.org/1999/xlink">
    <!-- Generator: Sketch 52.6 (67491) - http://www.bohemiancoding.com/sketch -->
    <title>服务受理-未选择</title>
    <desc>Created with Sketch.</desc>
    <g id="Page-1" stroke="none" stroke-width="1" fill="none" fill-rule="evenodd">
        <g id="兑换记录" transform="translate(-178.000000, -627.000000)" fill-rule="nonzero" stroke="#B3B3B3">
            <g id="服务受理-未选择" transform="translate(178.000000, 627.000000)">
                <path d="M5.49236392,1 L4.93551756,1 C2.76217204,1 1,2.76217204 1,4.93551756 L1,5.49236392 C1,7.66570944 2.76217204,9.43023104 4.93786712,9.43023104 L9.4325806,9.43023104 L9.4325806,4.93551756 C9.43023104,2.76217204 7.668059,1 5.49236392,1 Z M15.0621329,1 L14.5052865,1 C12.331941,1 10.5674194,2.76217204 10.5674194,4.93786712 L10.5674194,9.4325806 L15.0621329,9.4325806 C17.2354784,9.4325806 19,7.67040856 19,5.49471348 L19,4.93786712 C18.9976504,2.76217204 17.2354784,1 15.0621329,1 Z M15.0621329,10.5674194 L10.5674194,10.5674194 L10.5674194,15.0621329 C10.5674194,17.2354784 12.3295914,19 14.5052865,19 L15.0621329,19 C17.2354784,18.9976504 18.9976504,17.2354784 18.9976504,15.0621329 L18.9976504,14.5052865 C18.9976504,12.3295914 17.2354784,10.5674194 15.0621329,10.5674194 Z M1,14.5052865 L1,15.0621329 C1,17.2354784 2.76217204,18.9976504 4.93551756,18.9976504 L5.49236392,18.9976504 C7.668059,18.9976504 9.43023104,17.2354784 9.43023104,15.0597833 L9.43023104,10.5674194 L4.93551756,10.5674194 C2.76217204,10.5674194 1,12.3295914 1,14.5052865 Z" id="Shape"></path>
            </g>
        </g>
    </g>
</svg>