<?xml version="1.0" encoding="UTF-8"?>
<svg width="20px" height="20px" viewBox="0 0 20 20" version="1.1" xmlns="http://www.w3.org/2000/svg" xmlns:xlink="http://www.w3.org/1999/xlink">
    <!-- Generator: Sketch 52.6 (67491) - http://www.bohemiancoding.com/sketch -->
    <title>管家-选择</title>
    <desc>Created with Sketch.</desc>
    <g id="Page-1" stroke="none" stroke-width="1" fill="none" fill-rule="evenodd">
        <g id="小李详情-" transform="translate(-303.000000, -706.000000)">
            <g id="分组-7" transform="translate(0.000000, 697.000000)">
                <g id="分组-2" transform="translate(293.000000, 9.000000)">
                    <g id="管家-选择" transform="translate(10.000000, 0.000000)">
                        <rect id="矩形" fill="#000000" opacity="0" x="0" y="0" width="20" height="20"></rect>
                        <path d="M18.4963375,11.5667358 L18.4963375,6.00926373 L18.4629401,6.00926373 L18.4833463,5.99759164 L9.74271244,1 L1,5.99903066 L4.92997547,8.24208986 C4.03484236,9.32357662 3.49682715,10.7114356 3.49682715,12.2249695 C3.49682715,15.6771289 6.29536975,18.4756915 9.74758914,18.4756915 C13.1997886,18.4756915 15.9983112,15.6771289 15.9983112,12.2249695 C15.9983112,10.7097368 15.4590568,9.32049871 14.5621249,8.2384923 L17.2472044,6.70403268 L17.2472044,11.5533648 C17.2459053,11.5698736 17.2450459,11.5865223 17.2450459,11.6033709 C17.2450459,11.9492364 17.5254158,12.2296063 17.8712813,12.2296063 C18.2171468,12.2296063 18.4975167,11.9492364 18.4975167,11.6033709 C18.4974967,11.5910593 18.497037,11.5788675 18.4963375,11.5667358 Z M14.7191784,12.2249895 C14.7191784,14.9707079 12.4933075,17.1965787 9.74758914,17.1965787 C7.00183076,17.1965787 4.7759599,14.9707079 4.7759599,12.2249895 C4.7759599,10.9408401 5.26288977,9.77043363 6.06212787,8.88827174 C6.32205164,8.60136627 6.61511295,8.34512 6.93511598,8.1251891 C7.73501365,7.57536188 8.70359695,7.2533602 9.7476291,7.2533602 C10.7832869,7.2533602 11.7449549,7.57018539 12.5411351,8.11199805 C12.8674339,8.33402752 13.1660714,8.59381139 13.4304521,8.88523379 C14.2311893,9.76781543 14.7191784,10.9394011 14.7191784,12.2249895 Z M13.7485365,7.42266543 C12.6644715,6.51847848 11.2696771,5.97422746 9.74756914,5.97422746 C8.21432867,5.97422746 6.81032059,6.52659295 5.72285789,7.44273182 L3.15851652,5.99905063 L9.74273242,2.28318998 L16.244844,5.99759162 L13.7485365,7.42266543 Z" id="形状" fill="#00C1DE" fill-rule="nonzero"></path>
                    </g>
                </g>
            </g>
        </g>
    </g>
</svg>