<?xml version="1.0" encoding="UTF-8"?>
<svg width="23px" height="23px" viewBox="0 0 23 23" version="1.1" xmlns="http://www.w3.org/2000/svg" xmlns:xlink="http://www.w3.org/1999/xlink">
    <!-- Generator: Sketch 52.6 (67491) - http://www.bohemiancoding.com/sketch -->
    <title>发货-蓝</title>
    <desc>Created with Sketch.</desc>
    <g id="Page-1" stroke="none" stroke-width="1" fill="none" fill-rule="evenodd">
        <g id="兑换记录详情-copy-4" transform="translate(-18.000000, -527.000000)">
            <g id="发货-蓝" transform="translate(18.000000, 527.000000)">
                <circle id="Oval-1-Copy-23" stroke="#00C1DE" fill="#00C1DE" stroke-linecap="square" cx="11.6036364" cy="11.6036364" r="10.6036364"></circle>
                <path d="M10.8059355,15.5642827 C10.8059355,16.1853381 10.3326933,16.6886465 9.74873806,16.6886465 C9.1647828,16.6886465 8.69152688,16.1853381 8.69152688,15.5642827 C8.69152688,14.9432274 9.16476903,14.439919 9.74873806,14.439919 C10.3326933,14.4399044 10.8059355,14.9432128 10.8059355,15.5642827 Z M16.7262796,15.5642827 C16.7262796,16.1853381 16.2530374,16.6886465 15.6690822,16.6886465 C15.0851269,16.6886465 14.6118847,16.1853381 14.6118847,15.5642827 C14.6118847,14.9432274 15.0851269,14.439919 15.6690822,14.439919 C16.2530374,14.4399044 16.7262796,14.9432128 16.7262796,15.5642827 Z M17.6711673,11.7326458 L16.7262796,9.94242028 C16.5330271,9.69470369 16.4025222,9.49267187 16.0919639,9.49267187 L14.611871,9.49267187 L14.611871,8.14342664 C14.611871,7.89571004 14.421908,7.69367822 14.1889892,7.69367822 L7.42288172,7.69367822 C7.18996301,7.69367822 7,7.89571004 7,8.14342664 L7,14.8896528 C7,15.1373694 7.18996301,15.3394012 7.42288172,15.3394012 L8.26615398,15.3394012 C8.36984774,14.564619 8.99177634,13.9647007 9.74873806,13.9647007 C10.5056998,13.9647007 11.1276284,14.564619 11.2313222,15.3394012 L14.1864981,15.3389474 C14.2905634,14.5642092 14.9125058,13.9647007 15.6690822,13.9647007 C16.4260439,13.9647007 17.0479725,14.564619 17.1516662,15.3394012 L17.5720568,15.3394012 C17.8049755,15.3394012 17.9949385,15.1373694 17.9949385,14.8896528 C17.9949385,14.8896528 17.9949385,13.0669605 17.9949385,12.6409108 C17.9949247,12.214861 17.6711673,11.7326458 17.6711673,11.7326458 Z M15.0347527,12.6409108 L15.0347527,10.3921687 L16.0692404,10.3921687 C16.1373695,10.3921687 16.2319656,10.4984396 16.2319656,10.4984396 L17.1222951,12.2588039 C17.2011596,12.3822158 17.2866718,12.5284773 17.2866718,12.6409108 L15.0347527,12.6409108 Z" id="Shape" fill="#FFFFFF" fill-rule="nonzero"></path>
            </g>
        </g>
    </g>
</svg>