<?xml version="1.0" encoding="UTF-8"?>
<svg width="19px" height="19px" viewBox="0 0 19 19" version="1.1" xmlns="http://www.w3.org/2000/svg" xmlns:xlink="http://www.w3.org/1999/xlink">
    <!-- Generator: Sketch 52.6 (67491) - http://www.bohemiancoding.com/sketch -->
    <title>积分-块</title>
    <desc>Created with Sketch.</desc>
    <g id="Page-1" stroke="none" stroke-width="1" fill="none" fill-rule="evenodd">
        <g id="园区商城" transform="translate(-20.000000, -302.000000)" fill="#FF8E58">
            <g id="分组" transform="translate(20.000000, 302.000000)">
                <g id="积分-块">
                    <rect id="矩形" opacity="0" x="0" y="0" width="19" height="19"></rect>
                    <path d="M15.3348926,1.82262695 L3.66510742,1.82262695 C2.65165039,1.82262695 1.82244141,2.65183594 1.82244141,3.66529297 L1.82244141,15.3348926 C1.82244141,16.3483496 2.65165039,17.1775586 3.66510742,17.1775586 L15.334707,17.1775586 C16.3481641,17.1775586 17.177373,16.3483496 17.177373,15.3348926 L17.177373,3.66510742 C17.177373,2.65165039 16.3481641,1.82262695 15.3348926,1.82262695 Z M9.5,14.1770801 C6.91570313,14.1770801 4.82143555,13.1298535 4.82143555,11.8386328 C4.82143555,11.5668066 4.91513672,11.3042578 5.08862305,11.0600781 C5.72894531,11.9661035 7.46250977,12.617002 9.5,12.617002 C11.5360059,12.617002 13.2695703,11.965918 13.9098926,11.0600781 C14.0833789,11.3042578 14.1770801,11.5668066 14.1770801,11.8386328 C14.1770801,13.1298535 12.0842969,14.1770801 9.5,14.1770801 Z M9.5,11.8384473 C6.91570313,11.8384473 4.82143555,10.7912207 4.82143555,9.5 C4.82143555,9.22668945 4.91513672,8.965625 5.08862305,8.71996094 C5.72894531,9.62598633 7.46250977,10.2785547 9.5,10.2785547 C11.5360059,10.2785547 13.2695703,9.62598633 13.9098926,8.71996094 C14.0833789,8.965625 14.1770801,9.22668945 14.1770801,9.5 C14.1770801,10.7914063 12.0842969,11.8384473 9.5,11.8384473 Z M9.5,9.5 C6.91570313,9.5 4.82143555,8.45128906 4.82143555,7.15988281 C4.82143555,5.86847656 6.91588867,4.82125 9.5,4.82125 C12.0841113,4.82125 14.1770801,5.86847656 14.1770801,7.15988281 C14.1770801,8.45128906 12.0842969,9.5 9.5,9.5 Z" id="形状" fill-rule="nonzero"></path>
                </g>
            </g>
        </g>
    </g>
</svg>