<?xml version="1.0" encoding="UTF-8"?>
<svg width="20px" height="20px" viewBox="0 0 20 20" version="1.1" xmlns="http://www.w3.org/2000/svg" xmlns:xlink="http://www.w3.org/1999/xlink">
    <!-- Generator: Sketch 52.6 (67491) - http://www.bohemiancoding.com/sketch -->
    <title>购买记录-未选</title>
    <desc>Created with Sketch.</desc>
    <g id="Page-1" stroke="none" stroke-width="1" fill="none" fill-rule="evenodd">
        <g id="园区商城" transform="translate(-244.000000, -739.000000)">
            <g id="底" transform="translate(0.000000, 724.000000)">
                <g id="购买记录-未选" transform="translate(244.000000, 15.000000)">
                    <rect id="矩形" fill="#000000" opacity="0" x="0" y="0" width="20" height="20"></rect>
                    <path d="M17.1672706,14.2469406 L7.60579328,14.2469406 C6.78317102,14.2469406 6.27793357,13.7821357 6.10413141,12.864278 L4.88010129,3.58492941 L4.86549119,3.41360557 C4.78446613,2.4348092 4.66232893,0.955432207 2.12954617,0.955432207 C1.82801061,0.955432207 1.58359633,1.19998641 1.58359633,1.50138205 C1.58359633,1.80291762 1.82801062,2.0474718 2.12954617,2.0474718 C3.65675072,2.0474718 3.69966164,2.56460119 3.77724902,3.50362453 L3.79501697,3.70556762 L5.02356402,13.0216913 L5.02780115,13.0498122 C5.29340107,14.4833203 6.25688783,15.3388403 7.60579328,15.3388403 L17.1672506,15.3388403 C17.4688062,15.3388403 17.7132004,15.0948257 17.7132004,14.7929104 C17.7132404,14.4917746 17.4688261,14.2469406 17.1672706,14.2469406 Z M18.5082814,3.65242365 C18.1587983,3.26098904 17.6479047,3.0541293 17.0307831,3.0541293 L6.52030924,3.0541293 C6.21877367,3.0541293 5.97421949,3.29854359 5.97421949,3.60007914 C5.97421949,3.90161469 6.21877369,4.14616889 6.52030924,4.14616889 L17.0308031,4.14616889 C17.2382025,4.14616889 17.5212906,4.18660146 17.6934339,4.37953066 C17.8678956,4.57477828 17.8782686,4.8735757 17.8547645,5.09462582 L17.0387178,9.95686922 C16.9739617,10.3320349 16.656437,10.9965843 15.8774051,11.1274755 L7.84952805,11.6545782 C7.54853213,11.6742448 7.32050672,11.9343685 7.3403133,12.2352245 C7.35944033,12.5237888 7.59949758,12.7453786 7.88476416,12.7453786 C7.89665609,12.7453786 7.90894777,12.744839 7.92097961,12.7442794 L15.9743994,12.2155379 L16.0216673,12.2103214 C17.2536121,12.0209498 17.9606727,11.035358 18.115148,10.140025 L18.9342326,5.26017357 L18.93817,5.23147303 C19.0296479,4.42695852 18.7548742,3.92869635 18.5082814,3.65242365 Z M7.17132783,15.8850899 C6.47549961,15.8850899 5.91136209,16.4490875 5.91136209,17.1447758 C5.91136209,17.840724 6.47549961,18.4050014 7.17132783,18.4050014 C7.86713607,18.4050014 8.43129357,17.840764 8.43129357,17.1447758 C8.43129357,16.4490875 7.86715607,15.8850899 7.17132783,15.8850899 Z M15.9073048,15.8850899 C15.2115166,15.8850899 14.6473391,16.4490875 14.6473391,17.1447758 C14.6473391,17.840724 15.2115166,18.4050014 15.9073048,18.4050014 C16.6031531,18.4050014 17.1672706,17.840764 17.1672706,17.1447758 C17.1672706,16.4490875 16.603173,15.8850899 15.9073048,15.8850899 Z" id="形状" fill="#B3B3B3" fill-rule="nonzero"></path>
                </g>
            </g>
        </g>
    </g>
</svg>