<?xml version="1.0" encoding="UTF-8"?>
<svg width="22px" height="23px" viewBox="0 0 22 23" version="1.1" xmlns="http://www.w3.org/2000/svg" xmlns:xlink="http://www.w3.org/1999/xlink">
    <!-- Generator: Sketch 52.6 (67491) - http://www.bohemiancoding.com/sketch -->
    <title>签收-灰</title>
    <desc>Created with Sketch.</desc>
    <g id="Page-1" stroke="none" stroke-width="1" fill="none" fill-rule="evenodd">
        <g id="兑换记录详情-copy-3" transform="translate(-19.000000, -441.000000)">
            <g id="签收" transform="translate(19.000000, 441.000000)">
                <g id="Steps/_Resource/Icon1+Active" transform="translate(0.000000, 1.000000)">
                    <circle id="Oval-1-Copy-10" stroke="#E5E5E5" stroke-linecap="square" cx="10.6036364" cy="10.6036364" r="10.6036364"></circle>
                    <path d="M9.89997678,12.5202278 L14.953895,7.19044903 C15.1796856,6.95233406 15.5524314,6.93282528 15.8018452,7.146069 C16.0353064,7.34567368 16.0627526,7.696743 15.863148,7.93020429 C15.8569482,7.93745569 15.8505628,7.94454636 15.8439982,7.95146926 L10.2891211,13.809551 C10.0633306,14.0476659 9.69058474,14.0671747 9.44117099,13.853931 C9.30557001,13.7379949 9.23947065,13.5709604 9.24699486,13.4055522 C9.14556947,13.3759496 9.05053107,13.3199134 8.97287546,13.238019 L6.15600179,10.2673905 C6.1494372,10.2604676 6.14305184,10.253377 6.13685204,10.2461256 C5.93724736,10.0126643 5.96469356,9.66159495 6.19815484,9.46199027 C6.4475686,9.24874656 6.82031445,9.26825534 7.04610498,9.50637031 L9.86297865,12.4769988 C9.86954324,12.4839217 9.8759286,12.4910124 9.88212841,12.4982638 C9.88829432,12.5054755 9.89424357,12.5127995 9.89997678,12.5202278 Z" id="Combined-Shape" fill="#CDCDCD"></path>
                </g>
            </g>
        </g>
    </g>
</svg>