<?xml version="1.0" encoding="UTF-8"?>
<svg width="19px" height="19px" viewBox="0 0 19 19" version="1.1" xmlns="http://www.w3.org/2000/svg" xmlns:xlink="http://www.w3.org/1999/xlink">
    <!-- Generator: Sketch 52.6 (67491) - http://www.bohemiancoding.com/sketch -->
    <title>园区商城-选择</title>
    <desc>Created with Sketch.</desc>
    <g id="Page-1" stroke="none" stroke-width="1" fill="none" fill-rule="evenodd">
        <g id="园区商城" transform="translate(-57.000000, -740.000000)">
            <g id="底" transform="translate(0.000000, 724.000000)">
                <g id="园区商城-选择" transform="translate(57.000000, 16.000000)">
                    <rect id="矩形" fill="#000000" opacity="0" x="0" y="0" width="19" height="19"></rect>
                    <path d="M2.80389542,17.9924481 C2.39348192,17.9924481 2.00485243,17.8325015 1.7095032,17.5422451 C1.413004,17.2508387 1.24977172,16.8653963 1.24977174,16.4568885 L1.24977174,12.6796779 C1.24977174,12.5562352 1.28867411,12.4517836 1.37594161,12.341385 C1.45456779,12.2641059 1.57534915,12.2198807 1.70799179,12.2198807 C1.95208449,12.2198807 2.16627756,12.4235925 2.16627758,12.6557911 L2.16627758,16.4090819 C2.16627758,16.7560491 2.45840683,17.0490655 2.80415829,17.0490655 L15.9575318,17.0490655 C16.3032832,17.0490655 16.5954454,16.7559834 16.5954454,16.4090819 L16.5954454,12.584032 C16.5954454,12.3396107 16.7966929,12.1481216 17.0536326,12.1481216 C17.2978567,12.1481216 17.5119183,12.3518334 17.5119183,12.584032 L17.5119183,16.3851951 C17.5119183,17.2366446 16.8283996,17.9216747 15.9557575,17.944773 L2.80389542,17.9924481 Z M9.49845573,11.0834319 C8.44503585,11.0833333 7.44711103,10.6213019 6.76214661,9.81565468 L6.56911329,9.58960033 L6.37604709,9.8155561 C5.72410371,10.6097692 4.70978335,11.0833333 3.66194914,11.0833333 C3.07834775,11.0833333 2.56946261,10.9742161 2.10756259,10.7497389 L1.93956609,10.6531072 C0.793424507,10.0126308 0.0821418428,8.81211135 0.0821418428,7.51584733 C0.0821418428,7.16207883 0.143485365,6.79316339 0.269753817,6.3880398 L0.272743775,6.37841278 L0.272743775,6.3682929 C0.272743775,6.34782315 0.273400908,6.34723173 0.277245161,6.34335464 L0.286280756,6.3341876 L2.05581323,2.15980479 L2.05679893,2.15697912 C2.28121045,1.45874059 2.96739055,1.00755187 3.80494165,1.00755185 L15.314164,1.00755185 C16.1623607,1.00755185 16.8768633,1.47819176 17.1345587,2.20662566 L18.7283405,6.26420275 C18.7307719,6.28033541 18.7363904,6.29400381 18.7411875,6.30553653 C18.7467403,6.31897493 18.7511102,6.32958766 18.7511102,6.34440606 L18.7511102,6.40289105 L18.7544945,6.41307664 C18.8629217,6.73963975 18.917891,7.11065804 18.917891,7.51584733 C18.917891,8.8323511 18.2005627,10.0468018 17.0457798,10.685274 C16.5505302,10.9454993 15.9596675,11.0833333 15.3381823,11.0833333 C14.2761539,11.0833333 13.2951503,10.6328674 12.5758178,9.81483327 L12.383343,9.58960033 L12.1902768,9.8155561 C11.8728479,10.2023128 11.456553,10.5215488 10.9855188,10.739849 C10.5258531,10.9529578 10.0116451,11.0716692 9.49845573,11.0834319 Z M12.9606359,8.87309344 L12.9702301,8.88889753 C13.452567,9.68721769 14.311015,10.1638704 15.2664889,10.1638704 C15.7667327,10.1638704 16.1900589,10.0675016 16.5605187,9.86921115 C17.4327665,9.4074097 17.9536115,8.51860209 17.9536115,7.49179619 C17.9536115,7.20249261 17.9055092,6.90941051 17.8106518,6.62050122 L17.8106518,6.54680356 L16.2093787,2.51860037 C16.0179553,1.9901326 15.5087745,1.9328633 15.2913614,1.90831933 C15.2778902,1.90687364 15.2643203,1.90532937 15.2509148,1.90362082 L15.2468077,1.90312797 L3.73341253,1.90312797 C3.26165548,1.90312797 2.94366798,2.10812116 2.81378529,2.49599493 L1.09399794,6.61787269 L1.09399794,6.66834062 C0.999140531,6.95715135 0.951038265,7.25026629 0.951038265,7.53963561 C0.951038265,8.54327753 1.49406157,9.45426342 2.36828079,9.91721486 C2.36828079,9.91721486 2.93065671,10.151122 3.63819372,10.1638375 C4.55381242,10.1638375 5.41176757,9.68800626 5.93317112,8.8909018 L5.93527396,8.88768184 L5.93704821,8.8842976 C5.94066246,8.87690483 5.94486812,8.86800066 5.94963235,8.85788077 C5.97529347,8.80337144 6.01817151,8.71209542 6.09154061,8.63839776 L6.09403772,8.63580209 L6.0964034,8.63297641 C6.17453673,8.53499763 6.36891719,8.46655703 6.56921185,8.46655703 C6.77450075,8.46655703 6.95113857,8.54301466 7.06656429,8.68183438 L7.06843713,8.68410148 L7.07053995,8.68620432 C7.13464345,8.75057066 7.17962431,8.84082812 7.20124407,8.88423188 L7.20239405,8.88666328 L7.20383974,8.88893039 C7.68617665,9.68734911 8.5356876,10.163969 9.47621172,10.163969 C10.4018846,10.163969 11.2512313,9.68757911 11.7483537,8.8897518 L11.7583422,8.87365201 L11.7583422,8.84204382 C11.7804547,8.78188314 11.8243185,8.71676109 11.887042,8.63277927 C11.989555,8.51015793 12.1573215,8.44270305 12.3596205,8.44270303 C12.6660424,8.44270303 12.7979622,8.58717411 12.8310489,8.63139928 L12.8338746,8.63514496 L12.8371931,8.63846348 C12.902578,8.70414411 12.9297834,8.77038328 12.9496617,8.81881412 C12.9534403,8.82804685 12.9570874,8.83704961 12.9608002,8.84546093 L12.9608002,8.87309344 L12.9606359,8.87309344 Z M3.78108767,6.78018496 C3.53699497,6.78018496 3.3228676,6.57657175 3.3228676,6.3443732 C3.3228676,6.11214178 3.53706067,5.90846286 3.78108767,5.90846286 L14.9567484,5.90846286 C15.2008411,5.90846286 15.4149685,6.11214178 15.4149685,6.3443732 C15.4149685,6.57657177 15.2007754,6.78018498 14.9567484,6.78018496 L3.78108767,6.78018496 Z" id="形状" fill="#00C1DE" fill-rule="nonzero"></path>
                </g>
            </g>
        </g>
    </g>
</svg>