<?xml version="1.0" encoding="UTF-8"?>
<svg width="23px" height="23px" viewBox="0 0 23 23" version="1.1" xmlns="http://www.w3.org/2000/svg" xmlns:xlink="http://www.w3.org/1999/xlink">
    <!-- Generator: Sketch 52.6 (67491) - http://www.bohemiancoding.com/sketch -->
    <title>送达-蓝</title>
    <desc>Created with Sketch.</desc>
    <g id="Page-1" stroke="none" stroke-width="1" fill="none" fill-rule="evenodd">
        <g id="兑换记录详情-copy-3" transform="translate(-18.000000, -484.000000)">
            <g id="送达-蓝" transform="translate(18.000000, 484.000000)">
                <circle id="Oval-1-Copy-24" stroke="#00C1DE" fill="#00C1DE" stroke-linecap="square" cx="11.6036364" cy="11.6036364" r="10.6036364"></circle>
                <path d="M7.01248439,8.89507042 L7.01248439,13.8919718 C7.01248439,13.8919718 7.08614232,14.4357746 7.25468165,14.6069014 C7.42322097,14.7780282 7.73657928,14.9567606 7.73657928,14.9567606 L11.1972534,15.916338 C11.1972534,15.916338 11.505618,16.0088732 11.588015,15.9695775 C11.6691635,15.9302817 11.6454432,15.8111268 11.6454432,15.8111268 L11.6454432,10.1791549 L7.01248439,8.89507042 Z M16.9862672,8.89507042 L15.5168539,9.30197183 L15.5168539,11.4721127 L14.5480649,11.7383099 L14.5480649,9.57070423 L12.3358302,10.1842254 L12.3358302,15.3522535 C12.3358302,15.3522535 12.3220974,15.8694366 12.3870162,15.9619718 C12.4519351,16.0557746 12.7740325,15.9239437 12.7740325,15.9239437 L15.8838951,15.0619718 C15.8838951,15.0619718 16.5405743,14.8870423 16.7815231,14.6423944 C17.0224719,14.3977465 16.9875156,13.3671831 16.9875156,13.3671831 L16.9875156,8.89507042 L16.9862672,8.89507042 Z M16.9700375,8.37408451 L12.2646692,7.05197183 C12.2646692,7.05197183 12.0611735,7.00253521 11.9912609,7.00253521 C11.9213483,7.00253521 11.710362,7.05577465 11.710362,7.05577465 L10.258427,7.46267606 L15.2746567,8.83929577 L16.9700375,8.37408451 Z M7.01123596,8.37408451 L11.988764,9.74056338 L13.9475655,9.20309859 L8.94756554,7.83028169 L7.01123596,8.37408451 Z" id="Shape" fill="#FFFFFF" fill-rule="nonzero"></path>
            </g>
        </g>
    </g>
</svg>