<?xml version="1.0" encoding="UTF-8"?>
<svg width="373px" height="156px" viewBox="0 0 373 156" version="1.1" xmlns="http://www.w3.org/2000/svg" xmlns:xlink="http://www.w3.org/1999/xlink">
    <!-- Generator: Sketch 52.6 (67491) - http://www.bohemiancoding.com/sketch -->
    <title>代金券</title>
    <desc>Created with Sketch.</desc>
    <defs>
        <path d="M267.321839,15 L356,15 C357.104569,15 358,15.8954305 358,17 L358,139.16092 C358,140.265489 357.104569,141.16092 356,141.16092 L267.321839,141.16092 C267.321839,135.717423 262.909013,131.304598 257.465517,131.304598 C252.022021,131.304598 247.609195,135.717423 247.609195,141.16092 L17,141.16092 C15.8954305,141.16092 15,140.265489 15,139.16092 L15,17 C15,15.8954305 15.8954305,15 17,15 L247.609195,15 C247.609195,20.4434962 252.022021,24.8563218 257.465517,24.8563218 C262.909013,24.8563218 267.321839,20.4434962 267.321839,15 Z" id="path-1"></path>
        <filter x="-6.6%" y="-17.8%" width="113.1%" height="135.7%" filterUnits="objectBoundingBox" id="filter-3">
            <feOffset dx="0" dy="0" in="SourceAlpha" result="shadowOffsetOuter1"></feOffset>
            <feGaussianBlur stdDeviation="7.5" in="shadowOffsetOuter1" result="shadowBlurOuter1"></feGaussianBlur>
            <feColorMatrix values="0 0 0 0 0.85180581   0 0 0 0 0.887304958   0 0 0 0 0.911989796  0 0 0 0.5 0" type="matrix" in="shadowBlurOuter1"></feColorMatrix>
        </filter>
    </defs>
    <g id="Page-1" stroke="none" stroke-width="1" fill="none" fill-rule="evenodd">
        <g id="活动详情时间段" transform="translate(-1.000000, -914.000000)">
            <g id="代金券" transform="translate(1.000000, 914.000000)">
                <mask id="mask-2" fill="white">
                    <use xlink:href="#path-1"></use>
                </mask>
                <g id="合并形状">
                    <use fill="black" fill-opacity="1" filter="url(#filter-3)" xlink:href="#path-1"></use>
                    <use fill="#FFFFFF" fill-rule="evenodd" xlink:href="#path-1"></use>
                </g>
                <rect id="矩形" fill="#CDCDCD" mask="url(#mask-2)" x="258" y="15" width="100" height="126"></rect>
            </g>
        </g>
    </g>
</svg>