<?xml version="1.0" encoding="UTF-8"?>
<svg width="16px" height="16px" viewBox="0 0 16 16" version="1.1" xmlns="http://www.w3.org/2000/svg" xmlns:xlink="http://www.w3.org/1999/xlink">
    <!-- Generator: Sketch 52.6 (67491) - http://www.bohemiancoding.com/sketch -->
    <title>下载</title>
    <desc>Created with Sketch.</desc>
    <g id="Page-1" stroke="none" stroke-width="1" fill="none" fill-rule="evenodd">
        <g id="附件下载" transform="translate(-319.000000, -143.000000)">
            <g id="分组-5" transform="translate(20.000000, 120.000000)">
                <g id="下载" transform="translate(299.000000, 23.000000)">
                    <rect id="矩形" fill="#000000" opacity="0" x="0" y="0" width="16" height="16"></rect>
                    <path d="M13.1718906,12.8245156 C13.1715156,12.8245156 13.1711094,12.8245156 13.1711094,12.8245156 L2.87746875,12.8245156 C2.65653125,12.8245156 2.47748438,13.0035625 2.47748438,13.2248906 C2.47748438,13.4458281 2.65692188,13.6248906 2.87746875,13.6248906 L13.1711094,13.6248906 C13.1711094,13.6248906 13.1714844,13.6248906 13.1718906,13.6248906 C13.3928281,13.6248906 13.5718906,13.4458437 13.5718906,13.2248906 C13.5718906,13.0035469 13.3928438,12.8245156 13.1718906,12.8245156 Z M7.72470312,11.9692344 C7.79939062,12.0443281 7.90217187,12.091375 8.01639062,12.091375 C8.13059375,12.091375 8.23335937,12.0447187 8.30728125,11.9688594 L13.2789844,6.99714062 C13.3536875,6.92284375 13.40075,6.82009375 13.401125,6.70664062 C13.401125,6.48017187 13.2161406,6.29678125 12.990875,6.29678125 C12.8770469,6.29639062 12.7746719,6.34303125 12.7007656,6.41732812 L8.42625,10.6914531 L8.42625,2.95385937 C8.42584375,2.95346875 8.42584375,2.95346875 8.42584375,2.95307812 C8.42625,2.72660937 8.242875,2.5428125 8.01678125,2.5428125 C7.7903125,2.5428125 7.60692188,2.72660937 7.60692188,2.95307812 C7.60692188,2.95307812 7.60692188,2.95346875 7.6073125,2.95385937 L7.6073125,10.6910781 L3.3331875,6.41696875 C3.25928125,6.34267187 3.156125,6.29642187 3.04307813,6.2968125 C2.81660938,6.29642187 2.63321875,6.48020312 2.63242188,6.70589062 C2.63242188,6.81971875 2.67907813,6.92328125 2.75376563,6.99679687 L7.72470312,11.9693125 L7.72470312,11.9692344 Z" id="形状" fill="#333333" fill-rule="nonzero"></path>
                </g>
            </g>
        </g>
    </g>
</svg>