<?xml version="1.0" encoding="UTF-8"?>
<svg width="33px" height="40px" viewBox="0 0 33 40" version="1.1" xmlns="http://www.w3.org/2000/svg" xmlns:xlink="http://www.w3.org/1999/xlink">
    <!-- Generator: Sketch 52.6 (67491) - http://www.bohemiancoding.com/sketch -->
    <title>excel文件</title>
    <desc>Created with Sketch.</desc>
    <g id="Page-1" stroke="none" stroke-width="1" fill="none" fill-rule="evenodd">
        <g id="附件下载" transform="translate(-40.000000, -212.000000)">
            <g id="excel文件" transform="translate(40.000000, 212.000000)">
                <path d="M22.8075145,0.0156127869 L5.10578036,0.0156127869 C2.25722542,0.0156127869 0.0190751445,2.21389541 0.0190751445,5.0117096 L0.0190751445,34.9882904 C0.0190751445,37.7861046 2.25722542,39.9843872 5.10578036,39.9843872 L27.8942196,39.9843872 C30.7427745,39.9843872 32.9809249,37.7861046 32.9809249,34.9882904 L32.9809249,10.0078064 L22.8075145,0.0156127869 Z" id="路径" fill="#21C800"></path>
                <path d="M25.4526011,10.0078064 C24.0283237,10.0078064 22.8075144,8.80874319 22.8075145,7.40983607 L22.8075145,0.0156127869 L32.9809249,10.0078064 L25.4526011,10.0078064 Z" id="路径" fill="#8BDF6A"></path>
                <polygon id="路径" fill="#FFFFFF" points="19.7554913 23.3973458 25.249133 31.7907884 19.3485549 31.7907884 16.0930636 25.7954723 12.8375723 31.7907884 7.75086704 31.7907884 13.4479769 22.9976581 7.95433526 15.403591 13.8549133 15.403591 16.9069364 20.7993755 20.1624277 15.403591 25.249133 15.403591"></polygon>
            </g>
        </g>
    </g>
</svg>