<?xml version="1.0" encoding="UTF-8"?>
<svg width="14px" height="14px" viewBox="0 0 14 14" version="1.1" xmlns="http://www.w3.org/2000/svg" xmlns:xlink="http://www.w3.org/1999/xlink">
    <!-- Generator: Sketch 52.6 (67491) - http://www.bohemiancoding.com/sketch -->
    <title>附件</title>
    <desc>Created with Sketch.</desc>
    <g id="Page-1" stroke="none" stroke-width="1" fill="none" fill-rule="evenodd">
        <g id="活动详情" transform="translate(-16.000000, -821.000000)">
            <g id="分组-9" transform="translate(16.000000, 821.000000)">
                <g id="附件">
                    <rect id="矩形" fill="#B3B3B3" opacity="0" x="0" y="0" width="13.9863415" height="13.9863415"></rect>
                    <path d="M7.08509042,12.8927294 L9.51045055,10.4625693 L10.7231305,9.24748925 C10.9112892,9.05895794 10.9109873,8.75359054 10.7224563,8.5654318 C10.5339252,8.37727307 10.2285576,8.37757498 10.0403988,8.56610604 L8.82771888,9.78118609 L6.40235873,12.2113464 C5.68545817,12.9296659 4.64820144,13.1889997 3.69068107,12.9156757 C3.43455137,12.8425635 3.16764832,12.9909285 3.09453641,13.2470582 C3.02142425,13.5031876 3.1697892,13.7700907 3.42591865,13.8432028 C4.71732988,14.2118358 6.11812275,13.8616108 7.08509042,12.8927294 Z M11.9740855,1.53050774 C12.7276773,2.28559101 12.7280354,3.50882269 11.9746042,4.26374511 L10.4342626,5.80713524 C10.2461039,5.99566631 10.2464058,6.30103372 10.4349369,6.48919245 C10.6234679,6.67735118 10.9288356,6.67704952 11.1169943,6.48851821 L12.6573359,4.94512832 C13.7866479,3.81358097 13.7861111,1.9806538 12.6568172,0.849124777 C11.5270746,-0.282853746 9.6956355,-0.283056057 8.56620973,0.84860511 C8.378051,1.03713617 8.37835291,1.34250358 8.56688397,1.53066231 C8.75541504,1.71882104 9.06078268,1.71851938 9.24894141,1.52998807 C10.0014898,0.77595041 11.2211528,0.776085206 11.9740855,1.53050774 Z M2.49717977,12.211033 C1.41830666,11.1300248 1.41836236,9.37606472 2.496867,8.29542548 L6.39727252,4.3873007 L9.24894141,1.52998807 C9.43710015,1.34145701 9.43679823,1.03608961 9.24826718,0.84793087 C9.05973588,0.659771895 8.75436846,0.660073817 8.56620973,0.84860511 L5.71454084,3.70591749 L1.81413556,7.61404251 C0.359848788,9.07120733 0.359773803,11.4348629 1.81444808,12.8924162 C2.26831475,13.3471808 2.82138436,13.6706386 3.42591865,13.8432028 C3.68204811,13.9163147 3.94895115,13.76795 4.02206331,13.5118203 C4.09517546,13.2556909 3.94681052,12.9887878 3.69068107,12.9156757 C3.24320856,12.7879449 2.83424746,12.5487676 2.49717977,12.211033 Z M5.47944009,7.67127727 L6.24964862,6.89954447 L7.01985715,6.12781166 C7.20801589,5.93928062 7.20771397,5.6339132 7.01918291,5.44575446 C6.83065162,5.25759573 6.5252842,5.25789741 6.33712547,5.4464287 L5.56691693,6.2181615 L4.79670841,6.98989431 L3.25629158,8.53335992 C3.06813285,8.72189098 3.06843476,9.02725839 3.25696582,9.21541712 C3.44549688,9.4035761 3.75086452,9.40327419 3.93902327,9.21474288 L5.47944009,7.67127727 Z M5.48485714,10.766336 C5.05847436,11.1935625 4.36542364,11.1932404 3.93919278,10.766166 C3.51202676,10.3381548 3.51216663,9.64244425 3.93902327,9.21474288 C4.127182,9.02621182 4.12688009,8.72084441 3.93834903,8.53268568 C3.74981772,8.34452695 3.44445031,8.34482861 3.25629158,8.53335992 C2.45370466,9.33753501 2.45344254,10.6429413 3.25646111,11.4475492 C4.05939382,12.2520708 5.36422036,12.2526775 6.16758882,11.4477192 L11.2805197,6.32466919 C11.4686785,6.13613788 11.4683768,5.83077047 11.2798455,5.64261174 C11.0913144,5.45445301 10.785947,5.45475492 10.597788,5.64328598 L5.48485714,10.766336 Z" id="形状" fill="#00C1DE" fill-rule="nonzero"></path>
                </g>
            </g>
        </g>
    </g>
</svg>