<?xml version="1.0" encoding="UTF-8"?>
<svg width="33px" height="40px" viewBox="0 0 33 40" version="1.1" xmlns="http://www.w3.org/2000/svg" xmlns:xlink="http://www.w3.org/1999/xlink">
    <!-- Generator: Sketch 52.6 (67491) - http://www.bohemiancoding.com/sketch -->
    <title>图片</title>
    <desc>Created with Sketch.</desc>
    <g id="Page-1" stroke="none" stroke-width="1" fill="none" fill-rule="evenodd">
        <g id="附件下载" transform="translate(-40.000000, -536.000000)">
            <g id="图片" transform="translate(40.000000, 536.000000)">
                <g id="分组-31-copy">
                    <g id="ppt文件-copy" transform="translate(0.000000, 0.048363)">
                        <path d="M22.6660156,0.0155009766 L5.07410388,0.0155009766 C2.24322149,0.0155009766 0.0189568015,2.19804069 0.0189568015,4.97581845 L0.0189568015,34.7377232 C0.0189568015,37.515501 2.24322149,39.6980407 5.07410388,39.6980407 L27.7211627,39.6980407 C30.552045,39.6980407 32.7763097,37.515501 32.7763097,34.7377232 L32.7763097,9.93613593 L22.6660156,0.0155009766 Z" id="路径" fill="#5FC4FA"></path>
                        <path d="M25.2946921,9.93613593 C23.8792509,9.93613593 22.6660156,8.74565974 22.6660156,7.35677083 L22.6660156,0.0155009766 L32.7763097,9.93613593 L25.2946921,9.93613593 Z" id="路径" fill="#B7E4FC"></path>
                    </g>
                </g>
                <g id="图片文件" transform="translate(5.095588, 14.285714)" fill="#FFFFFF" fill-rule="nonzero">
                    <path d="M17.9677741,6.83836351 L14.220904,13.4859155 L7.61573459,1.76894702 L0.0548289027,15.1827632 L22.6717513,15.1827632 L17.9677741,6.83836351 Z M14.7900965,1.60127431 C14.7782573,2.14786921 15.0694466,2.65798171 15.5512682,2.93471341 C16.0330898,3.21144511 16.6301779,3.21151004 17.1120624,2.93488316 C17.5939468,2.65825627 17.885252,2.14820712 17.8735369,1.60160966 C17.8559439,0.780759609 17.170974,0.124290364 16.3319845,0.124199118 C15.492995,0.124107872 14.807876,0.780428111 14.7900965,1.60127431 Z" id="形状"></path>
                </g>
            </g>
        </g>
    </g>
</svg>