<?xml version="1.0" encoding="UTF-8"?>
<svg width="33px" height="40px" viewBox="0 0 33 40" version="1.1" xmlns="http://www.w3.org/2000/svg" xmlns:xlink="http://www.w3.org/1999/xlink">
    <!-- Generator: Sketch 52.6 (67491) - http://www.bohemiancoding.com/sketch -->
    <title>其他文件或未知文件</title>
    <desc>Created with Sketch.</desc>
    <g id="Page-1" stroke="none" stroke-width="1" fill="none" fill-rule="evenodd">
        <g id="附件下载" transform="translate(-40.000000, -617.000000)">
            <g id="其他文件或未知文件" transform="translate(40.000000, 617.000000)">
                <path d="M22.8075145,0.0156127869 L5.10578036,0.0156127869 C2.25722542,0.0156127869 0.0190751445,2.21389541 0.0190751445,5.0117096 L0.0190751445,34.9882904 C0.0190751445,37.7861046 2.25722542,39.9843872 5.10578036,39.9843872 L27.8942196,39.9843872 C30.7427745,39.9843872 32.9809249,37.7861046 32.9809249,34.9882904 L32.9809249,10.0078064 L22.8075145,0.0156127869 Z" id="路径" fill="#30BF8F"></path>
                <path d="M25.4526011,10.0078064 C24.0283237,10.0078064 22.8075144,8.80874319 22.8075145,7.40983607 L22.8075145,0.0156127869 L32.9809249,10.0078064 L25.4526011,10.0078064 Z" id="路径" fill="#68E0B1"></path>
                <path d="M14.2618497,31.5909446 C14.2618497,32.1904762 14.465318,32.5901639 15.0757225,32.7900078 C15.4826589,32.9898517 16.0930636,32.9898517 16.5,32.7900078 C16.9069364,32.5901639 17.3138728,31.9906323 17.3138728,31.5909446 C17.3138728,30.991413 17.1104046,30.5917252 16.5,30.3918814 C16.0930636,30.1920375 15.482659,30.1920375 15.0757225,30.3918814 C14.4653179,30.5917252 14.2618497,30.991413 14.2618497,31.5909446 Z M16.5,11.0070258 C12.8375723,11.0070258 9.98901736,13.80484 9.98901736,17.4020296 C9.98901736,18.2014052 10.599422,18.6010929 11.2098266,18.6010929 C11.8202312,18.6010929 12.4306359,18.0015613 12.4306359,17.4020296 C12.4306359,15.2037471 14.2618497,13.6049961 16.2965318,13.6049961 C18.3312138,13.6049962 20.1624277,15.403591 20.1624277,17.4020296 C20.1624277,18.8009368 19.1450867,19.8001561 17.7208092,21.1990632 C16.2965318,22.5979704 14.2618497,24.3965652 13.8549133,27.5940671 C13.8549133,28.3934426 14.2618497,28.9929742 15.0757225,28.9929742 L15.2791908,28.9929742 C15.8895954,28.9929742 16.5,28.5932865 16.5,27.793911 C16.7034682,25.5956284 18.1277456,24.3965652 19.5520231,22.9976581 C20.9763006,21.598751 22.6040462,20 22.8075145,17.4020296 C23.0109827,13.80484 20.1624277,11.0070258 16.5,11.0070258 Z" id="形状" fill="#FFFFFF" fill-rule="nonzero"></path>
            </g>
        </g>
    </g>
</svg>