<?xml version="1.0" encoding="UTF-8"?>
<svg width="33px" height="40px" viewBox="0 0 33 40" version="1.1" xmlns="http://www.w3.org/2000/svg" xmlns:xlink="http://www.w3.org/1999/xlink">
    <!-- Generator: Sketch 52.6 (67491) - http://www.bohemiancoding.com/sketch -->
    <title>pdf</title>
    <desc>Created with Sketch.</desc>
    <g id="Page-1" stroke="none" stroke-width="1" fill="none" fill-rule="evenodd">
        <g id="附件下载" transform="translate(-40.000000, -293.000000)">
            <g id="pdf" transform="translate(40.000000, 293.000000)">
                <g id="word文件-copy" transform="translate(0.000000, 0.189732)">
                    <path d="M22.6660156,0.0155009766 L5.07410388,0.0155009766 C2.24322149,0.0155009766 0.0189568015,2.19804069 0.0189568015,4.97581845 L0.0189568015,34.7377232 C0.0189568015,37.515501 2.24322149,39.6980407 5.07410388,39.6980407 L27.7211627,39.6980407 C30.552045,39.6980407 32.7763097,37.515501 32.7763097,34.7377232 L32.7763097,9.93613593 L22.6660156,0.0155009766 Z" id="路径" fill="#FD8783"></path>
                    <path d="M25.2946921,9.93613593 C23.8792509,9.93613593 22.6660156,8.74565974 22.6660156,7.35677083 L22.6660156,0.0155009766 L32.7763097,9.93613593 L25.2946921,9.93613593 Z" id="路径" fill="#FFDDDD"></path>
                </g>
                <g id="pdf文件" transform="translate(3.639706, 18.095238)" fill="#FFFFFF" fill-rule="nonzero">
                    <path d="M5.64492182,0.205998816 C4.8705336,0.0746257072 4.08449774,0.0237345706 3.29951403,0.0541476418 L0.135940812,0.0541476418 L0.135940812,9.7509294 L2.11044686,9.7509294 L2.11044686,6.0739618 L3.39769391,6.0739618 C4.08050392,6.08577915 4.76305587,6.03860027 5.43765323,5.93295714 C5.80295955,5.84977876 6.14788003,5.6948987 6.45217845,5.47740366 C6.8023247,5.22630836 7.08666399,4.89523556 7.28125281,4.51206407 C7.5140275,4.04801518 7.62652181,3.53349949 7.60851899,3.01524541 C7.63983032,2.3404296 7.43983222,1.67503089 7.04125758,1.12795234 C6.7007057,0.661150067 6.20678712,0.327358877 5.64492182,0.184305779 L5.64492182,0.205998816 Z M5.36129112,3.81788731 C5.20856466,4.03699903 4.991349,4.20371573 4.73948531,4.29513382 C4.2337964,4.42317837 3.71152691,4.47437538 3.19042532,4.446985 L2.09953798,4.446985 L2.09953798,1.73535699 L3.04860997,1.73535699 C3.52229242,1.72253354 3.99628278,1.74428496 4.46676349,1.80043606 C4.77200225,1.8498665 5.05210037,1.99865253 5.26311124,2.22345002 C5.47398934,2.46680088 5.58327132,2.78113081 5.5685597,3.10201751 C5.57170075,3.36742754 5.49578844,3.62782787 5.35038224,3.85042686 L5.36129112,3.81788731 Z M16.1501668,1.13879885 C15.7469676,0.715735169 15.239149,0.405305555 14.6774689,0.238538329 C14.0699047,0.0976877527 13.4465453,0.0357081669 12.8229605,0.0541476418 L9.22303226,0.0541476418 L9.22303226,9.7509294 L12.9320492,9.7509294 C13.5171276,9.76445992 14.1011621,9.69506858 14.66656,9.54484567 C15.1851426,9.39987976 15.6605702,9.13188685 16.051987,8.76389681 C16.5519818,8.29496267 16.9268575,7.7097723 17.1428743,7.06099443 C17.3516246,6.39421069 17.4510763,5.69836619 17.4374138,5.0001571 C17.439324,4.21791756 17.3102912,3.44081541 17.0556033,2.70069658 C16.866323,2.11836542 16.5496524,1.58495489 16.1283491,1.13879885 L16.1501668,1.13879885 Z M15.1574593,6.68136649 C15.0729973,7.03209146 14.8960132,7.35408345 14.6447423,7.61416653 C14.4188418,7.81662183 14.1447629,7.95847741 13.8483945,8.02633398 C13.4560102,8.09516708 13.0576145,8.12423998 12.6593273,8.11310608 L11.1866295,8.11310608 L11.1866295,1.73535699 L12.0702482,1.73535699 C12.6135824,1.71504441 13.1576472,1.74408895 13.6956703,1.82212909 C14.0345909,1.88621847 14.3484351,2.04412332 14.6011068,2.27768262 C14.8626919,2.54126278 15.053929,2.86562587 15.1574593,3.22132913 C15.3192845,3.7813895 15.3892714,4.36372102 15.3647279,4.94592455 C15.3856137,5.54226856 15.3157351,6.13832647 15.1574593,6.713906 L15.1574593,6.68136649 Z M25.7827019,1.73535699 L25.7827019,0.0541476418 L19.0846537,0.0541476418 L19.0846537,9.7509294 L21.0482509,9.7509294 L21.0482509,5.62925483 L25.1172606,5.62925483 L25.1172606,3.99143152 L21.0482509,3.99143152 L21.0482509,1.73535699 L25.7827019,1.73535699 Z" id="形状"></path>
                </g>
            </g>
        </g>
    </g>
</svg>