<?xml version="1.0" encoding="UTF-8"?>
<svg width="33px" height="40px" viewBox="0 0 33 40" version="1.1" xmlns="http://www.w3.org/2000/svg" xmlns:xlink="http://www.w3.org/1999/xlink">
    <!-- Generator: Sketch 52.6 (67491) - http://www.bohemiancoding.com/sketch -->
    <title>ppt文件</title>
    <desc>Created with Sketch.</desc>
    <g id="Page-1" stroke="none" stroke-width="1" fill="none" fill-rule="evenodd">
        <g id="附件下载" transform="translate(-40.000000, -374.000000)">
            <g id="ppt文件" transform="translate(40.000000, 374.000000)">
                <path d="M22.8075145,0.0156127869 L5.10578036,0.0156127869 C2.25722542,0.0156127869 0.0190751445,2.21389541 0.0190751445,5.0117096 L0.0190751445,34.9882904 C0.0190751445,37.7861046 2.25722542,39.9843872 5.10578036,39.9843872 L27.8942196,39.9843872 C30.7427745,39.9843872 32.9809249,37.7861046 32.9809249,34.9882904 L32.9809249,10.0078064 L22.8075145,0.0156127869 Z" id="路径" fill="#FF9124"></path>
                <path d="M25.4526011,10.0078064 C24.0283237,10.0078064 22.8075144,8.80874319 22.8075145,7.40983607 L22.8075145,0.0156127869 L32.9809249,10.0078064 L25.4526011,10.0078064 Z" id="路径" fill="#FFBC82"></path>
                <path d="M13.6514451,32.9898517 L9.37861273,32.9898517 L9.37861273,13.4051522 L15.482659,13.4051522 C20.9763006,13.4051522 23.6213873,15.403591 23.6213873,19.4004684 C23.417919,23.197502 21.1797688,25.1959407 16.7034682,25.3957845 L13.6514451,25.3957845 L13.6514451,32.9898517 Z M13.6514451,16.802498 L13.6514451,22.3981265 L14.8722544,22.3981265 C17.7208092,22.5979704 19.1450867,21.7985948 19.1450867,19.6003123 C19.1450867,17.6018735 17.7208092,16.8024981 14.8722544,16.802498 L13.6514451,16.802498 Z" id="形状" fill="#FFFFFF" fill-rule="nonzero"></path>
            </g>
        </g>
    </g>
</svg>