<?xml version="1.0" encoding="UTF-8"?>
<svg width="16px" height="16px" viewBox="0 0 16 16" version="1.1" xmlns="http://www.w3.org/2000/svg" xmlns:xlink="http://www.w3.org/1999/xlink">
    <!-- Generator: Sketch 52.6 (67491) - http://www.bohemiancoding.com/sketch -->
    <title>时间</title>
    <desc>Created with Sketch.</desc>
    <g id="Page-1" stroke="none" stroke-width="1" fill="none" fill-rule="evenodd">
        <g id="园区活动" transform="translate(-23.000000, -310.000000)">
            <g id="分组-10" transform="translate(16.000000, 114.000000)">
                <g id="分组-7">
                    <g id="分组-2" transform="translate(7.000000, 196.000000)">
                        <g id="时间">
                            <rect id="矩形" fill="#000000" opacity="0" x="0" y="0" width="16" height="16"></rect>
                            <path d="M8,2 C4.6915,2 2,4.6915 2,8 C2,11.3085 4.6915,14 8,14 C11.3085,14 14,11.3085 14,8 C14,4.6915 11.3085,2 8,2 Z M8,13 C5.243,13 3,10.757 3,8 C3,5.243 5.243,3 8,3 C10.757,3 13,5.243 13,8 C13,10.757 10.757,13 8,13 Z" id="形状" fill="#656D72" fill-rule="nonzero"></path>
                            <path d="M10.324,9.4705 L8.25,8.271 L8.25,5 C8.25,4.724 8.026,4.5 7.75,4.5 C7.474,4.5 7.25,4.724 7.25,5 L7.25,8.5 C7.25,8.6855 7.4805,8.841 7.6305,8.927 C7.672,8.9895 7.786,9.046 7.8555,9.086 L9.918,10.336 C10.157,10.474 10.416,10.392 10.554,10.153 C10.692,9.914 10.5635,9.6085 10.324,9.4705 Z" id="路径" fill="#656D72" fill-rule="nonzero"></path>
                        </g>
                    </g>
                </g>
            </g>
        </g>
    </g>
</svg>