<?xml version="1.0" encoding="UTF-8"?>
<svg width="33px" height="40px" viewBox="0 0 33 40" version="1.1" xmlns="http://www.w3.org/2000/svg" xmlns:xlink="http://www.w3.org/1999/xlink">
    <!-- Generator: Sketch 52.6 (67491) - http://www.bohemiancoding.com/sketch -->
    <title>txt</title>
    <desc>Created with Sketch.</desc>
    <g id="Page-1" stroke="none" stroke-width="1" fill="none" fill-rule="evenodd">
        <g id="附件下载" transform="translate(-40.000000, -455.000000)">
            <g id="txt" transform="translate(40.000000, 455.000000)">
                <g id="ppt文件-copy" transform="translate(0.000000, 0.048363)">
                    <path d="M22.6660156,0.0155009766 L5.07410388,0.0155009766 C2.24322149,0.0155009766 0.0189568015,2.19804069 0.0189568015,4.97581845 L0.0189568015,34.7377232 C0.0189568015,37.515501 2.24322149,39.6980407 5.07410388,39.6980407 L27.7211627,39.6980407 C30.552045,39.6980407 32.7763097,37.515501 32.7763097,34.7377232 L32.7763097,9.93613593 L22.6660156,0.0155009766 Z" id="路径" fill="#E9C3FF"></path>
                    <path d="M25.2946921,9.93613593 C23.8792509,9.93613593 22.6660156,8.74565974 22.6660156,7.35677083 L22.6660156,0.0155009766 L32.7763097,9.93613593 L25.2946921,9.93613593 Z" id="路径" fill="#EFE0F8"></path>
                </g>
                <polygon id="路径" fill="#FFFFFF" points="15.1066852 15.4761905 8.53056066 15.4761905 8.53056066 18.2521645 15.1066852 18.2521645 15.1066852 30.2813853 17.9250243 30.2813853 17.9250243 18.2521645 24.5011489 18.2521645 24.5011489 15.4761905 17.9250243 15.4761905"></polygon>
            </g>
        </g>
    </g>
</svg>