<?xml version="1.0" encoding="UTF-8"?>
<svg width="33px" height="40px" viewBox="0 0 33 40" version="1.1" xmlns="http://www.w3.org/2000/svg" xmlns:xlink="http://www.w3.org/1999/xlink">
    <!-- Generator: Sketch 52.6 (67491) - http://www.bohemiancoding.com/sketch -->
    <title>word文件</title>
    <desc>Created with Sketch.</desc>
    <g id="Page-1" stroke="none" stroke-width="1" fill="none" fill-rule="evenodd">
        <g id="附件下载" transform="translate(-40.000000, -131.000000)">
            <g id="分组-5" transform="translate(20.000000, 120.000000)">
                <g id="word文件" transform="translate(20.000000, 11.000000)">
                    <path d="M22.8075145,0.0156127869 L5.10578036,0.0156127869 C2.25722542,0.0156127869 0.0190751445,2.21389541 0.0190751445,5.0117096 L0.0190751445,34.9882904 C0.0190751445,37.7861046 2.25722542,39.9843872 5.10578036,39.9843872 L27.8942196,39.9843872 C30.7427745,39.9843872 32.9809249,37.7861046 32.9809249,34.9882904 L32.9809249,10.0078064 L22.8075145,0.0156127869 Z" id="路径" fill="#42A0F8"></path>
                    <path d="M25.4526011,10.0078064 C24.0283237,10.0078064 22.8075144,8.80874319 22.8075145,7.40983607 L22.8075145,0.0156127869 L32.9809249,10.0078064 L25.4526011,10.0078064 Z" id="路径" fill="#7AC5FC"></path>
                    <polygon id="路径" fill="#FFFFFF" points="11.4132948 27.3942233 14.6687861 14.8040593 18.7381503 14.8040593 21.5867052 27.3942233 24.6387283 14.8040593 28.0976879 14.8040593 23.8248555 31.5909446 19.7554913 31.5909446 16.5 18.8009368 13.2445087 31.5909446 9.17514451 31.5909446 5.10578036 14.8040593 8.97167628 14.8040593"></polygon>
                </g>
            </g>
        </g>
    </g>
</svg>