<?xml version="1.0" encoding="UTF-8"?>
<svg width="91px" height="90px" viewBox="0 0 91 90" version="1.1" xmlns="http://www.w3.org/2000/svg" xmlns:xlink="http://www.w3.org/1999/xlink">
    <!-- Generator: Sketch 52.6 (67491) - http://www.bohemiancoding.com/sketch -->
    <title>活动-空</title>
    <desc>Created with Sketch.</desc>
    <g id="Page-1" stroke="none" stroke-width="1" fill="none" fill-rule="evenodd">
        <g id="园区活动-空状态" transform="translate(-142.000000, -273.000000)">
            <g id="活动-空" transform="translate(142.000000, 273.000000)">
                <g id="分组-2" transform="translate(1.000000, 88.000000)" stroke="#CDCDCD" stroke-linecap="round" stroke-linejoin="round" stroke-width="2">
                    <path d="M0.5,0.5 L65.5,0.5" id="直线-5"></path>
                    <path d="M73.5,0.5 L85,0.5" id="直线-5-copy"></path>
                    <path d="M69.5,0.5 L70,0.5" id="直线-5-copy-2"></path>
                </g>
                <g id="活动" transform="translate(4.000000, 0.000000)">
                    <rect id="矩形" fill="#000000" opacity="0" x="0" y="0" width="80" height="80"></rect>
                    <path d="M22.8661398,11.065743 C21.2687359,11.8607531 19.787525,12.8704278 18.4634179,14.0669328 C14.7671336,17.4048656 12.5949924,21.8685025 12.1448497,27.4201666 C12.132801,27.5686674 12.2434295,27.698811 12.3920416,27.7108534 C12.5405424,27.7229021 12.670686,27.6122736 12.682724,27.4637166 C13.120764,22.0611447 15.224859,17.7187234 18.8251149,14.4674267 C20.1336752,13.2857849 21.5801859,12.3078385 23.1061751,11.5491156 C23.5952393,11.3059362 24.0686872,11.097741 24.5127941,10.9284401 C24.7319336,10.8448221 24.9196854,10.7795362 25.0358501,10.7452758 C25.1788004,10.703214 25.2605758,10.5532402 25.2184789,10.4102436 C25.176415,10.267286 25.0264084,10.1854848 24.8835391,10.2275325 C24.3988667,10.3701506 23.6755623,10.6633509 22.8661398,11.065743 Z M50.8564439,17.1671724 L51.1137538,17.6425347 C53.4135064,16.5581139 55.8738986,15.9994531 58.3907813,15.9994531 C69.1436602,15.9994531 77.8253906,26.1740925 77.8253906,38.66875 C77.8253906,51.1633936 69.1436717,61.3379687 58.3907813,61.3379687 C52.1800747,61.3379687 46.4219287,57.905065 42.7717807,52.160274 L42.3066865,52.5260089 C45.9908421,58.4974482 51.8147255,61.8776562 58.3907813,61.8776562 C69.4058799,61.8776562 78.3650781,51.5093423 78.3650781,38.66875 C78.3650781,25.8281205 69.4059152,15.4598437 58.3908594,15.4598437 C55.7850181,15.4598437 53.2366463,16.0400791 50.8564439,17.1671724 Z" id="形状" stroke="#CDCDCD" stroke-width="2"></path>
                    <path d="M52.1096875,29.84125 C52.1096875,45.4585909 40.9338104,58.1428125 27.1421094,58.1428125 C13.3504738,58.1428125 2.17460937,45.4585767 2.17460937,29.84125 C2.17460937,14.2239233 13.3504738,1.5396875 27.1421094,1.5396875 C40.9338104,1.5396875 52.1096875,14.2239091 52.1096875,29.84125 Z M1.63492187,29.84125 C1.63492187,45.7945007 13.0830095,58.6825781 27.1421094,58.6825781 C41.2012251,58.6825781 52.649375,45.7944832 52.649375,29.84125 C52.649375,13.8880324 41.2012393,1 27.1421094,1 C13.0829954,1 1.63492187,13.8880149 1.63492187,29.84125 Z" id="形状" stroke="#CDCDCD" stroke-width="2"></path>
                    <path d="M25.5579512,59.7966928 C24.1574552,62.3630754 24.0866559,64.9161415 25.503038,67.3233329 C28.03263,71.6223182 28.4358854,72.5205991 28.4329669,74.1043411 C28.4305457,75.3659054 27.8976923,76.5654026 26.7772658,77.9014636 C26.6815259,78.015608 26.6964589,78.1857211 26.8106951,78.2815074 C26.9248888,78.3772721 27.0950419,78.3623407 27.1908192,78.2481153 C28.4134115,76.7903146 28.9700293,75.4714953 28.972658,74.1053428 C28.9758497,72.375133 28.6556527,71.6169558 25.9682241,67.0496564 C24.656002,64.8196855 24.7368764,62.4279237 26.0317342,60.0552641 C26.36118,59.4515757 26.7289914,58.9217848 27.0272806,58.5944087 C27.1276465,58.4842487 27.1196999,58.3136022 27.0094923,58.213193 C26.8993799,58.1128721 26.7286997,58.1208151 26.6281922,58.2311488 C26.3058485,58.584788 25.9163501,59.1399793 25.5579512,59.7966928 Z M56.9736662,62.8772129 C56.0009165,64.3032713 55.9543551,65.7218457 56.9396952,67.0614628 C58.5793757,69.2906677 58.8671929,69.777927 58.8653873,70.5909314 C58.8636876,71.2517722 58.5076467,71.841362 57.8030908,72.5134623 C57.6952853,72.6162891 57.6912604,72.7870852 57.7941123,72.8949005 C57.8969766,73.0027287 58.0678164,73.0067597 58.1756176,72.9039212 C59.0268475,72.0919094 59.4032348,71.3582349 59.4050028,70.5919209 C59.4073428,69.6071011 59.2377321,69.2749249 57.3744126,66.7416957 C56.5375465,65.6038138 56.5974678,64.3862153 57.4194708,63.1814778 C57.6302662,62.8723975 57.8705411,62.5941962 58.0632656,62.4249485 C58.175235,62.3266392 58.1863053,62.1561285 58.0880506,62.0442191 C57.9896556,61.9321711 57.8190594,61.9210959 57.7073558,62.0191551 C57.4843612,62.2151072 57.2200297,62.5161009 56.9736662,62.8772129 Z" id="形状" stroke="#CDCDCD" stroke-width="2"></path>
                </g>
                <g id="分组-5" transform="translate(82.500000, 7.000000) scale(-1, 1) translate(-82.500000, -7.000000) translate(74.000000, 2.000000)" stroke="#CDCDCD" stroke-linecap="round" stroke-linejoin="round" stroke-width="2">
                    <path d="M7.79548528,8.1241504 L1.79548528,5.6241504" id="直线-7" transform="translate(4.795485, 7.124150) rotate(20.000000) translate(-4.795485, -7.124150) "></path>
                    <path d="M14.2674746,5.44044306 L12.2674746,0.440443057" id="直线-7-copy-2" transform="translate(13.767475, 2.940443) rotate(20.000000) translate(-13.767475, -2.940443) "></path>
                    <path d="M10.9826437,6.14144035 L6.98264372,2.39144035" id="直线-7-copy" transform="translate(8.982644, 4.391440) rotate(20.000000) translate(-8.982644, -4.391440) "></path>
                </g>
            </g>
        </g>
    </g>
</svg>