<?xml version="1.0" encoding="UTF-8"?>
<svg width="19px" height="19px" viewBox="0 0 19 19" version="1.1" xmlns="http://www.w3.org/2000/svg" xmlns:xlink="http://www.w3.org/1999/xlink">
    <!-- Generator: Sketch 52.6 (67491) - http://www.bohemiancoding.com/sketch -->
    <title>投影仪</title>
    <desc>Created with Sketch.</desc>
    <g id="Page-1" stroke="none" stroke-width="1" fill="none" fill-rule="evenodd">
        <g id="会议室预约-会议室详情" transform="translate(-102.000000, -195.000000)">
            <g id="投影仪" transform="translate(102.000000, 195.000000)">
                <rect id="矩形" fill="#000000" opacity="0" x="0" y="0" width="19" height="19"></rect>
                <path d="M6.84667969,9.41650391 C8.12762109,9.41650391 9.16601562,8.37810938 9.16601562,7.09716797 C9.16601562,5.81622656 8.12762109,4.77783203 6.84667969,4.77783203 C5.56573828,4.77783203 4.52734375,5.81622656 4.52734375,7.09716797 C4.52734375,8.37810938 5.56573828,9.41650391 6.84667969,9.41650391 Z M6.84667969,5.70556641 C7.61400879,5.70556641 8.23828125,6.32983887 8.23828125,7.09716797 C8.23828125,7.86449707 7.61400879,8.48876953 6.84667969,8.48876953 C6.07935059,8.48876953 5.45507812,7.86449707 5.45507812,7.09716797 C5.45507812,6.32983887 6.07935059,5.70556641 6.84667969,5.70556641 Z" id="形状" fill="#00C1DE" fill-rule="nonzero"></path>
                <path d="M16.5136719,7.09716797 L11.0214844,7.09716797 C11.0214844,4.79148828 9.15235937,2.92236328 6.84667969,2.92236328 C4.541,2.92236328 2.671875,4.79148828 2.671875,7.09716797 L2.48632812,7.09716797 C1.76900391,7.09716797 1.1875,7.67867187 1.1875,8.39599609 L1.1875,12.9233398 C1.1875,13.6406641 1.76900391,14.222168 2.48632812,14.222168 L3.04296875,14.222168 L3.04296875,14.7788086 C3.04296875,15.4961328 3.62447266,16.0776367 4.34179688,16.0776367 C5.05912109,16.0776367 5.640625,15.4961328 5.640625,14.7788086 L5.640625,14.222168 L13.359375,14.222168 L13.359375,14.7788086 C13.359375,15.4961328 13.9408789,16.0776367 14.6582031,16.0776367 C15.3755273,16.0776367 15.9570312,15.4961328 15.9570312,14.7788086 L15.9570312,14.222168 L16.5136719,14.222168 C17.2309961,14.222168 17.8125,13.6406641 17.8125,12.9233398 L17.8125,8.39599609 C17.8125,7.67867188 17.2309961,7.09716797 16.5136719,7.09716797 Z M4.55064844,4.80113672 C5.16393652,4.18784863 5.97935937,3.85009766 6.84667969,3.85009766 C7.714,3.85009766 8.52942285,4.18784863 9.14271094,4.80113672 C9.75599902,5.4144248 10.09375,6.22984766 10.09375,7.09716797 C10.0937625,7.20486551 10.0885177,7.31249946 10.0780342,7.41968555 C10.0050029,8.16517578 9.67933105,8.85656055 9.14269238,9.39318066 C8.95104102,9.58483203 8.73964746,9.7495791 8.51309473,9.88551074 C8.42264331,9.93975557 8.3295916,9.98954168 8.23427344,10.0346904 C8.12344962,10.0870446 8.00971437,10.1329996 7.89362793,10.1723291 C7.83515445,10.19225 7.77611993,10.2104844 7.71659766,10.2270098 C7.58889907,10.2622687 7.45915547,10.2896513 7.32809961,10.3090029 C7.22220109,10.3246346 7.11560033,10.3350686 7.00868066,10.3402676 C6.90075624,10.3455194 6.79264025,10.3455194 6.68471582,10.3402676 C6.63111607,10.3376578 6.5775883,10.3337354 6.52418066,10.3285039 C5.77869043,10.2554727 5.08730566,9.92980078 4.55066699,9.39316211 C4.01404688,8.85654199 3.68835645,8.16515723 3.6153252,7.41966699 C3.61011133,7.36641504 3.60617773,7.31288477 3.60356152,7.25913184 C3.60093157,7.2051777 3.5996138,7.1511676 3.59960938,7.09714941 C3.59960938,6.22984766 3.93736035,5.4144248 4.55064844,4.80113672 Z M4.71289062,14.7788086 C4.71289062,14.9834297 4.54641797,15.1499023 4.34179688,15.1499023 C4.13717578,15.1499023 3.97070312,14.9834297 3.97070312,14.7788086 L3.97070312,14.222168 L4.71289062,14.222168 L4.71289062,14.7788086 Z M15.0292969,14.7788086 C15.0292969,14.9834297 14.8628242,15.1499023 14.6582031,15.1499023 C14.453582,15.1499023 14.2871094,14.9834297 14.2871094,14.7788086 L14.2871094,14.222168 L15.0292969,14.222168 L15.0292969,14.7788086 Z M16.8847656,12.9233398 C16.8847656,13.1279609 16.718293,13.2944336 16.5136719,13.2944336 L2.48632812,13.2944336 C2.28170703,13.2944336 2.11523438,13.1279609 2.11523438,12.9233398 L2.11523438,8.39599609 C2.11523438,8.191375 2.28170703,8.02490234 2.48632812,8.02490234 L2.77472363,8.02490234 C2.93184473,8.72077734 3.26588477,9.3644209 3.75405859,9.90156055 C3.75645215,9.90421387 3.75890137,9.90683008 3.76129492,9.90946484 C3.77922791,9.9291036 3.79735051,9.94856838 3.81566016,9.96785645 C3.82072559,9.9732002 3.82577246,9.9785625 3.830875,9.9838877 C3.85156462,10.005515 3.87247687,10.0269283 3.8936084,10.048124 C3.91785583,10.07239 3.94239934,10.0963582 3.9672334,10.1200234 C3.98937115,10.1410775 4.0117308,10.161897 4.03430859,10.1824785 C4.03616406,10.184167 4.03796387,10.1859111 4.03983789,10.1876182 C4.72860645,10.8145811 5.59288379,11.1875488 6.51789063,11.2591514 C6.52078516,11.259374 6.52366113,11.2596709 6.52655566,11.2598936 C6.55613184,11.2621201 6.58580078,11.2639199 6.61550684,11.2655342 C6.62151855,11.2658682 6.62749316,11.266332 6.63350488,11.2666289 C6.66144824,11.2680205 6.68946582,11.2689668 6.71750195,11.2698203 C6.72509082,11.270043 6.73262402,11.2704512 6.74021289,11.2706553 C6.81117954,11.2724396 6.88217983,11.2724396 6.95314648,11.2706553 C6.96073535,11.2704697 6.96826855,11.2700615 6.97585742,11.2698203 C7.00389355,11.2689668 7.03192969,11.2680205 7.05987305,11.2666289 C7.06588477,11.266332 7.07184082,11.2658682 7.07785254,11.2655342 C7.10755859,11.2639199 7.13722754,11.2621201 7.16682227,11.2598936 C7.1697168,11.2596709 7.17259277,11.259374 7.1754873,11.2591514 C8.10049414,11.1875488 8.96479004,10.8145996 9.65354004,10.1876182 C9.65539551,10.1859297 9.65721387,10.1841855 9.65906934,10.1824785 C9.70701008,10.1387963 9.75392296,10.0939993 9.79976953,10.048124 C9.82090106,10.0269283 9.84181331,10.005515 9.86250293,9.9838877 C9.86760547,9.9785625 9.87265234,9.9732002 9.87771777,9.96785645 C9.8960498,9.94854102 9.91415918,9.92907715 9.93208301,9.90946484 C9.93449512,9.90683008 9.93692578,9.90421387 9.93931934,9.90156055 C10.4275117,9.3644209 10.7615332,8.72077734 10.9186543,8.02490234 L16.5136719,8.02490234 C16.718293,8.02490234 16.8847656,8.191375 16.8847656,8.39599609 L16.8847656,12.9233398 Z" id="形状" fill="#00C1DE" fill-rule="nonzero"></path>
                <path d="M15.3076172,9.26806641 L12.5244141,9.26806641 C12.2682295,9.26806641 12.0605469,9.47574902 12.0605469,9.73193359 C12.0605469,9.98811816 12.2682295,10.1958008 12.5244141,10.1958008 L15.3076172,10.1958008 C15.5638018,10.1958008 15.7714844,9.98811816 15.7714844,9.73193359 C15.7714844,9.47574902 15.5638018,9.26806641 15.3076172,9.26806641 Z M15.3076172,11.1235352 L12.5244141,11.1235352 C12.2682295,11.1235352 12.0605469,11.3312178 12.0605469,11.5874023 C12.0605469,11.8435869 12.2682295,12.0512695 12.5244141,12.0512695 L15.3076172,12.0512695 C15.5638018,12.0512695 15.7714844,11.8435869 15.7714844,11.5874023 C15.7714844,11.3312178 15.5638018,11.1235352 15.3076172,11.1235352 Z" id="形状" fill="#00C1DE" fill-rule="nonzero"></path>
            </g>
        </g>
    </g>
</svg>