<?xml version="1.0" encoding="UTF-8"?>
<svg width="19px" height="19px" viewBox="0 0 19 19" version="1.1" xmlns="http://www.w3.org/2000/svg" xmlns:xlink="http://www.w3.org/1999/xlink">
    <!-- Generator: Sketch 52.6 (67491) - http://www.bohemiancoding.com/sketch -->
    <title>大列表-未选</title>
    <desc>Created with Sketch.</desc>
    <g id="Page-1" stroke="none" stroke-width="1" fill="none" fill-rule="evenodd">
        <g id="会议室预约-搜索列表（小卡片）" transform="translate(-307.000000, -126.000000)">
            <g id="大列表-未选" transform="translate(307.000000, 126.000000)">
                <rect id="矩形" fill="#000000" opacity="0" x="0" y="0" width="19" height="19"></rect>
                <path d="M8.48666667,2.82888888 L8.48666667,7.6 C8.48666667,8.31777777 7.93777779,8.86666667 7.26222223,8.86666667 L2.74444444,8.86666667 C2.06888888,8.86666667 1.52,8.31777779 1.52,7.6 L1.52,2.82888888 C1.52,2.11111112 2.06888888,1.56222221 2.74444444,1.56222223 L7.30444444,1.56222223 C7.93777777,1.56222223 8.48666667,2.15333335 8.48666667,2.82888888 Z M11.2311111,8.86666667 L15.7911111,8.86666667 C16.4666667,8.86666667 17.0155556,8.31777779 17.0155556,7.6 L17.0155556,2.82888888 C17.0155556,2.11111112 16.4666667,1.56222221 15.7911111,1.56222223 L11.2311111,1.56222223 C10.5555556,1.56222223 10.0066667,2.11111112 10.0066667,2.82888888 L10.0066667,7.6 C10.0488889,8.27555556 10.5555556,8.86666667 11.2311111,8.86666667 Z M7.26222223,10.1333333 L2.74444444,10.1333333 C2.06888888,10.1333333 1.52,10.7244444 1.52,11.4 L1.52,16.1288889 C1.52,16.8466667 2.06888888,17.3955556 2.74444444,17.3955556 L7.30444444,17.3955556 C7.98,17.3955556 8.52888888,16.8466667 8.52888888,16.1288889 L8.52888888,11.4 C8.48666665,10.7244444 7.93777777,10.1333333 7.26222223,10.1333333 Z M15.9177778,10.1333333 L11.4,10.1333333 C10.7244444,10.1333333 10.1755556,10.7244444 10.1755556,11.4 L10.1755556,16.1288889 C10.1755556,16.8466667 10.7244444,17.3955556 11.4,17.3955556 L15.96,17.3955556 C16.6355556,17.3955556 17.1844444,16.8466667 17.1844444,16.1288889 L17.1844444,11.4 C17.1422222,10.7244444 16.5933333,10.1333333 15.9177778,10.1333333 Z" id="形状" fill="#9F9E9D"></path>
            </g>
        </g>
    </g>
</svg>