<?xml version="1.0" encoding="UTF-8"?>
<svg width="18px" height="18px" viewBox="0 0 18 18" version="1.1" xmlns="http://www.w3.org/2000/svg" xmlns:xlink="http://www.w3.org/1999/xlink">
    <!-- Generator: Sketch 52.6 (67491) - http://www.bohemiancoding.com/sketch -->
    <title>日期</title>
    <desc>Created with Sketch.</desc>
    <g id="Page-1" stroke="none" stroke-width="1" fill="none" fill-rule="evenodd">
        <g id="会议室预约" transform="translate(-20.000000, -139.000000)">
            <g id="分组-7" transform="translate(20.000000, 139.000000)">
                <g id="日期">
                    <rect id="矩形" fill="#000000" opacity="0" x="0" y="0" width="18" height="18"></rect>
                    <path d="M15.75,2.25 L13.5,2.25 L13.5,1.6875 C13.5,1.35 13.275,1.125 12.9375,1.125 C12.6,1.125 12.375,1.35 12.375,1.6875 L12.375,2.25 L5.625,2.25 L5.625,1.6875 C5.625,1.35 5.4,1.125 5.0625,1.125 C4.725,1.125 4.5,1.35 4.5,1.6875 L4.5,2.25 L2.25,2.25 C1.575,2.25 1.125,2.7 1.125,3.2625 L1.125,15.8625 C1.125,16.425 1.575,16.875 2.25,16.875 L15.75,16.875 C16.425,16.875 16.875,16.425 16.875,15.8625 L16.875,3.2625 C16.875,2.7 16.425,2.25 15.75,2.25 Z M3.375,3.375 L4.5,3.375 L4.5,3.9375 C4.5,4.275 4.725,4.5 5.0625,4.5 C5.4,4.5 5.625,4.275 5.625,3.9375 L5.625,3.375 L12.375,3.375 L12.375,3.9375 C12.375,4.275 12.6,4.5 12.9375,4.5 C13.275,4.5 13.5,4.275 13.5,3.9375 L13.5,3.375 L14.625,3.375 C15.3,3.375 15.75,3.825 15.75,4.5 L15.75,5.625 L2.25,5.625 L2.25,4.5 C2.25,3.825 2.7,3.375 3.375,3.375 Z M14.625,15.75 L3.375,15.75 C2.7,15.75 2.25,15.3 2.25,14.625 L2.25,6.75 L15.75,6.75 L15.75,14.625 C15.75,15.3 15.3,15.75 14.625,15.75 Z M4.5,8.4375 L3.375,8.4375 C3.0375,8.4375 2.8125,8.6625 2.8125,9 C2.8125,9.3375 3.0375,9.5625 3.375,9.5625 L4.5,9.5625 C4.8375,9.5625 5.0625,9.3375 5.0625,9 C5.0625,8.6625 4.8375,8.4375 4.5,8.4375 Z M7.875,8.4375 L6.75,8.4375 C6.4125,8.4375 6.1875,8.6625 6.1875,9 C6.1875,9.3375 6.4125,9.5625 6.75,9.5625 L7.875,9.5625 C8.2125,9.5625 8.4375,9.3375 8.4375,9 C8.4375,8.6625 8.2125,8.4375 7.875,8.4375 Z M11.25,8.4375 L10.125,8.4375 C9.7875,8.4375 9.5625,8.6625 9.5625,9 C9.5625,9.3375 9.7875,9.5625 10.125,9.5625 L11.25,9.5625 C11.5875,9.5625 11.8125,9.3375 11.8125,9 C11.8125,8.6625 11.5875,8.4375 11.25,8.4375 Z M14.625,8.4375 L13.5,8.4375 C13.1625,8.4375 12.9375,8.6625 12.9375,9 C12.9375,9.3375 13.1625,9.5625 13.5,9.5625 L14.625,9.5625 C14.9625,9.5625 15.1875,9.3375 15.1875,9 C15.1875,8.6625 14.9625,8.4375 14.625,8.4375 Z M4.5,10.6875 L3.375,10.6875 C3.0375,10.6875 2.8125,10.9125 2.8125,11.25 C2.8125,11.5875 3.0375,11.8125 3.375,11.8125 L4.5,11.8125 C4.8375,11.8125 5.0625,11.5875 5.0625,11.25 C5.0625,10.9125 4.8375,10.6875 4.5,10.6875 Z M7.875,10.6875 L6.75,10.6875 C6.4125,10.6875 6.1875,10.9125 6.1875,11.25 C6.1875,11.5875 6.4125,11.8125 6.75,11.8125 L7.875,11.8125 C8.2125,11.8125 8.4375,11.5875 8.4375,11.25 C8.4375,10.9125 8.2125,10.6875 7.875,10.6875 Z M11.25,10.6875 L10.125,10.6875 C9.7875,10.6875 9.5625,10.9125 9.5625,11.25 C9.5625,11.5875 9.7875,11.8125 10.125,11.8125 L11.25,11.8125 C11.5875,11.8125 11.8125,11.5875 11.8125,11.25 C11.8125,10.9125 11.5875,10.6875 11.25,10.6875 Z M14.625,10.6875 L13.5,10.6875 C13.1625,10.6875 12.9375,10.9125 12.9375,11.25 C12.9375,11.5875 13.1625,11.8125 13.5,11.8125 L14.625,11.8125 C14.9625,11.8125 15.1875,11.5875 15.1875,11.25 C15.1875,10.9125 14.9625,10.6875 14.625,10.6875 Z M4.5,12.9375 L3.375,12.9375 C3.0375,12.9375 2.8125,13.1625 2.8125,13.5 C2.8125,13.8375 3.0375,14.0625 3.375,14.0625 L4.5,14.0625 C4.8375,14.0625 5.0625,13.8375 5.0625,13.5 C5.0625,13.1625 4.8375,12.9375 4.5,12.9375 Z M7.875,12.9375 L6.75,12.9375 C6.4125,12.9375 6.1875,13.1625 6.1875,13.5 C6.1875,13.8375 6.4125,14.0625 6.75,14.0625 L7.875,14.0625 C8.2125,14.0625 8.4375,13.8375 8.4375,13.5 C8.4375,13.1625 8.2125,12.9375 7.875,12.9375 Z M11.25,12.9375 L10.125,12.9375 C9.7875,12.9375 9.5625,13.1625 9.5625,13.5 C9.5625,13.8375 9.7875,14.0625 10.125,14.0625 L11.25,14.0625 C11.5875,14.0625 11.8125,13.8375 11.8125,13.5 C11.8125,13.1625 11.5875,12.9375 11.25,12.9375 Z M14.625,12.9375 L13.5,12.9375 C13.1625,12.9375 12.9375,13.1625 12.9375,13.5 C12.9375,13.8375 13.1625,14.0625 13.5,14.0625 L14.625,14.0625 C14.9625,14.0625 15.1875,13.8375 15.1875,13.5 C15.1875,13.1625 14.9625,12.9375 14.625,12.9375 Z" id="形状" fill="#00C1DE" fill-rule="nonzero"></path>
                </g>
            </g>
        </g>
    </g>
</svg>