<?xml version="1.0" encoding="UTF-8"?>
<svg width="94px" height="108px" viewBox="0 0 94 108" version="1.1" xmlns="http://www.w3.org/2000/svg" xmlns:xlink="http://www.w3.org/1999/xlink">
    <!-- Generator: Sketch 52.6 (67491) - http://www.bohemiancoding.com/sketch -->
    <title>没有代金券</title>
    <desc>Created with Sketch.</desc>
    <g id="Page-1" stroke="none" stroke-width="1" fill="none" fill-rule="evenodd">
        <g id="没有代金券" transform="translate(-146.000000, -265.000000)" stroke="#CDCDCD" stroke-width="2">
            <g transform="translate(146.000000, 265.000000)">
                <path d="M8.5,106.5 L73.5,106.5" id="直线-5" stroke-linecap="round" stroke-linejoin="round"></path>
                <path d="M81.5,106.5 L93,106.5" id="直线-5-copy" stroke-linecap="round" stroke-linejoin="round"></path>
                <path d="M77.5,106.5 L78,106.5" id="直线-5-copy-2" stroke-linecap="round" stroke-linejoin="round"></path>
                <g id="分组-28" transform="translate(43.976886, 57.000246) rotate(20.000000) translate(-43.976886, -57.000246) translate(11.976886, 17.500246)">
                    <path d="M21.044843,78 C21.5500718,72.3935 26.2619574,68 32,68 C37.7380426,68 42.4499282,72.3935 42.955157,78 L58,78 C60.7614237,78 63,75.7614237 63,73 L63,6 C63,3.23857625 60.7614237,1 58,1 L42.955157,1 C42.4499282,6.60650001 37.7380426,11 32,11 C26.2619574,11 21.5500718,6.60650001 21.044843,1 L6,1 C3.23857625,1 1,3.23857625 1,6 L1,73 C1,75.7614237 3.23857625,78 6,78 L21.044843,78 Z" id="合并形状"></path>
                    <path d="M18,25.5 L47,25.5" id="直线-6" stroke-linecap="round" stroke-linejoin="round"></path>
                    <path d="M18,38.5 L47,38.5" id="直线-6-copy" stroke-linecap="round" stroke-linejoin="round"></path>
                    <path d="M18,51.5 L47,51.5" id="直线-6-copy-2" stroke-linecap="round" stroke-linejoin="round"></path>
                </g>
                <path d="M23.7954853,9.1241504 L17.7954853,6.6241504" id="直线-7" stroke-linecap="round" stroke-linejoin="round" transform="translate(20.795485, 8.124150) rotate(20.000000) translate(-20.795485, -8.124150) "></path>
                <path d="M30.2674746,6.44044306 L28.2674746,1.44044306" id="直线-7-copy-2" stroke-linecap="round" stroke-linejoin="round" transform="translate(29.767475, 3.940443) rotate(20.000000) translate(-29.767475, -3.940443) "></path>
                <path d="M26.9826437,7.14144035 L22.9826437,3.39144035" id="直线-7-copy" stroke-linecap="round" stroke-linejoin="round" transform="translate(24.982644, 5.391440) rotate(20.000000) translate(-24.982644, -5.391440) "></path>
            </g>
        </g>
    </g>
</svg>