<?xml version="1.0" encoding="UTF-8"?>
<svg width="22px" height="22px" viewBox="0 0 22 22" version="1.1" xmlns="http://www.w3.org/2000/svg" xmlns:xlink="http://www.w3.org/1999/xlink">
    <!-- Generator: Sketch 52.6 (67491) - http://www.bohemiancoding.com/sketch -->
    <title>选中</title>
    <desc>Created with Sketch.</desc>
    <g id="Page-1" stroke="none" stroke-width="1" fill="none" fill-rule="evenodd">
        <g id="我的代金券" transform="translate(-18.000000, -177.000000)" fill="#00C1DE" fill-rule="nonzero">
            <g id="选中" transform="translate(18.000000, 177.000000)">
                <path d="M11,3.25920046e-15 C4.92520198,3.25920046e-15 0,4.92520198 0,11 C0,17.074798 4.92520198,22 11,22 C17.074798,22 22,17.074798 22,11 C22,4.92520198 17.074798,0 11,3.25920046e-15 Z M15.3948397,7.17279124 C15.3948397,7.17279124 10.5413083,15.6241856 10.4581704,15.7015898 C10.1800886,15.9624707 9.74719833,15.9481366 9.48631744,15.6700547 L6.34427938,12.7745635 C6.08339849,12.4964816 6.0977326,12.0635913 6.37581444,11.8027105 C6.65389627,11.5418296 7.08678655,11.5561637 7.34766745,11.8342455 L9.80740162,14.1019025 L14.2051082,6.48475371 C14.3943185,6.15506906 14.8157415,6.04326297 15.1454261,6.23247329 C15.4722439,6.42455043 15.58405,6.84597342 15.3948397,7.17279124 Z" id="形状"></path>
            </g>
        </g>
    </g>
</svg>