<?xml version="1.0" encoding="UTF-8"?>
<svg width="25px" height="23px" viewBox="0 0 25 23" version="1.1" xmlns="http://www.w3.org/2000/svg" xmlns:xlink="http://www.w3.org/1999/xlink">
    <!-- Generator: Sketch 52.6 (67491) - http://www.bohemiancoding.com/sketch -->
    <title>会议室预约-选中</title>
    <desc>Created with Sketch.</desc>
    <g id="Page-1" stroke="none" stroke-width="1" fill="none" fill-rule="evenodd">
        <g id="会议室预约" transform="translate(-48.000000, -631.000000)" fill="#00C1DE" fill-rule="nonzero">
            <g id="下" transform="translate(0.000000, 618.000000)">
                <g id="分组-4" transform="translate(48.000000, 13.000000)">
                    <g id="会议室预约-选中">
                        <path d="M24.324355,1.92391521 L13.3747426,1.92391521 L13.3747426,0.996102034 C13.3747426,0.458947054 12.9386961,0.0194566083 12.4057504,0.0194566083 C11.8728046,0.0194566083 11.4367581,0.458947054 11.4367581,0.996102034 L11.4367581,1.92391521 L0.487145712,1.92391521 C0.196448038,1.92391521 0.00264957872,2.1192443 0.00264957872,2.41223793 C0.00264957872,2.70523156 0.196448038,2.90056066 0.487145712,2.90056063 L1.45613795,2.90056063 L1.45613795,14.7668027 C1.45613795,15.9387772 2.42513019,16.9154226 3.58792092,16.9154226 L11.9212542,16.9154226 L11.9212542,18.2827262 L7.85148679,21.5056562 C7.65768833,21.652153 7.60923874,21.9939789 7.75458757,22.189308 C7.89993641,22.3846371 8.23908371,22.4334693 8.43288214,22.2869725 L11.9212542,19.5523653 L11.9212542,22.4823016 C11.9212542,22.7752953 12.1150527,22.9706244 12.4057504,22.9706243 C12.696448,22.9706243 12.8902465,22.7752952 12.8902465,22.4823016 L12.8902465,19.5523653 L16.3786186,22.2869725 C16.4755178,22.3358048 16.572417,22.3846371 16.6693163,22.3846371 C16.8146651,22.3846371 16.9600139,22.3358048 17.0569132,22.189308 C17.202262,21.9939789 17.202262,21.652153 16.9600139,21.5056562 L12.8902465,18.2827262 L12.8902465,16.9154226 L21.2720294,16.9154226 C22.4348201,16.9154226 23.4038124,15.9387772 23.4038124,14.7668027 L23.4038124,2.90056063 L24.3728046,2.90056063 C24.6635023,2.90056063 24.8573008,2.70523154 24.8573007,2.41223793 C24.8573007,2.11924433 24.5666031,1.92391521 24.324355,1.92391521 Z M22.3863705,14.7668027 C22.3863705,15.4016222 21.8534248,15.9387772 21.2235798,15.9387772 L3.53947129,15.9387772 C2.90962632,15.9387772 2.3766806,15.4016222 2.3766806,14.7668027 L2.3766806,2.90056063 L22.3863705,2.90056063 L22.3863705,14.7668027 Z" id="形状"></path>
                        <path d="M5.23520772,14.3273122 L7.41544028,14.3273122 C7.70613795,14.3273122 7.89993641,14.1319831 7.89993641,13.8389895 L7.89993641,7.10013602 C7.89993641,6.80714239 7.70613795,6.6118133 7.41544028,6.6118133 L5.23520772,6.6118133 C4.94451004,6.6118133 4.75071158,6.80714239 4.75071161,7.10013602 L4.75071161,13.8389895 C4.75071161,14.1319832 4.99295967,14.3273123 5.23520772,14.3273122 Z M5.71970385,7.58845872 L6.93094417,7.58845872 L6.93094417,13.3506668 L5.71970385,13.3506668 L5.71970385,7.58845872 Z M17.3960605,14.3273122 L19.576293,14.3273122 C19.8669907,14.3273122 20.0607891,14.1319831 20.0607891,13.8389895 L20.0607891,9.05342687 C20.0607891,8.76043324 19.8669907,8.56510415 19.576293,8.56510418 L17.3960605,8.56510418 C17.1053628,8.56510418 16.9115643,8.76043327 16.9115643,9.05342687 L16.9115643,13.8389895 C16.9115643,14.1319832 17.1538124,14.3273123 17.3960605,14.3273122 Z M17.8805566,9.5417496 L19.0917969,9.5417496 L19.0917969,13.3506668 L17.8805566,13.3506668 L17.8805566,9.5417496 Z M11.3398589,14.3273122 L13.5200914,14.3273122 C13.8107891,14.3273122 14.0045876,14.1319831 14.0045876,13.8389895 L14.0045876,5.00034833 C14.0045876,4.7073547 13.8107891,4.5120256 13.5200914,4.5120256 L11.3398589,4.5120256 C11.0491612,4.5120256 10.8553627,4.7073547 10.8553628,5.00034833 L10.8553628,13.8389895 C10.8553628,14.1319832 11.0491612,14.3273123 11.3398589,14.3273122 Z M11.824355,5.48867106 L13.0355953,5.48867106 L13.0355953,13.3506668 L11.824355,13.3506668 L11.824355,5.48867106 Z" id="形状"></path>
                    </g>
                </g>
            </g>
        </g>
    </g>
</svg>