<?xml version="1.0" encoding="UTF-8"?>
<svg width="16px" height="16px" viewBox="0 0 16 16" version="1.1" xmlns="http://www.w3.org/2000/svg" xmlns:xlink="http://www.w3.org/1999/xlink">
    <!-- Generator: Sketch 52.6 (67491) - http://www.bohemiancoding.com/sketch -->
    <title>会议室</title>
    <desc>Created with Sketch.</desc>
    <g id="Page-1" stroke="none" stroke-width="1" fill="none" fill-rule="evenodd">
        <g id="预约-会议室-弹窗" transform="translate(-50.000000, -272.000000)">
            <g id="分组-20" transform="translate(30.000000, 204.000000)">
                <g id="分组-4" transform="translate(20.000000, 68.000000)">
                    <g id="会议室">
                        <rect id="矩形" fill="#000000" opacity="0" x="0" y="0" width="16" height="16"></rect>
                        <path d="M13.5,2.5 L2.5,2.5 C1.95,2.5 1.5,2.9265625 1.5,3.446875 L1.5,10.5515625 C1.5,11.071875 1.95,11.4984375 2.5,11.4984375 L13.5,11.4984375 C14.05,11.4984375 14.5,11.071875 14.5,10.5515625 L14.5,3.446875 C14.5,2.9265625 14.05,2.5 13.5,2.5 Z M13.5,10.5 L2.5,10.5 L2.5,3.5 L13.5,3.5 L13.5,10.5 Z" id="形状" fill="#00C1DE" fill-rule="nonzero"></path>
                        <path d="M15,3.5 L1,3.5 C0.725,3.5 0.5,3.275 0.5,3 C0.5,2.725 0.725,2.5 1,2.5 L15,2.5 C15.275,2.5 15.5,2.725 15.5,3 C15.5,3.275 15.275,3.5 15,3.5 Z M10.75,14.25 C10.94375,14.05625 10.94375,13.7375 10.75,13.5421875 L8.4578125,11.25 C8.2640625,11.05625 7.9453125,11.05625 7.75,11.25 C7.55625,11.44375 7.55625,11.7625 7.75,11.9578125 L10.0421875,14.25 C10.2375,14.44375 10.55625,14.44375 10.75,14.25 Z" id="形状" fill="#00C1DE" fill-rule="nonzero"></path>
                        <path d="M4.75,14.25 C4.55625,14.05625 4.55625,13.7375 4.75,13.5421875 L7.0421875,11.25 C7.2359375,11.05625 7.5546875,11.05625 7.75,11.25 C7.94375,11.44375 7.94375,11.7625 7.75,11.9578125 L5.4578125,14.25 C5.2625,14.44375 4.94375,14.44375 4.75,14.25 Z M8.0078125,3.5 C7.7375,3.5 7.515625,3.278125 7.515625,3.0078125 L7.515625,1.9921875 C7.515625,1.721875 7.7375,1.5 8.0078125,1.5 C8.278125,1.5 8.5,1.721875 8.5,1.9921875 L8.5,3.0078125 C8.5,3.278125 8.278125,3.5 8.0078125,3.5 Z M7,9 C6.725,9 6.5,8.775 6.5,8.5 L6.5,5.5 C6.5,5.225 6.725,5 7,5 C7.275,5 7.5,5.225 7.5,5.5 L7.5,8.5 C7.5,8.775 7.275,9 7,9 Z M5,9 C4.725,9 4.5,8.775 4.5,8.5 L4.5,7.5 C4.5,7.225 4.725,7 5,7 C5.275,7 5.5,7.225 5.5,7.5 L5.5,8.5 C5.5,8.775 5.275,9 5,9 Z M9,9 C8.725,9 8.5,8.775 8.5,8.5 L8.5,6.5 C8.5,6.225 8.725,6 9,6 C9.275,6 9.5,6.225 9.5,6.5 L9.5,8.5 C9.5,8.775 9.275,9 9,9 Z M11,9 C10.725,9 10.5,8.775 10.5,8.5 L10.5,6 C10.5,5.725 10.725,5.5 11,5.5 C11.275,5.5 11.5,5.725 11.5,6 L11.5,8.5 C11.5,8.775 11.275,9 11,9 Z" id="形状" fill="#00C1DE" fill-rule="nonzero"></path>
                    </g>
                </g>
            </g>
        </g>
    </g>
</svg>