<?xml version="1.0" encoding="UTF-8"?>
<svg width="16px" height="16px" viewBox="0 0 16 16" version="1.1" xmlns="http://www.w3.org/2000/svg" xmlns:xlink="http://www.w3.org/1999/xlink">
    <!-- Generator: Sketch 52.6 (67491) - http://www.bohemiancoding.com/sketch -->
    <title>时间</title>
    <desc>Created with Sketch.</desc>
    <g id="Page-1" stroke="none" stroke-width="1" fill="none" fill-rule="evenodd">
        <g id="预约-会议室-弹窗" transform="translate(-50.000000, -297.000000)">
            <g id="分组-20" transform="translate(30.000000, 204.000000)">
                <g id="分组-7" transform="translate(20.000000, 93.000000)">
                    <g id="时间">
                        <rect id="矩形" fill="#000000" opacity="0" x="0" y="0" width="16" height="16"></rect>
                        <path d="M7.99375,1.003125 C4.146875,1.003125 0.99375,4.134375 0.99375,8.003125 C0.99375,11.85 4.125,15.003125 7.99375,15.003125 C11.8625,15.003125 14.99375,11.871875 14.99375,8.003125 C14.99375,4.15625 11.8625,1.003125 7.99375,1.003125 Z M7.99375,13.96875 C4.7140625,13.96875 2.028125,11.2828125 2.028125,8.003125 C2.028125,4.7234375 4.7140625,2.059375 7.99375,2.059375 C11.2734375,2.059375 13.9375,4.7234375 13.9375,8.003125 C13.9375,11.284375 11.2734375,13.96875 7.99375,13.96875 Z M11.3796875,9.059375 L8.48125,8.0890625 L8.48125,3.94375 C8.48125,3.646875 8.2265625,3.390625 7.928125,3.390625 C7.63125,3.390625 7.375,3.6453125 7.375,3.94375 L7.375,8.471875 C7.353125,8.684375 7.48125,8.875 7.69375,8.98125 L10.9109375,10.0578125 C10.9953125,10.0796875 11.059375,10.1 11.1453125,10.1 C11.209375,10.1 11.2734375,10.1 11.3578125,10.078125 C11.4859375,10.0359375 11.5921875,9.9296875 11.6546875,9.8015625 C11.71875,9.653125 11.71875,9.5046875 11.6765625,9.3765625 C11.628125,9.2296875 11.528125,9.1234375 11.3796875,9.059375 Z" id="形状" fill="#00C1DE" fill-rule="nonzero"></path>
                    </g>
                </g>
            </g>
        </g>
    </g>
</svg>