<?xml version="1.0" encoding="UTF-8"?>
<svg width="16px" height="16px" viewBox="0 0 16 16" version="1.1" xmlns="http://www.w3.org/2000/svg" xmlns:xlink="http://www.w3.org/1999/xlink">
    <!-- Generator: Sketch 52.6 (67491) - http://www.bohemiancoding.com/sketch -->
    <title>我的－代金券</title>
    <desc>Created with Sketch.</desc>
    <g id="Page-1" stroke="none" stroke-width="1" fill="none" fill-rule="evenodd">
        <g id="预约-会议室-弹窗-copy" transform="translate(-50.000000, -348.000000)">
            <g id="我的－代金券" transform="translate(50.000000, 348.000000)">
                <rect id="矩形" fill="#000000" opacity="0" x="0" y="0" width="16" height="16"></rect>
                <path d="M15.2,6.8272 L15.2,3.6 C15.2,2.72 14.5168,2 13.6832,2 L2.3152,2 C1.4816,2 0.8,2.72 0.8,3.6 L0.8,6.8272 C1.4528,6.9168 1.936,7.2544 1.936,8 C1.936,8.7456 1.4512,9.0832 0.8,9.1728 L0.8,12.4 C0.8,13.28 1.4816,14 2.3152,14 L13.6832,14 C14.5168,14 15.2,13.28 15.2,12.4 L15.2,9.1728 C14.5472,9.0832 14.0624,8.7456 14.0624,8 C14.0624,7.256 14.5472,6.9168 15.2,6.8272 Z M14.4,9.7776 L14.4,12.4 C14.4,12.8336 14.072,13.2 13.6832,13.2 L12.2,13.2 L12.2,12.4 C12.2,12.1792 12.0208,12 11.8,12 C11.5792,12 11.4,12.1792 11.4,12.4 L11.4,13.2 L4.6,13.2 L4.6,12.4 C4.6,12.1792 4.4208,12 4.2,12 C3.9792,12 3.8,12.1792 3.8,12.4 L3.8,13.2 L2.3152,13.2 C1.928,13.2 1.6,12.8336 1.6,12.4 L1.6,9.7776 C2.3232,9.4656 2.736,8.8352 2.736,8 C2.736,7.1648 2.3216,6.5344 1.6,6.2224 L1.6,3.6 C1.6,3.1664 1.928,2.8 2.3152,2.8 L3.8,2.8 L3.8,3.6 C3.8,3.8208 3.9792,4 4.2,4 C4.4208,4 4.6,3.8208 4.6,3.6 L4.6,2.8 L11.4,2.8 L11.4,3.6 C11.4,3.8208 11.5792,4 11.8,4 C12.0208,4 12.2,3.8208 12.2,3.6 L12.2,2.8 L13.6832,2.8 C14.072,2.8 14.4,3.1664 14.4,3.6 L14.4,6.2224 C13.6768,6.5344 13.2624,7.1648 13.2624,8 C13.2624,8.8352 13.6768,9.4656 14.4,9.7776 Z M10.0352,6.8496 L9.072,6.7104 L8.6416,5.8384 C8.3856,5.3152 7.616,5.3168 7.36,5.8368 L6.928,6.7104 L5.9648,6.8496 C5.6736,6.8928 5.4496,7.072 5.3664,7.328 C5.2832,7.5824 5.3616,7.8656 5.5696,8.0672 L6.2672,8.7472 L6.1024,9.7056 C6.0624,9.936 6.1168,10.1504 6.2528,10.312 C6.4608,10.56 6.8256,10.6192 7.1392,10.4592 L8,10.0064 L8.8608,10.4592 C8.9792,10.5216 9.1024,10.5536 9.2272,10.5536 C9.4288,10.5536 9.6192,10.4656 9.7472,10.3152 C9.8848,10.1536 9.9392,9.9376 9.8992,9.7072 L9.7344,8.7472 L10.4304,8.0688 C10.6384,7.8656 10.7168,7.5824 10.6336,7.328 C10.5504,7.072 10.3264,6.8928 10.0352,6.8496 Z M9.9648,7.5904 L9.224,8.3136 C9.1088,8.4272 9.0384,8.6416 9.0672,8.8 L9.2384,9.8832 C9.2368,9.8848 9.2368,9.8864 9.2272,9.8864 L8.2592,9.3888 C8.1904,9.352 8.096,9.3328 8.0016,9.3328 C7.9088,9.3328 7.8144,9.3504 7.744,9.3872 L6.8304,9.8672 C6.792,9.8864 6.768,9.8832 6.76,9.8176 L6.9344,8.8 C6.9616,8.64 6.8928,8.4256 6.776,8.3104 L6,7.5344 C6.0016,7.5312 6.0192,7.5152 6.0608,7.5088 L7.0848,7.36 C7.2464,7.336 7.4272,7.2032 7.5008,7.0576 L8,6.08 L8.4992,7.0576 C8.5712,7.2032 8.7536,7.336 8.9152,7.36 L9.9376,7.5088 C9.9808,7.5152 9.9984,7.5312 9.9648,7.5904 Z" id="形状" stroke="#00C1DE" stroke-width="0.2" fill="#00C1DE" fill-rule="nonzero"></path>
            </g>
        </g>
    </g>
</svg>