<?xml version="1.0" encoding="UTF-8"?>
<svg width="18px" height="18px" viewBox="0 0 18 18" version="1.1" xmlns="http://www.w3.org/2000/svg" xmlns:xlink="http://www.w3.org/1999/xlink">
    <!-- Generator: Sketch 52.6 (67491) - http://www.bohemiancoding.com/sketch -->
    <title>金额 copy</title>
    <desc>Created with Sketch.</desc>
    <g id="Page-1" stroke="none" stroke-width="1" fill="none" fill-rule="evenodd">
        <g id="预约-会议室-弹窗" transform="translate(-49.000000, -371.000000)">
            <g id="分组-20" transform="translate(30.000000, 204.000000)">
                <g id="分组-12" transform="translate(19.000000, 167.000000)">
                    <g id="金额-copy">
                        <rect id="矩形" fill="#000000" opacity="0" x="0" y="0" width="18" height="18"></rect>
                        <path d="M9.00949219,2.74623047 C12.1977194,2.75142612 14.8638191,5.17055993 15.1779361,8.34327961 C15.4920531,11.5159993 13.3520785,14.4109613 10.2267661,15.0412326 C7.10145366,15.671504 4.00673644,13.8322048 3.06664772,10.7857228 C2.12655901,7.73924071 3.64668976,4.47588376 6.58371094,3.23542969 C7.35115038,2.91079945 8.17621866,2.74441068 9.00949219,2.74623047 Z M9.00949219,1.69154297 C4.98533203,1.69154297 1.72265625,4.95369141 1.72265625,8.97785156 C1.72265625,13.0020117 4.98533203,16.2641602 9.00949219,16.2641602 C13.0336523,16.2641602 16.2958008,13.0020117 16.2958008,8.97785156 C16.2958008,4.95369141 13.0336523,1.69154297 9.00949219,1.69154297 Z M9,8.40234375 C8.86079794,8.40252643 8.72721251,8.34746116 8.62857422,8.24923828 L6.29068359,5.92892578 C6.15319093,5.79702033 6.09754416,5.60120544 6.14512096,5.41670685 C6.19269776,5.23220826 6.3360983,5.08772186 6.52023275,5.03875465 C6.70436719,4.98978744 6.90059628,5.0439555 7.03353516,5.18044922 L9.37142578,7.50076172 C9.52302419,7.65126445 9.56885039,7.87835749 9.48748007,8.0758721 C9.40610974,8.27338672 9.21361917,8.40230012 9,8.40234375 Z M9,8.40234375 C8.78674435,8.40229821 8.59450743,8.27381558 8.51290419,8.07679049 C8.43130095,7.8797654 8.47639622,7.65298525 8.62716797,7.50216797 L10.877168,5.25216797 C11.0840865,5.05231934 11.4129939,5.05517746 11.6164082,5.25859177 C11.8198225,5.46200607 11.8226807,5.79091348 11.622832,5.99783203 L9.37283203,8.24783203 C9.27409087,8.34693227 9.13989507,8.40254665 9,8.40234375 Z M11.6015625,9.29882812 L6.43359375,9.29882812 C6.14234984,9.29882812 5.90625,9.06272829 5.90625,8.77148438 C5.90625,8.48024046 6.14234984,8.24414062 6.43359375,8.24414062 L11.6015625,8.24414062 C11.8928064,8.24414062 12.1289062,8.48024046 12.1289062,8.77148438 C12.1289062,9.06272829 11.8928064,9.29882812 11.6015625,9.29882812 Z M11.6015625,10.96875 L6.43359375,10.96875 C6.14234984,10.96875 5.90625,10.7326502 5.90625,10.4414062 C5.90625,10.1501623 6.14234984,9.9140625 6.43359375,9.9140625 L11.6015625,9.9140625 C11.8928064,9.9140625 12.1289062,10.1501623 12.1289062,10.4414062 C12.1289062,10.7326502 11.8928064,10.96875 11.6015625,10.96875 Z M9,13.640625 C8.70875609,13.640625 8.47265625,13.4045252 8.47265625,13.1132812 L8.47265625,7.875 C8.47265625,7.58375609 8.70875609,7.34765625 9,7.34765625 C9.29124391,7.34765625 9.52734375,7.58375609 9.52734375,7.875 L9.52734375,13.1132812 C9.52734375,13.4045252 9.29124391,13.640625 9,13.640625 Z" id="形状" fill="#00C1DE" fill-rule="nonzero"></path>
                    </g>
                </g>
            </g>
        </g>
    </g>
</svg>