<?xml version="1.0" encoding="UTF-8"?>
<svg width="15px" height="15px" viewBox="0 0 15 15" version="1.1" xmlns="http://www.w3.org/2000/svg" xmlns:xlink="http://www.w3.org/1999/xlink">
    <!-- Generator: Sketch 52.6 (67491) - http://www.bohemiancoding.com/sketch -->
    <title>积分</title>
    <desc>Created with Sketch.</desc>
    <g id="Page-1" stroke="none" stroke-width="1" fill="none" fill-rule="evenodd">
        <g id="预约-会议室-弹窗" transform="translate(-51.000000, -348.000000)">
            <g id="分组-20" transform="translate(30.000000, 204.000000)">
                <g id="分组-11" transform="translate(21.000000, 144.000000)">
                    <g id="积分">
                        <rect id="矩形" fill="#000000" opacity="0" x="0" y="0" width="15" height="15"></rect>
                        <path d="M10.1414833,2.98536586 C9.43319065,2.27707318 8.49367846,1.88780489 7.49270285,1.88780487 C6.49172725,1.88780486 5.55075163,2.27707317 4.84392236,2.98536586 C4.13562968,3.69365854 3.74636139,4.63317073 3.74636139,5.63414634 C3.74636139,6.63512194 4.13562968,7.57609756 4.84392236,8.28292683 C5.55221503,8.99121951 6.49172723,9.3804878 7.49270285,9.3804878 C8.49367847,9.3804878 9.43465408,8.99121951 10.1414833,8.28292683 C10.849776,7.57463416 11.2390443,6.63512196 11.2390443,5.63414634 C11.2390443,4.63317072 10.849776,3.69219511 10.1414833,2.98536586 Z M7.49270285,8.50243903 C5.91075163,8.50243903 4.62441018,7.21609756 4.62441016,5.63414634 C4.62441015,4.05219511 5.91075163,2.76585366 7.49270285,2.76585366 C9.07465408,2.76585366 10.3609955,4.05219513 10.3609955,5.63414634 C10.3609955,7.21609755 9.07465406,8.50243901 7.49270285,8.50243903 Z" id="形状" fill="#00C1DE" fill-rule="nonzero"></path>
                        <path d="M14.8931907,11.9165854 L14.7336785,11.7117073 L12.2766053,8.56829268 C12.4258736,8.32536584 12.5575809,8.07219511 12.6702638,7.80731707 C12.9629468,7.11365854 13.112215,6.37756097 13.112215,5.6195122 C13.112215,4.86146342 12.9629468,4.12536586 12.6702638,3.43170732 C12.3878248,2.76292683 11.982459,2.16146342 11.4658736,1.64634146 C10.9492882,1.1297561 10.3492882,0.725853662 9.68050772,0.441951226 C8.98684919,0.149268296 8.25075163,0 7.49270285,0 C6.73465408,0 5.99855651,0.149268296 5.30489796,0.441951226 C4.63611747,0.724390254 4.03465406,1.1297561 3.51953212,1.64634146 C3.00294675,2.16292683 2.59904432,2.76292683 2.31514188,3.43170732 C2.02245895,4.12536586 1.87319065,4.86146342 1.87319065,5.6195122 C1.87319065,6.37756097 2.02245895,7.11365854 2.31514188,7.80731707 C2.42782481,8.07219511 2.55806871,8.32682927 2.70880042,8.56829268 L0.253190654,11.7117073 L0.093678457,11.9165854 C-0.0555898389,12.1068293 -0.0204678809,12.384878 0.169776021,12.5326829 L0.171239429,12.5341463 C0.225385767,12.5765854 0.289776021,12.6043902 0.358556514,12.6131707 L0.446361387,12.624878 L2.32538578,12.8882927 L3.03660529,14.6473171 L3.06880042,14.7278049 C3.09514188,14.7921951 3.13758091,14.8492683 3.19319065,14.8931707 C3.38343456,15.042439 3.66148333,15.0073171 3.80928822,14.8170732 L3.96880042,14.6121951 L6.65270285,11.1760976 C6.92928822,11.2170732 7.21026382,11.2390244 7.49562968,11.2390244 C7.77953212,11.2390244 8.06050772,11.2185366 8.33855651,11.1760976 L11.0195321,14.6121951 L11.1790443,14.8170732 C11.3283126,15.0073171 11.604898,15.0409756 11.7951419,14.8931707 C11.8507516,14.8507317 11.8931907,14.7936585 11.9195321,14.7278049 L11.9517272,14.6473171 L12.6629468,12.8882927 L14.5419711,12.624878 L14.629776,12.6131707 C14.6985565,12.6029268 14.7629468,12.5765854 14.8170931,12.5341463 L14.8185565,12.5326829 C15.007337,12.3834146 15.0409955,12.1068293 14.8931907,11.9165854 Z M3.63221505,13.6126829 C3.61172725,13.6390244 3.56928822,13.6331707 3.55758089,13.602439 L3.04245895,12.3278049 C3.01319065,12.2560975 2.96636139,12.1960975 2.90928822,12.1507317 C2.90782481,12.1492683 2.90489798,12.1478049 2.90343456,12.1463415 C2.90197115,12.1448781 2.89904432,12.1434146 2.89758089,12.1419512 C2.8390443,12.0980488 2.77026382,12.0673171 2.69270285,12.0556098 L1.33172725,11.8639024 C1.29806871,11.8595122 1.28197115,11.82 1.30392236,11.7936585 L3.24880042,9.30292683 C3.33514188,9.40243903 3.42587358,9.49902439 3.51953212,9.59268293 C4.03611749,10.1092683 4.63611749,10.5131707 5.30489796,10.7970732 C5.4395321,10.8541463 5.57416626,10.9053658 5.71172725,10.9507317 L3.63221505,13.6126829 Z M7.49270285,10.3609756 C6.22684919,10.3609756 5.03562968,9.86780487 4.14001992,8.97219513 C4.01123943,8.84341463 3.89123943,8.70878049 3.78001992,8.5697561 C3.63953212,8.39268293 3.51075163,8.20682927 3.3980687,8.01365854 C2.97660529,7.29512196 2.75123943,6.47414634 2.75123943,5.6195122 C2.75123943,4.35365854 3.24441016,3.16243903 4.14001992,2.26682927 C5.03562968,1.37121951 6.22684919,0.878048774 7.49270285,0.878048774 C8.75855651,0.878048774 9.94977602,1.37121951 10.8453858,2.26682927 C11.7409955,3.16243903 12.2341663,4.35365854 12.2341663,5.6195122 C12.2341663,6.47414634 12.0088004,7.29512196 11.587337,8.01365854 C11.4746541,8.20682927 11.3458736,8.39268293 11.2053858,8.5697561 C11.0941663,8.7102439 10.9741663,8.84487806 10.8453858,8.97219513 C9.94977602,9.86780487 8.75855651,10.3609756 7.49270285,10.3609756 Z M13.6536785,11.862439 L12.2927029,12.0541463 C12.2151419,12.0643902 12.1463614,12.0951219 12.0878248,12.1404878 C12.0863614,12.1419512 12.0834346,12.1434146 12.0819711,12.144878 C12.0805077,12.1463415 12.0775809,12.1478049 12.0761175,12.1492683 C12.0190443,12.1946342 11.972215,12.2546342 11.9429468,12.3263415 L11.4278248,13.6009756 C11.4146541,13.6317073 11.3736785,13.637561 11.3531907,13.6112195 L9.27367846,10.9507317 C9.41123943,10.9053658 9.54587358,10.8541463 9.68050772,10.7970732 C10.3492882,10.5146341 10.9507516,10.1092683 11.4658736,9.59268293 C11.5595321,9.49902439 11.6502638,9.40243903 11.7366053,9.30292683 L13.6814833,11.7921951 C13.7034346,11.8185366 13.687337,11.8580488 13.6536785,11.862439 Z" id="形状" fill="#00C1DE" fill-rule="nonzero"></path>
                    </g>
                </g>
            </g>
        </g>
    </g>
</svg>