<?xml version="1.0" encoding="UTF-8"?>
<svg width="18px" height="18px" viewBox="0 0 18 18" version="1.1" xmlns="http://www.w3.org/2000/svg" xmlns:xlink="http://www.w3.org/1999/xlink">
    <!-- Generator: Sketch 52.6 (67491) - http://www.bohemiancoding.com/sketch -->
    <title>话筒</title>
    <desc>Created with Sketch.</desc>
    <g id="Page-1" stroke="none" stroke-width="1" fill="none" fill-rule="evenodd">
        <g id="会议室预约-会议室详情" transform="translate(-258.000000, -196.000000)">
            <g id="话筒" transform="translate(258.000000, 196.000000)">
                <rect id="矩形" fill="#000000" opacity="0" x="0" y="0" width="18" height="18"></rect>
                <path d="M9,12.15 C10.9494141,12.15 12.54375,10.5556641 12.54375,8.60625 L12.54375,4.66875 C12.54375,2.71933594 10.9494141,1.125 9,1.125 C7.05058594,1.125 5.45625,2.71933594 5.45625,4.66875 L5.45625,8.60625 C5.45625,10.5556641 7.05058594,12.15 9,12.15 Z M6.24375,8.2125 L7.81875,8.2125 C8.03496094,8.2125 8.2125,8.03496094 8.2125,7.81875 C8.2125,7.60253906 8.03496094,7.425 7.81875,7.425 L6.24375,7.425 L6.24375,6.6375 L7.81875,6.6375 C8.03496094,6.6375 8.2125,6.45996094 8.2125,6.24375 C8.2125,6.02753906 8.03496094,5.85 7.81875,5.85 L6.24375,5.85 L6.24375,5.0625 L7.81875,5.0625 C8.03496094,5.0625 8.2125,4.88496094 8.2125,4.66875 C8.2125,4.45253906 8.03496094,4.275 7.81875,4.275 L6.27539062,4.275 C6.46699219,2.94082031 7.61484375,1.9125 9,1.9125 C10.5205078,1.9125 11.75625,3.14824219 11.75625,4.66875 L11.75625,8.60625 C11.75625,10.1267578 10.5205078,11.3625 9,11.3625 C7.47949219,11.3625 6.24375,10.1267578 6.24375,8.60625 L6.24375,8.2125 Z" id="形状" fill="#00C1DE" fill-rule="nonzero"></path>
                <path d="M15.2859375,8.63613281 C15.3017578,8.40761719 15.1242187,8.2125 14.8957031,8.2125 L14.8886719,8.2125 C14.6777344,8.2125 14.5125,8.37949219 14.4984375,8.58867187 C14.3050781,11.4539062 11.9109375,13.725 8.99824219,13.725 C6.08554688,13.725 3.69316406,11.4539063 3.49804688,8.58867188 C3.48398438,8.37949219 3.31875,8.2125 3.1078125,8.2125 L3.10078125,8.2125 C2.87226563,8.2125 2.69648438,8.409375 2.71054688,8.63613281 C2.92148438,11.7738281 5.45976563,14.2962891 8.60273437,14.4931641 L8.60273437,16.0875 L7.03125,16.0875 C6.81503906,16.0875 6.6375,16.2650391 6.6375,16.48125 C6.6375,16.6974609 6.81503906,16.875 7.03125,16.875 L10.96875,16.875 C11.1849609,16.875 11.3625,16.6974609 11.3625,16.48125 C11.3625,16.2650391 11.1849609,16.0875 10.96875,16.0875 L9.39375,16.0875 L9.39375,14.4931641 C12.5367188,14.2962891 15.075,11.7755859 15.2859375,8.63613281 Z" id="路径" fill="#00C1DE"></path>
            </g>
        </g>
    </g>
</svg>