<?xml version="1.0" encoding="UTF-8"?>
<svg width="19px" height="19px" viewBox="0 0 19 19" version="1.1" xmlns="http://www.w3.org/2000/svg" xmlns:xlink="http://www.w3.org/1999/xlink">
    <!-- Generator: Sketch 52.6 (67491) - http://www.bohemiancoding.com/sketch -->
    <title>wifi</title>
    <desc>Created with Sketch.</desc>
    <g id="Page-1" stroke="none" stroke-width="1" fill="none" fill-rule="evenodd">
        <g id="会议室预约-会议室详情" transform="translate(-187.000000, -195.000000)">
            <g id="wifi" transform="translate(187.000000, 195.000000)">
                <rect id="矩形" fill="#000000" opacity="0" x="0" y="0" width="19" height="19"></rect>
                <path d="M9.5,14.25 C9.14375,14.25 8.90625,14.4875 8.90625,14.84375 C8.90625,15.2 9.14375,15.4375 9.5,15.4375 C9.85625,15.4375 10.09375,15.2 10.09375,14.84375 C10.09375,14.4875 9.85625,14.25 9.5,14.25 Z M17.515625,8.371875 C17.3375,8.371875 17.159375,8.3125 17.040625,8.19375 C15.140625,5.996875 12.409375,4.75 9.5,4.75 C6.590625,4.75 3.859375,5.996875 1.959375,8.19375 C1.721875,8.43125 1.365625,8.490625 1.128125,8.253125 C0.890625,8.015625 0.83125,7.659375 1.06875,7.421875 C3.20625,4.928125 6.29375,3.5625 9.5,3.5625 C12.70625,3.5625 15.79375,4.928125 17.93125,7.3625 C18.16875,7.6 18.109375,7.95625 17.871875,8.19375 C17.8125,8.3125 17.634375,8.371875 17.515625,8.371875 Z M6.828125,13.0625 C6.709375,13.0625 6.53125,13.003125 6.4125,12.94375 C6.175,12.70625 6.115625,12.35 6.353125,12.1125 C7.184375,11.221875 8.3125,10.6875 9.5,10.6875 C10.6875,10.6875 11.815625,11.221875 12.5875,12.1125 C12.825,12.35 12.765625,12.70625 12.528125,12.94375 C12.290625,13.18125 11.934375,13.121875 11.696875,12.884375 C11.1625,12.23125 10.33125,11.875 9.5,11.875 C8.66875,11.875 7.8375,12.23125 7.303125,12.884375 C7.184375,13.003125 7.00625,13.0625 6.828125,13.0625 Z" id="形状" fill="#00C1DE" fill-rule="nonzero"></path>
                <path d="M4.15625,10.746875 C4.0375,10.746875 3.859375,10.6875 3.740625,10.628125 C3.503125,10.390625 3.44375,10.034375 3.68125,9.796875 C5.165625,8.134375 7.24375,7.184375 9.440625,7.184375 C11.6375,7.184375 13.775,8.134375 15.2,9.796875 C15.4375,10.034375 15.378125,10.390625 15.140625,10.628125 C14.903125,10.865625 14.546875,10.80625 14.309375,10.56875 C13.18125,9.14375 11.4,8.3125 9.5,8.3125 C7.6,8.3125 5.81875,9.14375 4.63125,10.509375 C4.5125,10.628125 4.334375,10.746875 4.15625,10.746875 Z" id="路径" fill="#00C1DE"></path>
            </g>
        </g>
    </g>
</svg>