<?xml version="1.0" encoding="UTF-8"?>
<svg width="16px" height="16px" viewBox="0 0 16 16" version="1.1" xmlns="http://www.w3.org/2000/svg" xmlns:xlink="http://www.w3.org/1999/xlink">
    <!-- Generator: Sketch 52.6 (67491) - http://www.bohemiancoding.com/sketch -->
    <title>日历</title>
    <desc>Created with Sketch.</desc>
    <g id="Page-1" stroke="none" stroke-width="1" fill="none" fill-rule="evenodd">
        <g id="会议室预约-会议室详情" transform="translate(-102.000000, -313.000000)">
            <g id="分组-2" transform="translate(16.000000, 313.000000)">
                <g id="日历" transform="translate(86.000000, 0.000000)">
                    <rect id="矩形" fill="#000000" opacity="0" x="0" y="0" width="16" height="16"></rect>
                    <path d="M14,2 L12,2 L12,1.5 C12,1.2 11.8,1 11.5,1 C11.2,1 11,1.2 11,1.5 L11,2 L5,2 L5,1.5 C5,1.2 4.8,1 4.5,1 C4.2,1 4,1.2 4,1.5 L4,2 L2,2 C1.4,2 1,2.4 1,2.9 L1,14.1 C1,14.6 1.4,15 2,15 L14,15 C14.6,15 15,14.6 15,14.1 L15,2.9 C15,2.4 14.6,2 14,2 Z M3,3 L4,3 L4,3.5 C4,3.8 4.2,4 4.5,4 C4.8,4 5,3.8 5,3.5 L5,3 L11,3 L11,3.5 C11,3.8 11.2,4 11.5,4 C11.8,4 12,3.8 12,3.5 L12,3 L13,3 C13.6,3 14,3.4 14,4 L14,5 L2,5 L2,4 C2,3.4 2.4,3 3,3 Z M13,14 L3,14 C2.4,14 2,13.6 2,13 L2,6 L14,6 L14,13 C14,13.6 13.6,14 13,14 Z M4,7.5 L3,7.5 C2.7,7.5 2.5,7.7 2.5,8 C2.5,8.3 2.7,8.5 3,8.5 L4,8.5 C4.3,8.5 4.5,8.3 4.5,8 C4.5,7.7 4.3,7.5 4,7.5 Z M7,7.5 L6,7.5 C5.7,7.5 5.5,7.7 5.5,8 C5.5,8.3 5.7,8.5 6,8.5 L7,8.5 C7.3,8.5 7.5,8.3 7.5,8 C7.5,7.7 7.3,7.5 7,7.5 Z M10,7.5 L9,7.5 C8.7,7.5 8.5,7.7 8.5,8 C8.5,8.3 8.7,8.5 9,8.5 L10,8.5 C10.3,8.5 10.5,8.3 10.5,8 C10.5,7.7 10.3,7.5 10,7.5 Z M13,7.5 L12,7.5 C11.7,7.5 11.5,7.7 11.5,8 C11.5,8.3 11.7,8.5 12,8.5 L13,8.5 C13.3,8.5 13.5,8.3 13.5,8 C13.5,7.7 13.3,7.5 13,7.5 Z M4,9.5 L3,9.5 C2.7,9.5 2.5,9.7 2.5,10 C2.5,10.3 2.7,10.5 3,10.5 L4,10.5 C4.3,10.5 4.5,10.3 4.5,10 C4.5,9.7 4.3,9.5 4,9.5 Z M7,9.5 L6,9.5 C5.7,9.5 5.5,9.7 5.5,10 C5.5,10.3 5.7,10.5 6,10.5 L7,10.5 C7.3,10.5 7.5,10.3 7.5,10 C7.5,9.7 7.3,9.5 7,9.5 Z M10,9.5 L9,9.5 C8.7,9.5 8.5,9.7 8.5,10 C8.5,10.3 8.7,10.5 9,10.5 L10,10.5 C10.3,10.5 10.5,10.3 10.5,10 C10.5,9.7 10.3,9.5 10,9.5 Z M13,9.5 L12,9.5 C11.7,9.5 11.5,9.7 11.5,10 C11.5,10.3 11.7,10.5 12,10.5 L13,10.5 C13.3,10.5 13.5,10.3 13.5,10 C13.5,9.7 13.3,9.5 13,9.5 Z M4,11.5 L3,11.5 C2.7,11.5 2.5,11.7 2.5,12 C2.5,12.3 2.7,12.5 3,12.5 L4,12.5 C4.3,12.5 4.5,12.3 4.5,12 C4.5,11.7 4.3,11.5 4,11.5 Z M7,11.5 L6,11.5 C5.7,11.5 5.5,11.7 5.5,12 C5.5,12.3 5.7,12.5 6,12.5 L7,12.5 C7.3,12.5 7.5,12.3 7.5,12 C7.5,11.7 7.3,11.5 7,11.5 Z M10,11.5 L9,11.5 C8.7,11.5 8.5,11.7 8.5,12 C8.5,12.3 8.7,12.5 9,12.5 L10,12.5 C10.3,12.5 10.5,12.3 10.5,12 C10.5,11.7 10.3,11.5 10,11.5 Z M13,11.5 L12,11.5 C11.7,11.5 11.5,11.7 11.5,12 C11.5,12.3 11.7,12.5 12,12.5 L13,12.5 C13.3,12.5 13.5,12.3 13.5,12 C13.5,11.7 13.3,11.5 13,11.5 Z" id="形状" fill="#00C1DE" fill-rule="nonzero"></path>
                </g>
            </g>
        </g>
    </g>
</svg>