<?xml version="1.0" encoding="UTF-8"?>
<svg width="14px" height="14px" viewBox="0 0 14 14" version="1.1" xmlns="http://www.w3.org/2000/svg" xmlns:xlink="http://www.w3.org/1999/xlink">
    <!-- Generator: Sketch 52.6 (67491) - http://www.bohemiancoding.com/sketch -->
    <title>规则</title>
    <desc>Created with Sketch.</desc>
    <g id="Page-1" stroke="none" stroke-width="1" fill="none" fill-rule="evenodd">
        <g id="会议室预约" transform="translate(-20.000000, -533.000000)">
            <g id="规则" transform="translate(20.000000, 533.000000)">
                <rect id="矩形" fill="#000000" opacity="0" x="0" y="0" width="14" height="14"></rect>
                <path d="M7.343875,5.67 L3.397625,5.67 C3.18569007,5.64708828 3.02837188,5.46291088 3.038875,5.25 C3.01850478,5.03054069 3.17842711,4.83551346 3.397625,4.8125 L7.343875,4.8125 C7.56307289,4.83551346 7.72299522,5.03054069 7.702625,5.25 C7.71312812,5.46291088 7.55580993,5.64708828 7.343875,5.67 Z M10.213875,7.93625 L3.397625,7.93625 C3.18923476,7.89436408 3.03931141,7.71130804 3.03931141,7.49875 C3.03931141,7.28619196 3.18923476,7.10313592 3.397625,7.06125 L10.213875,7.06125 C10.4222652,7.10313592 10.5721886,7.28619196 10.5721886,7.49875 C10.5721886,7.71130804 10.4222652,7.89436408 10.213875,7.93625 Z M10.213875,10.2025 L3.397625,10.2025 C3.18923476,10.1606141 3.03931141,9.97755804 3.03931141,9.765 C3.03931141,9.55244196 3.18923476,9.36938592 3.397625,9.3275 L10.213875,9.3275 C10.4222652,9.36938592 10.5721886,9.55244196 10.5721886,9.765 C10.5721886,9.97755804 10.4222652,10.1606141 10.213875,10.2025 Z" id="形状" fill="#333333" fill-rule="nonzero"></path>
                <path d="M2.636375,0 C1.66987669,-5.91809532e-17 0.886375,0.783501688 0.886375,1.75 L0.886375,12.25 C0.886375,13.2164983 1.66987669,14 2.636375,14 L11.386375,14 C12.3528733,14 13.136375,13.2164983 13.136375,12.25 L13.232625,3.08 L10.240125,0 L2.636375,0 Z M9.636375,0.875 L12.261375,3.5 L10.065125,3.5 C9.95141343,3.5 9.84235919,3.45482825 9.76195297,3.37442203 C9.68154675,3.29401581 9.636375,3.18496157 9.636375,3.07125 L9.636375,0.875 Z M11.386375,13.125 L2.636375,13.125 C2.15312584,13.125 1.761375,12.7332492 1.761375,12.25 L1.761375,1.75 C1.761375,1.26675084 2.15312584,0.875 2.636375,0.875 L8.761375,0.875 L8.761375,3.5 C8.761375,3.98324916 9.15312584,4.375 9.636375,4.375 L12.261375,4.375 L12.261375,12.25 C12.261375,12.7332492 11.8696242,13.125 11.386375,13.125 Z" id="形状" fill="#333333" fill-rule="nonzero"></path>
            </g>
        </g>
    </g>
</svg>