<?xml version="1.0" encoding="UTF-8"?>
<svg width="17px" height="15px" viewBox="0 0 17 15" version="1.1" xmlns="http://www.w3.org/2000/svg" xmlns:xlink="http://www.w3.org/1999/xlink">
    <!-- Generator: Sketch 52.6 (67491) - http://www.bohemiancoding.com/sketch -->
    <title>小列表-未选择</title>
    <desc>Created with Sketch.</desc>
    <g id="Page-1" stroke="none" stroke-width="1" fill="none" fill-rule="evenodd">
        <g id="会议室预约-会议室列表-" transform="translate(-338.000000, -128.000000)" fill="#9F9E9D">
            <g id="小列表-未选择" transform="translate(338.000000, 128.000000)">
                <g id="分组-11">
                    <path d="M1,0 L3,0 C3.55228475,0 4,0.44771525 4,1 L4,3 C4,3.55228475 3.55228475,4 3,4 L1,4 C0.44771525,4 0,3.55228475 0,3 L0,1 C0,0.44771525 0.44771525,0 1,0 Z" id="矩形"></path>
                    <path d="M6.2,0 L15.8,0 C16.4627417,0 17,0.44771525 17,1 L17,3 C17,3.55228475 16.4627417,4 15.8,4 L6.2,4 C5.5372583,4 5,3.55228475 5,3 L5,1 C5,0.44771525 5.5372583,0 6.2,0 Z" id="矩形-copy-5" fill-rule="nonzero"></path>
                </g>
                <g id="分组-10" transform="translate(0.000000, 5.500000)">
                    <path d="M6.2,0 L15.8,0 C16.4627417,0 17,0.44771525 17,1 L17,3 C17,3.55228475 16.4627417,4 15.8,4 L6.2,4 C5.5372583,4 5,3.55228475 5,3 L5,1 C5,0.44771525 5.5372583,0 6.2,0 Z" id="矩形-copy-6"></path>
                    <path d="M1,0 L3,0 C3.55228475,0 4,0.44771525 4,1 L4,3 C4,3.55228475 3.55228475,4 3,4 L1,4 C0.44771525,4 0,3.55228475 0,3 L0,1 C0,0.44771525 0.44771525,0 1,0 Z" id="矩形-copy-2"></path>
                </g>
                <g id="分组-9" transform="translate(0.000000, 11.000000)">
                    <path d="M6.2,0 L15.8,0 C16.4627417,0 17,0.44771525 17,1 L17,3 C17,3.55228475 16.4627417,4 15.8,4 L6.2,4 C5.5372583,4 5,3.55228475 5,3 L5,1 C5,0.44771525 5.5372583,0 6.2,0 Z" id="矩形-copy-7"></path>
                    <path d="M1,0 L3,0 C3.55228475,0 4,0.44771525 4,1 L4,3 C4,3.55228475 3.55228475,4 3,4 L1,4 C0.44771525,4 0,3.55228475 0,3 L0,1 C0,0.44771525 0.44771525,0 1,0 Z" id="矩形-copy-4"></path>
                </g>
            </g>
        </g>
    </g>
</svg>