<?xml version="1.0" encoding="UTF-8"?>
<svg width="20px" height="20px" viewBox="0 0 20 20" version="1.1" xmlns="http://www.w3.org/2000/svg" xmlns:xlink="http://www.w3.org/1999/xlink">
    <!-- Generator: Sketch 52.6 (67491) - http://www.bohemiancoding.com/sketch -->
    <title>时间</title>
    <desc>Created with Sketch.</desc>
    <g id="Page-1" stroke="none" stroke-width="1" fill="none" fill-rule="evenodd">
        <g id="会议室预约" transform="translate(-20.000000, -196.000000)">
            <g id="分组-6" transform="translate(20.000000, 196.000000)">
                <g id="时间">
                    <rect id="矩形" fill="#000000" opacity="0" x="0" y="0" width="20" height="20"></rect>
                    <path d="M18.40625,9.3125 C18.09375,5.21875 14.78125,1.90625 10.6875,1.59375 C5.5,1.1875 1.1875,5.5 1.59375,10.6875 C1.90625,14.78125 5.21875,18.09375 9.3125,18.40625 C14.5,18.8125 18.8125,14.5 18.40625,9.3125 Z M17.15625,10.75 C16.8125,14.125 14.09375,16.84375 10.75,17.15625 C6.1875,17.59375 2.40625,13.8125 2.84375,9.25 C3.1875,5.875 5.90625,3.15625 9.25,2.84375 C13.8125,2.40625 17.59375,6.1875 17.15625,10.75 Z" id="形状" fill="#00C1DE" fill-rule="nonzero"></path>
                    <path d="M10.625,9.4375 L10.625,4.71875 C10.625,4.4375 10.46875,4.1875 10.21875,4.09375 C9.78125,3.96875 9.375,4.28125 9.375,4.6875 L9.375,9.8125 C9.375,9.84375 9.375,9.84375 9.40625,9.875 C9.40625,9.90625 9.40625,9.90625 9.4375,9.9375 C9.4375,9.96875 9.46875,9.96875 9.46875,10 C9.46875,10.03125 9.46875,10.03125 9.5,10.0625 C9.53125,10.09375 9.5625,10.125 9.5625,10.15625 L12.1875,12.78125 C12.375,12.96875 12.6875,13.0625 12.9375,12.90625 C13.34375,12.6875 13.40625,12.1875 13.09375,11.90625 L10.625,9.4375 Z" id="路径" fill="#00C1DE"></path>
                </g>
            </g>
        </g>
    </g>
</svg>