<?xml version="1.0" encoding="UTF-8"?>
<svg width="21px" height="22px" viewBox="0 0 21 22" version="1.1" xmlns="http://www.w3.org/2000/svg" xmlns:xlink="http://www.w3.org/1999/xlink">
    <!-- Generator: Sketch 52.6 (67491) - http://www.bohemiancoding.com/sketch -->
    <title>预约记录-未选</title>
    <desc>Created with Sketch.</desc>
    <g id="Page-1" stroke="none" stroke-width="1" fill="none" fill-rule="evenodd">
        <g id="会议室预约" transform="translate(-243.000000, -632.000000)" fill="#B3B3B3">
            <g id="下" transform="translate(0.000000, 618.000000)">
                <g id="分组-3" transform="translate(243.000000, 14.000000)">
                    <g id="预约记录-未选">
                        <path d="M1.56916784,7.54359273 C0.706398147,7.54359273 0.00685517832,6.83286698 0.00685517832,5.95630527 C0.00685517832,5.07974353 0.706398184,4.36901781 1.56916784,4.36901781 C2.43193753,4.36901781 3.1314805,5.07974356 3.1314805,5.95630527 C3.15479861,6.83286698 2.43193753,7.54359273 1.56916784,7.54359273 M1.56916784,5.07974349 C1.10280586,5.07974349 0.706398147,5.45879722 0.706398147,5.95630523 C0.706398147,6.45381325 1.10280586,6.83286698 1.56916784,6.83286698 C2.05884793,6.83286698 2.43193753,6.43012238 2.43193753,5.95630523 C2.45525564,5.48248809 2.05884793,5.07974349 1.56916784,5.07974349" id="形状" fill-rule="nonzero"></path>
                        <path d="M16.7259326,4.17949091 C16.7259326,3.84781888 16.4694335,3.58721948 16.1429801,3.58721948 L5.43997239,3.58721944 C5.11351898,3.58721944 4.85701991,3.84781888 4.85701991,4.17949087 C4.85701991,4.51116286 5.11351902,4.7717623 5.43997239,4.7717623 L16.1429801,4.7717623 C16.4694335,4.77176234 16.7259326,4.51116293 16.7259326,4.17949091" id="路径"></path>
                        <path d="M5.43997239,8.37277274 L13.4613987,8.37277274 C13.7878521,8.37277274 14.0443511,8.11217329 14.0443511,7.78050131 C14.0443511,7.44882928 13.787852,7.18822988 13.4613987,7.18822988 L5.43997239,7.18822984 C5.11351898,7.18822984 4.85701991,7.44882928 4.85701991,7.78050127 C4.8337018,8.11217333 5.11351898,8.37277274 5.43997239,8.37277274" id="路径"></path>
                        <path d="M5.43997239,11.997474 L15.3501647,11.997474 C15.6766181,11.997474 15.9331172,11.7368746 15.9331172,11.4052026 C15.9331172,11.0735306 15.6766181,10.8129311 15.3501647,10.8129311 L5.43997239,10.8129311 C5.11351898,10.8129311 4.85701991,11.0735306 4.85701991,11.4052025 C4.8337018,11.7131837 5.11351898,11.997474 5.43997239,11.997474" id="路径"></path>
                        <path d="M18.0084281,19.7680754 L4.11084072,19.7680754 C3.03820815,19.7680754 2.15212035,18.9152045 2.15212035,17.8491159 L2.15212035,8.75182647 L2.15212035,8.49122702 C2.12880223,8.37277274 2.08216604,8.27800928 1.98889366,8.18324587 C1.75571267,7.9463373 1.38262308,7.9463373 1.12612397,8.18324587 C1.03285159,8.27800928 0.986215364,8.37277274 0.962897287,8.49122702 C0.962897287,8.51491789 0.962897287,8.49122702 0.962897287,8.51491789 L0.962897287,8.70444476 L0.962897287,17.8728067 C0.962897287,19.6022394 2.38530137,21 4.11084076,21 L18.0084281,21 C18.3348816,21 18.5913806,20.7394006 18.5913806,20.4077286 C18.5913806,20.0523657 18.3348815,19.7680754 18.0084281,19.7680754" id="路径"></path>
                        <path d="M17.8452014,0.00989991474 L4.0875226,0.00989991474 C2.36198322,0.00989991474 0.96289725,1.40766051 0.96289725,3.13709317 L0.986215364,3.30292916 C0.986215364,3.35031087 0.986215364,3.39769258 0.986215364,3.42138345 C0.986215364,3.42138345 0.986215364,3.44507432 0.986215364,3.44507432 C1.00953348,3.53983773 1.05616967,3.63460118 1.10280586,3.7293646 C1.10280586,3.75305547 1.12612397,3.75305547 1.12612397,3.77674631 C1.35930496,4.01365488 1.73239456,4.01365488 1.96557555,3.77674631 C1.98889366,3.75305543 1.98889366,3.75305543 1.98889366,3.7293646 C2.08216604,3.61091031 2.12880227,3.49245603 2.12880227,3.35031087 L2.12880223,3.32662003 L2.12880223,3.13709317 C2.12880223,2.07100456 3.01489004,1.21813368 4.0875226,1.21813368 L17.8452014,1.21813368 C18.917834,1.21813368 19.8039218,2.07100456 19.8039218,3.13709317 L19.8039218,16.4750461 L19.8039218,17.1146993 L19.8039218,17.8491159 C19.8039218,18.9152045 18.917834,19.7680754 17.8452014,19.7680754 C17.518748,19.7680754 17.2622489,20.0286748 17.2622489,20.3603468 C17.2622489,20.6920188 17.518748,20.9526183 17.8452014,20.9526183 C19.5940588,20.9763091 20.9931448,19.5785485 20.9931448,17.8491159 L20.9931448,17.1146993 L20.9931448,16.4750461 L20.9931448,3.13709317 C20.9931448,1.40766051 19.5940588,0.00989991474 17.8452014,0.00989991474" id="路径"></path>
                    </g>
                </g>
            </g>
        </g>
    </g>
</svg>