<?xml version="1.0" encoding="UTF-8"?>
<svg width="22px" height="22px" viewBox="0 0 22 22" version="1.1" xmlns="http://www.w3.org/2000/svg" xmlns:xlink="http://www.w3.org/1999/xlink">
    <!-- Generator: Sketch 52.6 (67491) - http://www.bohemiancoding.com/sketch -->
    <title>加</title>
    <desc>Created with Sketch.</desc>
    <g id="Page-1" stroke="none" stroke-width="1" fill="none" fill-rule="evenodd">
        <g id="转发" transform="translate(-337.000000, -90.000000)" fill="#000000">
            <g id="加" transform="translate(337.000000, 90.000000)">
                <rect id="矩形" opacity="0" x="0" y="0" width="22" height="22"></rect>
                <path d="M10.9881428,1.4223666 C5.71769043,1.4223666 1.42962617,5.71043086 1.42962617,10.9809047 C1.42962617,16.2514 5.71769043,20.5394428 10.9881643,20.5394428 C16.2586596,20.5394428 20.5467023,16.2514 20.5467023,10.9809047 C20.5467023,5.71043086 16.2586596,1.4223666 10.9881428,1.4223666 Z M10.9881428,19.3446 C6.37632617,19.3446 2.62444531,15.5927643 2.62444531,10.9809047 C2.62444531,6.3690666 6.37632617,2.61718574 10.9881428,2.61718574 C15.5999809,2.61718574 19.3518832,6.3690666 19.3518832,10.9809047 C19.3518811,15.5927643 15.5999809,19.3446 10.9881428,19.3446 Z M14.5726023,10.383493 L11.585596,10.383493 L11.585596,7.396444 C11.585596,7.06624634 11.3183841,6.79905591 10.9881649,6.79905591 C10.6579458,6.79905591 10.3907554,7.06626783 10.3907554,7.396444 L10.3907554,10.383494 L7.403748,10.383494 C7.07348374,10.383494 6.80631695,10.6507059 6.80631695,10.9809036 C6.80631695,11.3105083 7.07350738,11.5782917 7.403748,11.5782917 L10.390732,11.5782917 L10.390732,14.5653417 C10.390732,14.8949463 10.6579439,15.1627297 10.9881416,15.1627297 C11.3183843,15.1627297 11.5855726,14.8949463 11.5855726,14.5653417 L11.5855726,11.578292 L14.5725786,11.578292 C14.9028214,11.578292 15.1700097,11.3105086 15.1700097,10.9809039 C15.1700334,10.6506834 14.902843,10.383493 14.5726023,10.383493 Z" id="形状" fill-rule="nonzero"></path>
            </g>
        </g>
    </g>
</svg>