<?xml version="1.0" encoding="UTF-8"?>
<svg width="23px" height="23px" viewBox="0 0 23 23" version="1.1" xmlns="http://www.w3.org/2000/svg" xmlns:xlink="http://www.w3.org/1999/xlink">
    <!-- Generator: Sketch 52.6 (67491) - http://www.bohemiancoding.com/sketch -->
    <title>通知</title>
    <desc>Created with Sketch.</desc>
    <g id="Page-1" stroke="none" stroke-width="1" fill="none" fill-rule="evenodd">
        <g id="通知详情" transform="translate(-16.000000, -90.000000)">
            <g id="通知" transform="translate(-99.000000, 90.000000)">
                <rect id="矩形" fill="#000000" opacity="0" x="115" y="0" width="23" height="23"></rect>
                <path d="M127.155859,2.97158203 C126.994141,2.89746094 126.814453,2.85927734 126.63252,2.85927734 C126.320313,2.85927734 126.030566,2.97382812 125.812695,3.18271484 L121.302539,7.01679687 L117.753711,7.01679687 C117.49541,7.01679687 117.216895,7.10439453 116.999023,7.25039062 L116.90918,7.25039062 L116.71377,7.45703125 C116.545313,7.63447266 116.439746,7.92421875 116.439746,8.21621094 L116.439746,14.7456055 C116.439746,15.0825195 116.590234,15.4508789 116.819336,15.6799805 C117.048438,15.9113281 117.416797,16.0595703 117.753711,16.0595703 L121.307031,16.0595703 L125.814941,19.7791016 C126.003613,19.956543 126.338281,20.1384766 126.614551,20.1384766 C126.740332,20.1384766 126.985156,20.1384766 127.223242,19.9587891 C127.447852,19.8644531 127.623047,19.7251953 127.74209,19.5410156 C127.870117,19.3478516 127.930762,19.1120117 127.930762,18.8222656 L127.930762,4.1328125 C127.930762,3.84306641 127.867871,3.60722656 127.74209,3.4140625 C127.611816,3.21191406 127.41416,3.06367187 127.155859,2.97158203 Z M126.598828,4.26083984 L126.598828,18.7009766 L121.967383,14.8803711 L121.783203,14.7276367 L121.783203,14.7298828 L117.769434,14.7298828 L117.769434,8.34873047 L121.789941,8.34873047 L126.598828,4.26083984 Z M135.199121,6.73828125 C134.729688,6.00380859 134.154688,5.36591797 133.494336,4.84707031 L133.49209,4.84482422 C133.462891,4.82011719 133.442676,4.80439453 133.426953,4.79091797 C133.325879,4.72802734 133.211328,4.69433594 133.087793,4.69433594 C132.856445,4.69433594 132.602637,4.81337891 132.389258,5.02001953 L132.387012,5.02226562 C132.19834,5.32548828 132.299414,5.82861328 132.58916,6.0375 L132.591406,6.03974609 C132.728418,6.09589844 132.921582,6.25761719 133.058594,6.38564453 C133.269727,6.58105469 133.588672,6.91796875 133.914355,7.40986328 C134.460156,8.23642578 135.111523,9.64921875 135.111523,11.6954102 C135.111523,13.7393555 134.496094,15.1521484 133.981738,15.9764648 C133.674023,16.4706055 133.370801,16.8052734 133.170898,17.0006836 C132.977734,17.1871094 132.827246,17.3039062 132.719434,17.3488281 L132.717188,17.3510742 C132.40498,17.5711914 132.330859,17.993457 132.535254,18.4 C132.620605,18.5729492 132.921582,18.6897461 133.148438,18.6897461 C133.233789,18.6897461 133.460645,18.6897461 133.539258,18.6111328 C133.55498,18.5954102 133.572949,18.5796875 133.613379,18.5482422 C134.244531,18.0338867 134.794824,17.4027344 135.246289,16.6660156 C136.117773,15.2464844 136.560254,13.5753906 136.560254,11.6931641 C136.560254,9.81992187 136.102051,8.15332031 135.199121,6.73828125 Z" id="形状" fill="#00C1DE" fill-rule="nonzero"></path>
                <path d="M131.906348,8.46103516 C131.371777,7.84560547 130.819238,7.55810547 130.700195,7.51542969 L130.664258,7.51542969 L130.621582,7.48623047 C130.549707,7.43681641 130.455371,7.41210938 130.352051,7.41210938 C130.084766,7.41210938 129.792773,7.5828125 129.727637,7.78046875 L129.720898,7.80292969 L129.707422,7.82314453 C129.62207,7.95341797 129.61084,8.14208984 129.675977,8.33300781 C129.741113,8.52167969 129.869141,8.67216797 130.003906,8.71708984 L130.017383,8.72158203 L130.030859,8.72832031 C130.046582,8.73730469 130.417188,8.94169922 130.785547,9.39541016 C131.124707,9.8109375 131.529004,10.5251953 131.529004,11.5673828 C131.529004,13.7371094 130.307129,14.4536133 130.165625,14.5299805 C129.855664,14.7411133 129.649023,15.1566406 129.837695,15.4374023 L129.844434,15.4463867 L129.848926,15.4576172 C129.945508,15.6530273 130.273438,15.8753906 130.462109,15.8753906 C130.585645,15.8753906 130.650781,15.8731445 130.724902,15.7900391 L130.774316,15.740625 L130.828223,15.740625 C130.96748,15.6889648 131.472852,15.3902344 131.964746,14.7478516 C132.427441,14.1436523 132.977734,13.0767578 132.977734,11.4371094 C132.977734,9.99511719 132.395996,9.02255859 131.906348,8.46103516 Z" id="路径" fill="#00C1DE"></path>
            </g>
        </g>
    </g>
</svg>