<?xml version="1.0" encoding="UTF-8"?>
<svg width="20px" height="21px" viewBox="0 0 20 21" version="1.1" xmlns="http://www.w3.org/2000/svg" xmlns:xlink="http://www.w3.org/1999/xlink">
    <!-- Generator: Sketch 52.6 (67491) - http://www.bohemiancoding.com/sketch -->
    <title>通知列表-未选</title>
    <desc>Created with Sketch.</desc>
    <g id="Page-1" stroke="none" stroke-width="1" fill="none" fill-rule="evenodd">
        <g id="发送记录" transform="translate(-56.000000, -632.000000)" fill="#B3B3B3">
            <g id="底" transform="translate(0.000000, 618.000000)">
                <g id="分组-10" transform="translate(56.000000, 14.000000)">
                    <g id="通知列表-未选">
                        <path d="M15.8503906,4.20585938 L6.36699219,4.20585938 C6.075,4.20585938 5.83886719,4.44199219 5.83886719,4.73398438 C5.83886719,5.02597656 6.075,5.26210938 6.36699219,5.26210938 L15.8503906,5.26210938 C16.1423828,5.26210938 16.3785156,5.02597656 16.3785156,4.73398438 C16.3759766,4.43945313 16.1398438,4.20585938 15.8503906,4.20585938 Z" id="路径"></path>
                        <path d="M17,0 L3,0 C1.34939759,0 0,1.41686747 0,3.15 L0,17.85 C0,19.5831325 1.34939759,21 3,21 L17,21 C18.6506024,21 20,19.5831325 20,17.85 L20,3.15 C20,1.41686747 18.6506024,0 17,0 Z M19,17.8888889 C19,19.0538153 18.1036145,20 17,20 L3,20 C1.89638554,20 1,19.0538153 1,17.8888889 L1,3.11111111 C1,1.94618474 1.89638554,1 3,1 L17,1 C18.1036145,1 19,1.94618474 19,3.11111111 L19,17.8888889 Z" id="形状" fill-rule="nonzero"></path>
                        <path d="M1.62402344,4.73144531 C1.62402344,5.31339379 2.09578589,5.78515625 2.67773438,5.78515625 C3.25968286,5.78515625 3.73144531,5.31339379 3.73144531,4.73144531 C3.73144531,4.14949683 3.25968286,3.67773438 2.67773438,3.67773438 C2.09578589,3.67773438 1.62402344,4.14949683 1.62402344,4.73144531 Z" id="路径"></path>
                        <path d="M15.8503906,9.47441406 L6.36699219,9.47441406 C6.075,9.47441406 5.83886719,9.71054688 5.83886719,10.0025391 C5.83886719,10.2945313 6.075,10.5306641 6.36699219,10.5306641 L15.8503906,10.5306641 C16.1423828,10.5306641 16.3785156,10.2945313 16.3785156,10.0025391 C16.3759766,9.70800781 16.1398438,9.47441406 15.8503906,9.47441406 Z" id="路径"></path>
                        <path d="M1.62402344,10 C1.62402344,10.5819485 2.09578589,11.0537109 2.67773438,11.0537109 C3.25968286,11.0537109 3.73144531,10.5819485 3.73144531,10 C3.73144531,9.41805152 3.25968286,8.94628906 2.67773438,8.94628906 C2.09578589,8.94628906 1.62402344,9.41805152 1.62402344,10 Z" id="路径"></path>
                        <path d="M15.8503906,14.7429688 L6.36699219,14.7429688 C6.075,14.7429688 5.83886719,14.9791016 5.83886719,15.2710938 C5.83886719,15.5630859 6.075,15.7992188 6.36699219,15.7992188 L15.8503906,15.7992188 C16.1423828,15.7992188 16.3785156,15.5630859 16.3785156,15.2710938 C16.3759766,14.9765625 16.1398438,14.7429688 15.8503906,14.7429688 Z" id="路径"></path>
                        <path d="M1.62402344,15.2685547 C1.62402344,15.8505032 2.09578589,16.3222656 2.67773438,16.3222656 C3.25968286,16.3222656 3.73144531,15.8505032 3.73144531,15.2685547 C3.73144531,14.6866062 3.25968286,14.2148438 2.67773438,14.2148438 C2.09578589,14.2148438 1.62402344,14.6866062 1.62402344,15.2685547 Z" id="路径"></path>
                    </g>
                </g>
            </g>
        </g>
    </g>
</svg>