<?xml version="1.0" encoding="UTF-8"?>
<svg width="19px" height="19px" viewBox="0 0 19 19" version="1.1" xmlns="http://www.w3.org/2000/svg" xmlns:xlink="http://www.w3.org/1999/xlink">
    <!-- Generator: Sketch 52.6 (67491) - http://www.bohemiancoding.com/sketch -->
    <title>加</title>
    <desc>Created with Sketch.</desc>
    <g id="Page-1" stroke="none" stroke-width="1" fill="none" fill-rule="evenodd">
        <g id="新建通知" transform="translate(-88.000000, -498.000000)">
            <g id="分组-5" transform="translate(60.000000, 470.000000)">
                <g id="加" transform="translate(28.000000, 28.000000)">
                    <rect id="矩形" fill="#000000" opacity="0" x="0" y="0" width="19" height="19"></rect>
                    <path d="M16.9704545,8.85227273 L10.1477273,8.85227273 L10.1477273,2.02954545 C10.1477273,1.6840909 9.84545455,1.38181818 9.5,1.38181818 C9.15454545,1.38181818 8.85227273,1.6840909 8.85227273,2.02954545 L8.85227273,8.85227273 L2.02954545,8.85227273 C1.6840909,8.85227273 1.38181818,9.15454545 1.38181818,9.5 C1.38181818,9.84545455 1.6840909,10.1477273 2.02954545,10.1477273 L8.85227273,10.1477273 L8.85227273,16.9704545 C8.85227273,17.3159091 9.15454545,17.6181818 9.5,17.6181818 C9.84545455,17.6181818 10.1477273,17.3159091 10.1477273,16.9704545 L10.1477273,10.1477273 L16.9704545,10.1477273 C17.3159091,10.1477273 17.6181818,9.84545455 17.6181818,9.5 C17.6181818,9.15454545 17.3159091,8.85227273 16.9704545,8.85227273 Z" id="路径" fill="#999999"></path>
                </g>
            </g>
        </g>
    </g>
</svg>