<?xml version="1.0" encoding="UTF-8"?>
<svg width="23px" height="23px" viewBox="0 0 23 23" version="1.1" xmlns="http://www.w3.org/2000/svg" xmlns:xlink="http://www.w3.org/1999/xlink">
    <!-- Generator: Sketch 52.6 (67491) - http://www.bohemiancoding.com/sketch -->
    <title>正文</title>
    <desc>Created with Sketch.</desc>
    <g id="Page-1" stroke="none" stroke-width="1" fill="none" fill-rule="evenodd">
        <g id="通知详情" transform="translate(-16.000000, -240.000000)">
            <g id="正文" transform="translate(16.000000, 240.000000)">
                <rect id="矩形" fill="#000000" opacity="0" x="0" y="0" width="23" height="23"></rect>
                <path d="M17.4771475,2.13401367 L5.63767285,2.13401367 C4.00532422,2.13401367 2.67783789,3.43903906 2.67783789,5.04259277 L2.67783789,18.4653389 C2.67783789,20.0688252 4.00532422,21.373918 5.63767285,21.373918 L17.4771475,21.373918 C19.1089346,21.373918 20.4370498,20.0688252 20.4370498,18.4653389 L20.4370498,5.04257031 C20.4370498,3.43903906 19.1089346,2.13401367 17.4771475,2.13401367 Z M19.0705264,18.4653164 C19.0705264,19.3289395 18.3559316,20.031293 17.4771475,20.031293 L5.63767285,20.031293 C4.75900098,20.031293 4.04362012,19.3289395 4.04362012,18.4653164 L4.04362012,5.04257031 C4.04362012,4.17905957 4.75900098,3.47666113 5.63767285,3.47666113 L17.4771475,3.47666113 C18.3559316,3.47666113 19.0705264,4.17905957 19.0705264,5.04257031 L19.0705264,18.4653164 Z M6.7288252,8.00752637 L11.8327139,8.00752637 C12.2099453,8.00752637 12.5156387,7.70688672 12.5156387,7.33691016 C12.5156387,6.96551855 12.2099453,6.66562012 11.8327139,6.66562012 L6.7288252,6.66562012 C6.35166113,6.66562012 6.04596777,6.96551855 6.04596777,7.33691016 C6.04596777,7.70688672 6.35170605,8.00752637 6.7288252,8.00752637 Z M16.3859951,11.0829902 L6.7288252,11.0829902 C6.35166113,11.0829902 6.04596777,11.3836299 6.04596777,11.7543477 C6.04596777,12.1250654 6.35166113,12.4255928 6.7288252,12.4255928 L16.3859951,12.4255928 C16.7632266,12.4255928 17.0697061,12.1250654 17.0697061,11.7543477 C17.0697061,11.3836299 16.7632266,11.0829902 16.3859951,11.0829902 Z M16.3859951,15.5003604 L6.7288252,15.5003604 C6.35166113,15.5003604 6.04596777,15.8011123 6.04596777,16.1717178 C6.04596777,16.5424355 6.35166113,16.8430752 6.7288252,16.8430752 L16.3859951,16.8430752 C16.7632266,16.8430752 17.0697061,16.5424355 17.0697061,16.1717178 C17.0697061,15.8011123 16.7632266,15.5003604 16.3859951,15.5003604 Z" id="形状" fill="#00C1DE" fill-rule="nonzero"></path>
            </g>
        </g>
    </g>
</svg>