<?xml version="1.0" encoding="UTF-8"?>
<svg width="24px" height="24px" viewBox="0 0 24 24" version="1.1" xmlns="http://www.w3.org/2000/svg" xmlns:xlink="http://www.w3.org/1999/xlink">
    <!-- Generator: Sketch 52.6 (67491) - http://www.bohemiancoding.com/sketch -->
    <title>发送记录-已选</title>
    <desc>Created with Sketch.</desc>
    <g id="Page-1" stroke="none" stroke-width="1" fill="none" fill-rule="evenodd">
        <g id="发送记录" transform="translate(-244.000000, -630.000000)">
            <g id="底" transform="translate(0.000000, 618.000000)">
                <g id="分组-11" transform="translate(244.000000, 12.000000)">
                    <g id="发送记录-已选">
                        <rect id="矩形" fill="#000000" opacity="0" x="0" y="0" width="24" height="24"></rect>
                        <path d="M9.13847656,10.6332031 L14.8615234,10.6332031 C15.1763672,10.6332031 15.4328125,10.8896484 15.4328125,11.2044922 C15.4328125,11.5193359 15.1763672,11.7757812 14.8615234,11.7757812 L9.13847656,11.7757812 C8.82363281,11.7757812 8.5671875,11.5193359 8.5671875,11.2044922 C8.5671875,10.8896484 8.82363281,10.6332031 9.13847656,10.6332031 Z M9.13847656,7.20039062 L11.4261719,7.20039062 C11.7410156,7.20039062 11.9974609,7.45683594 11.9974609,7.77167969 C11.9974609,8.08652344 11.7410156,8.34296875 11.4261719,8.34296875 L9.13847656,8.34296875 C8.82363281,8.34296875 8.5671875,8.08652344 8.5671875,7.77167969 C8.5671875,7.45683594 8.82363281,7.20039062 9.13847656,7.20039062 Z M8.00097656,4.8390625 C7.36875,4.8390625 6.85585937,5.35195312 6.85585937,5.98417969 L6.85585937,12.9234375 L7.06660156,13.0173828 L12.0050781,15.2136719 L17.0705078,12.9259766 L17.1416016,5.996875 L17.1416016,5.98417969 C17.1416016,5.35195312 16.6287109,4.8390625 15.9964844,4.8390625 L8.00097656,4.8390625 Z M3.99433594,12.78125 L3.99433594,19.8017578 C3.99433594,20.4339844 4.50722656,20.946875 5.13945312,20.946875 L18.8732422,20.946875 C19.5054687,20.946875 20.0183594,20.4339844 20.0183594,19.8017578 L20.0183594,12.7964844 L12.2996094,16.396875 C12.2158203,16.4425781 12.121875,16.4679687 12.0253906,16.4679687 C11.9289062,16.4679687 11.8349609,16.4425781 11.7511719,16.396875 L3.99433594,12.78125 Z M5.71074219,10.1101562 L5.71074219,6.05527344 C5.71074219,4.79082031 6.73652344,3.76757812 7.9984375,3.76757812 L16.0117187,3.76757812 C17.2761719,3.76757812 18.2994141,4.79335937 18.2994141,6.05527344 L18.2994141,10.1025391 L20.8308594,11.2832031 C21.0542969,11.3873047 21.1787109,11.6158203 21.1583984,11.8494141 C21.1609375,11.8798828 21.1609375,11.9103516 21.1583984,11.9408203 L21.1583984,19.7865234 C21.1583984,21.0509766 20.1326172,22.0742188 18.8707031,22.0742188 L5.13945312,22.0742188 C3.875,22.0742188 2.85175781,21.0484375 2.85175781,19.7865234 L2.85175781,11.9078125 L2.86699219,11.9078125 C2.86699219,11.8875 2.86699219,11.8671875 2.86953125,11.846875 C2.85175781,11.6158203 2.97617187,11.3873047 3.19960937,11.2857422 L5.71074219,10.1101562 Z M5.71074219,12.3191406 L5.71074219,11.9052734 L4.82460937,11.9052734 L5.71074219,12.3191406 Z M18.3019531,11.3669922 L18.3019531,11.9078125 L19.2210937,11.9078125 L18.3019531,11.9078125 L18.3019531,12.3369141 L19.2210937,11.9078125 L18.3019531,11.3669922 Z M5.71074219,11.3746094 L4.69765625,11.846875 L4.82714844,11.9078125 L5.71328125,11.9078125 L5.71328125,11.3746094 L5.71074219,11.3746094 Z" id="形状" fill="#00C1DE"></path>
                    </g>
                </g>
            </g>
        </g>
    </g>
</svg>