<?xml version="1.0" encoding="UTF-8"?>
<svg width="58px" height="58px" viewBox="0 0 58 58" version="1.1" xmlns="http://www.w3.org/2000/svg" xmlns:xlink="http://www.w3.org/1999/xlink">
    <!-- Generator: Sketch 52.6 (67491) - http://www.bohemiancoding.com/sketch -->
    <title>已过期</title>
    <desc>Created with Sketch.</desc>
    <g id="Page-1" stroke="none" stroke-width="1" fill="none" fill-rule="evenodd">
        <g id="个人-我的代金券" transform="translate(-287.000000, -530.000000)">
            <g id="已过期" transform="translate(287.000000, 530.000000)">
                <rect id="矩形" fill="#000000" opacity="0" x="0" y="0" width="57.9434146" height="58"></rect>
                <path d="M0.824809457,29.8236 C1.28256243,29.8236 1.64760594,29.4524 1.64760594,29 C1.64760594,27.4108 1.79246448,25.8158 2.07638721,24.2614 C4.35356341,11.919 15.1310385,2.9638 27.7163482,2.9638 C35.451794,2.9638 42.7410756,6.3684 47.7126206,12.296 C48.0023377,12.644 48.5238284,12.6904 48.8714889,12.4004 C49.2191494,12.1104 49.2655041,11.5884 48.975787,11.2404 C43.6855533,4.9358 35.9385187,1.3166 27.7163482,1.3166 C14.3372137,1.3166 2.87600633,10.8402 0.459765945,23.9656 C0.158460189,25.6128 0.00201296903,27.3064 0.00201296903,29 C0.00201296903,29.4524 0.372850823,29.8236 0.824809457,29.8236 Z M51.571652,13.224 C51.4094104,12.8006 50.9400688,12.586 50.5112875,12.7426 L41.8719244,15.9674 C42.0225773,15.6832 41.9993999,15.3178 41.7734206,15.0568 C38.2794327,10.8866 33.1514405,8.4912 27.7105538,8.4912 C18.8625944,8.4912 11.2778015,14.79 9.67856321,23.4726 C9.47576126,24.563 9.37725746,25.6824 9.37725746,26.8018 C9.37725746,27.2542 9.74809531,27.6254 10.2000539,27.6254 C10.6578069,27.6254 11.0228504,27.2542 11.0228504,26.8018 C11.0228504,25.781 11.1155599,24.7602 11.3009788,23.7684 C12.7553585,15.8688 19.6564192,10.1326 27.7105538,10.1326 C32.6647158,10.1326 37.3291607,12.3076 40.5102541,16.1066 C40.6029636,16.2168 40.7188504,16.298 40.8463259,16.3444 L0.535092384,31.4012 C0.106311115,31.5578 -0.108079519,32.0334 0.0541620422,32.4626 C0.175843213,32.7932 0.494531993,32.9962 0.824809457,32.9962 C0.923313262,32.9962 1.01602273,32.9788 1.11452653,32.944 L51.0907217,14.2854 C51.5137086,14.123 51.7338936,13.6532 51.571652,13.224 Z M57.8932785,26.5176 C57.7368313,26.0942 57.255901,25.8796 56.832914,26.0362 L6.85671892,44.689 C6.42793765,44.8456 6.21354702,45.3212 6.37578858,45.7504 C6.3931716,45.7968 6.41634897,45.8432 6.43952633,45.8838 C6.26569609,46.1738 6.28307912,46.5566 6.52064712,46.835 C11.8050865,53.0932 19.5289437,56.6834 27.7163482,56.6834 C42.9960266,56.6834 55.4306834,44.2656 55.4306834,29 C55.4306834,28.768 55.3321796,28.5592 55.1815267,28.4084 L57.4181425,27.5732 C57.8353351,27.4166 58.0497257,26.941 57.8932785,26.5176 Z M45.4760048,32.0334 C45.0414292,40.8378 37.7289702,47.8674 28.8114787,47.8674 C24.2455377,47.8674 19.9229589,46.0114 16.7824258,42.746 L45.4760048,32.0334 Z M53.7792961,29 C53.7792961,43.355 42.086315,55.0362 27.7163482,55.0362 C20.1257609,55.0362 12.9581605,51.7534 7.99820419,46.023 L15.1194498,43.3666 C18.6018491,47.2758 23.5675997,49.5088 28.8172731,49.5088 C38.8530725,49.5088 47.0346826,41.4062 47.1505695,31.407 L53.7850904,28.9304 C53.7792961,28.9536 53.7792961,28.9768 53.7792961,29 Z M12.5757339,32.6308 L11.6370506,33.0078 L13.9142268,38.6686 C14.3777741,39.817 15.1600102,40.165 16.2725238,39.7184 L22.0668653,37.3926 C23.0692863,36.9924 23.5154506,36.337 23.3995638,35.4264 C23.335826,34.9276 23.2025562,34.2838 22.9997542,33.4892 C22.6173277,33.5298 22.2638729,33.5472 21.9335954,33.5414 C22.1653691,34.307 22.3044333,34.9392 22.350788,35.4322 C22.4029371,35.931 22.11322,36.308 21.4874311,36.5632 L16.1160766,38.7208 C15.4844934,38.976 15.0325347,38.7672 14.765995,38.1002 L13.4912399,34.9334 L20.0040797,32.3176 L20.2706194,32.9788 L21.1861254,32.6134 L19.1465172,27.5442 L10.3796785,31.0648 L10.7041617,31.871 L18.5612887,28.71 L19.6853909,31.5056 L13.1725511,34.1214 L12.5757339,32.6308 Z M24.0890904,27.1382 C23.2025562,26.5698 22.4087314,26.1058 21.7076161,25.7462 L21.2440688,26.477 C21.9509784,26.9004 22.7158315,27.3992 23.5270393,27.9734 C23.6834865,27.7066 23.8689055,27.4282 24.0890904,27.1382 Z M28.6202655,30.6008 L29.1475505,29.7424 C28.4927899,29.3306 27.5656953,28.7796 26.372061,28.0894 L25.9027193,28.8434 C26.7544875,29.348 27.6641991,29.9338 28.6202655,30.6008 Z M31.8998627,32.683 L28.9505429,33.8024 C27.8843841,34.2084 26.9572895,34.1968 26.1634647,33.7676 L24.2629207,29.0522 L22.1595747,29.899 L22.4724692,30.682 L23.7356356,30.1774 L25.2421644,33.9184 C25.0219794,34.3302 24.7380567,34.9044 24.3846018,35.6468 L25.2073983,36.3776 C25.5434701,35.3684 25.7810381,34.742 25.9201023,34.4984 C26.8356083,35.0726 27.9191501,35.119 29.1765222,34.6318 L31.9925722,33.5762 L35.1678713,32.2538 C35.162077,31.929 35.162077,31.5926 35.1678713,31.2562 L31.8998627,32.683 Z M24.946653,27.724 L29.6168922,25.8448 L31.3320173,30.102 C31.5464079,30.6066 31.4247267,30.9488 30.9727681,31.1286 C30.4744547,31.3316 29.9181979,31.5172 29.3155864,31.6912 C29.5357714,32.0334 29.7211903,32.335 29.8718432,32.6076 C30.5092208,32.3582 31.0596832,32.1436 31.5348192,31.9522 C32.4329421,31.5926 32.6994818,30.943 32.3228497,30.0034 L30.5034264,25.4852 L32.3749987,24.7312 L32.0563099,23.9366 L30.1847377,24.6906 L29.3503525,22.6142 L28.4696126,22.968 L29.3039977,25.0444 L24.6279642,26.9352 L24.946653,27.724 Z M40.3827786,29.7308 L40.7130561,28.8782 C40.1104446,28.6752 39.473067,28.4838 38.8183064,28.3156 L38.5112063,29.058 C39.1833499,29.261 39.8091388,29.4872 40.3827786,29.7308 Z M36.5411302,32.1726 C36.9293511,31.3954 37.3291607,30.4616 37.7463533,29.377 L36.8714077,29.1218 C36.5643076,30.0614 36.1876754,30.9662 35.7357168,31.8304 C36.0486112,31.9406 36.3209453,32.0566 36.5411302,32.1726 Z M40.4349277,26.5872 L39.5657765,26.9352 L37.5435513,21.9066 L38.4242912,21.5528 L38.1287798,20.8104 L37.2480399,21.1642 L36.6975775,19.7954 L35.892164,20.1202 L36.4426264,21.489 L34.1770389,22.3996 L33.6439595,21.0714 L32.838546,21.3962 L33.3716255,22.7244 L32.4792969,23.084 L32.7748083,23.8264 L33.6671369,23.4668 L35.689362,28.4954 L34.6637636,28.9072 L34.959275,29.6496 L40.7304391,27.3296 L40.4349277,26.5872 Z M34.466756,23.1478 L36.7323435,22.2372 L37.2190682,23.4436 L34.9534807,24.3542 L34.466756,23.1478 Z M35.2316091,25.0502 L37.4971966,24.1396 L37.9839213,25.346 L35.7183337,26.2566 L35.2316091,25.0502 Z M36.4889812,28.1706 L35.9964621,26.9526 L38.2620497,26.042 L38.7545687,27.26 L36.4889812,28.1706 Z M44.461995,27.8516 C44.2302214,27.9444 43.8362061,28.072 43.2857437,28.2344 C43.4711626,28.5302 43.6276098,28.7912 43.7550854,29.0174 C44.1548949,28.884 44.5604988,28.7332 44.9661027,28.5708 C45.7773105,28.246 46.0148785,27.6544 45.667218,26.796 L42.1152867,17.9742 L38.2620497,19.5228 L39.8902596,23.5712 C40.5855806,25.2996 40.9853901,26.5408 41.0896883,27.3122 C41.2229581,28.101 41.1302487,28.9536 40.8115599,29.8642 C41.1302487,29.9686 41.4315544,30.0846 41.7096828,30.2122 C42.1732301,28.8028 42.1210811,27.289 41.5648243,25.6708 L43.8941496,24.737 L44.8154498,27.0222 C44.9776914,27.4108 44.8618046,27.695 44.461995,27.8516 Z M39.3629745,19.9404 L41.6053847,19.0414 L42.4571529,21.1642 L40.2147427,22.0632 L39.3629745,19.9404 Z M41.3272563,24.9284 C41.1650147,24.4296 40.8926807,23.7104 40.5044598,22.7824 L42.7468699,21.8834 L43.6044325,24.0178 L41.3272563,24.9284 Z" id="形状" fill="#C4C4C4" fill-rule="nonzero"></path>
            </g>
        </g>
    </g>
</svg>