<?xml version="1.0" encoding="UTF-8"?>
<svg width="19px" height="19px" viewBox="0 0 19 19" version="1.1" xmlns="http://www.w3.org/2000/svg" xmlns:xlink="http://www.w3.org/1999/xlink">
    <!-- Generator: Sketch 52.6 (67491) - http://www.bohemiancoding.com/sketch -->
    <title>我的代金券</title>
    <desc>Created with Sketch.</desc>
    <g id="Page-1" stroke="none" stroke-width="1" fill="none" fill-rule="evenodd">
        <g id="我的" transform="translate(-16.000000, -369.000000)">
            <g id="我的代金券" transform="translate(16.000000, 369.000000)">
                <rect id="矩形" fill="#000000" opacity="0" x="0" y="0" width="19" height="19"></rect>
                <path d="M1.840625,16.3875 C1.06875,16.3875 0.4453125,15.7492188 0.4453125,14.9625 L0.4453125,12.0234375 C1.05390625,11.8898438 1.54375,11.578125 1.8109375,11.1476562 C1.959375,10.8953125 2.2265625,10.4203125 2.2265625,9.93046875 C2.2265625,9.4703125 1.9890625,9.0546875 1.82578125,8.77265625 C1.54375,8.32734375 1.009375,7.95625 0.4453125,7.8375 L0.4453125,4.8984375 C0.4453125,4.11171875 1.06875,3.4734375 1.840625,3.4734375 L17.159375,3.4734375 C17.93125,3.4734375 18.5546875,4.11171875 18.5546875,4.8984375 L18.5546875,7.8375 C18.0054687,7.97109375 17.5304687,8.3125 17.2335938,8.80234375 L17.1890625,8.89140625 C16.9960938,9.203125 16.7882812,9.54453125 16.7882812,9.915625 C16.7882812,10.2867187 16.9960938,10.6429688 17.1890625,10.9398438 L17.2484375,11.0289063 C17.5453125,11.51875 18.0203125,11.875 18.5695313,11.99375 L18.5695313,14.9476562 C18.5695313,15.734375 17.9460937,16.3726562 17.1742187,16.3726562 L1.840625,16.3726562 L1.840625,16.3875 Z M6.471875,15.496875 L17.69375,15.496875 L17.69375,12.8398437 L17.6789062,12.8398437 C16.5210937,12.1125 15.853125,11.04375 15.853125,9.93046875 C15.853125,8.8171875 16.5210937,7.7484375 17.6789062,7.02109375 L17.69375,7.02109375 L17.69375,4.37890625 L6.471875,4.37890625 L6.471875,5.7296875 L5.44765625,5.7296875 L5.44765625,4.37890625 L1.30625,4.37890625 L1.30625,6.8875 L1.32109375,6.8875 C2.196875,7.43671875 3.146875,8.5203125 3.146875,9.93046875 C3.146875,11.340625 2.196875,12.4242187 1.32109375,12.9734375 L1.30625,12.9734375 L1.30625,15.496875 L5.44765625,15.496875 L5.44765625,14.1460937 L6.471875,14.1460937 L6.471875,15.496875 Z" id="形状" stroke="#00C1DE" stroke-width="0.1" fill="#00C1DE" fill-rule="nonzero"></path>
                <path d="M13.3890625,10.3757812 L11.99375,10.3757812 C11.934375,10.3757812 11.8898438,10.390625 11.8304688,10.4203125 C11.7859375,10.45 11.75625,10.4203125 11.75625,10.4796875 C11.75625,10.5390625 11.75625,10.5984375 11.7710938,10.6726562 C11.7859375,10.746875 11.7859375,10.7320312 11.7859375,10.7765625 C11.7859375,10.865625 11.8601563,10.8953125 11.99375,10.865625 L13.359375,10.865625 C13.4929688,10.865625 13.5671875,10.9398437 13.5671875,11.0734375 L13.5671875,11.51875 C13.5671875,11.6671875 13.4632813,11.7414062 13.2703125,11.7414062 L12.8546875,11.7414062 C12.7507813,11.7414062 12.6320313,11.7414062 12.5132813,11.75625 C12.3945313,11.7710937 12.2757813,11.7710937 12.1867188,11.7710937 L11.99375,11.7710937 C11.875,11.7710937 11.8007813,11.8453125 11.8007813,11.99375 L11.8007813,13.0179687 C11.8007813,13.0921875 11.7414063,13.1367187 11.6375,13.1367187 L11.1476563,13.1367187 C10.9695313,13.1367187 10.8804688,13.0625 10.8804688,12.8992187 C10.8804688,12.8398437 10.8804688,12.70625 10.8953125,12.5132812 C10.9101563,12.3203125 10.8953125,12.0382812 10.8804688,11.9640625 C10.8804688,11.8898437 10.865625,11.8453125 10.865625,11.815625 C10.8507813,11.8007812 10.80625,11.7859375 10.746875,11.7859375 L9.3515625,11.7859375 C9.1734375,11.7859375 9.06953125,11.696875 9.06953125,11.4890625 C9.06953125,11.4445312 9.06953125,11.3851562 9.0546875,11.3257812 C9.03984375,11.2664062 9.03984375,11.2367187 9.0546875,11.1625 C9.06953125,11.0882812 9.09921875,11.0289062 9.1140625,10.9546875 C9.14375,10.8953125 9.203125,10.8804687 9.27734375,10.8953125 L10.7914063,10.8953125 C10.8210938,10.8953125 10.8359375,10.865625 10.8359375,10.7765625 L10.8359375,10.4796875 C10.8359375,10.4054687 10.746875,10.3757812 10.5835938,10.3757812 L9.2625,10.3757812 C9.203125,10.3757812 9.15859375,10.3757812 9.1140625,10.3609375 C9.06953125,10.3609375 9.0546875,10.3164062 9.0546875,10.2421875 L9.0546875,10.0195312 C9.0546875,9.90078125 9.0546875,9.81171875 9.03984375,9.75234375 C9.01015625,9.66328125 9.03984375,9.5890625 9.09921875,9.5296875 C9.1734375,9.4703125 9.2625,9.440625 9.38125,9.440625 C9.5,9.45546875 9.61875,9.45546875 9.75234375,9.45546875 C9.8859375,9.440625 9.90078125,9.440625 9.975,9.440625 L10.2273437,9.440625 C10.3164062,9.440625 10.3460938,9.4109375 10.3164062,9.3515625 C10.2867187,9.321875 10.271875,9.203125 10.1382812,9.025 C9.98984375,8.83203125 9.78203125,8.5203125 9.61875,8.3125 C9.440625,8.06015625 9.21796875,7.778125 8.98046875,7.49609375 C8.8765625,7.3328125 8.90625,7.19921875 9.03984375,7.0953125 C9.1140625,7.05078125 9.18828125,6.99140625 9.2625,6.93203125 C9.33671875,6.87265625 9.42578125,6.7984375 9.5296875,6.7390625 C9.66328125,6.65 9.796875,6.72421875 9.93046875,6.9765625 C9.975,7.0359375 10.0492187,7.13984375 10.1679688,7.303125 C10.2867187,7.46640625 10.4054687,7.61484375 10.5390625,7.8078125 C10.6578125,7.9859375 10.7914063,8.14921875 10.8953125,8.2828125 C11.0140625,8.43125 11.0734375,8.50546875 11.0882813,8.53515625 C11.1179688,8.59453125 11.1625,8.62421875 11.2367188,8.6390625 C11.3109375,8.65390625 11.3703125,8.62421875 11.4,8.56484375 C11.4148437,8.53515625 11.4742187,8.44609375 11.578125,8.2828125 C11.6820313,8.134375 11.8007812,7.95625 11.934375,7.76328125 C12.0679688,7.5703125 12.1867188,7.3921875 12.290625,7.2140625 C12.409375,7.05078125 12.46875,6.93203125 12.4984375,6.8875 C12.5726563,6.78359375 12.6320313,6.72421875 12.6765625,6.69453125 C12.7210938,6.66484375 12.8101563,6.6796875 12.9289063,6.709375 C13.003125,6.7390625 13.0773438,6.78359375 13.1515625,6.84296875 C13.240625,6.90234375 13.3,6.946875 13.3148438,6.9765625 C13.4632813,7.13984375 13.5078125,7.2734375 13.4484375,7.3921875 C13.41875,7.43671875 13.3445313,7.55546875 13.2109375,7.73359375 C13.0773438,7.91171875 12.94375,8.1046875 12.7953125,8.29765625 C12.646875,8.490625 12.5132813,8.80234375 12.3945313,8.98046875 C12.2757813,9.15859375 12.2015625,9.2625 12.1867188,9.2921875 C12.1421875,9.36640625 12.1570313,9.4109375 12.2460938,9.42578125 C12.3203125,9.440625 12.3945313,9.45546875 12.46875,9.45546875 L13.3296875,9.45546875 C13.4039063,9.45546875 13.4632813,9.48515625 13.5078125,9.54453125 C13.5523438,9.60390625 13.5820313,9.66328125 13.5820313,9.72265625 L13.5820313,10.2125 C13.596875,10.33125 13.5226563,10.3757812 13.3890625,10.3757812 Z M5.4328125,7.184375 L6.48671875,7.184375 L6.48671875,9.440625 L5.4328125,9.440625 L5.4328125,7.184375 Z M6.48671875,13.0921875 L5.4328125,13.0921875 L5.4328125,10.4351562 L6.48671875,10.4351562 L6.48671875,13.0921875 Z" id="形状" stroke="#00C1DE" stroke-width="0.1" fill="#00C1DE" fill-rule="nonzero"></path>
            </g>
        </g>
    </g>
</svg>