<?xml version="1.0" encoding="UTF-8"?>
<svg width="32px" height="32px" viewBox="0 0 32 32" version="1.1" xmlns="http://www.w3.org/2000/svg" xmlns:xlink="http://www.w3.org/1999/xlink">
    <!-- Generator: Sketch 52.6 (67491) - http://www.bohemiancoding.com/sketch -->
    <title>二维码</title>
    <desc>Created with Sketch.</desc>
    <g id="Page-1" stroke="none" stroke-width="1" fill="none" fill-rule="evenodd">
        <g id="我的" transform="translate(-36.000000, -199.000000)">
            <g id="二维码" transform="translate(36.000000, 199.000000)">
                <rect id="矩形" fill="#000000" opacity="0" x="0" y="0" width="32" height="32"></rect>
                <path d="M23.0523065,26.996992 L23.0523065,25.0041672 L21.0157353,25.0041672 L21.0157353,26.9984311 L23.0523065,26.996992 Z M26.0919737,26.9984311 C26.5905476,26.9984311 26.9984311,26.5905156 26.9984311,26.0919737 L26.9984311,25.0041992 L25.0465065,25.0041992 L25.0465065,26.996992 L26.0919737,26.9984311 Z M12.9784966,6.99580084 L12.9784966,12.9785286 L6.99576887,12.9785286 L6.99576887,6.99580084 L12.9784966,6.99580084 Z M14.0662711,5.00156894 L5.90799438,5.00156894 C5.40945238,5.00156894 5.00153697,5.40948437 5.00153697,5.90802634 L5.00153697,14.0662711 C5.00153697,14.564845 5.40945241,14.9727285 5.90799438,14.9727285 L14.0662391,14.9727285 C14.5647811,14.9727285 14.9726965,14.564813 14.9726965,14.0662711 L14.9726965,5.90802634 C14.9727285,5.40948437 14.5648131,5.00156894 14.0662711,5.00156894 Z M8.99003275,9.98718069 C8.99003275,10.5378726 9.43645677,10.9842966 9.9871487,10.9842966 C10.5378406,10.9842966 10.9842647,10.5378726 10.9842647,9.98718069 C10.9842647,9.43648875 10.5378406,8.99006473 9.9871487,8.99006473 C9.43645677,8.99006473 8.99003275,9.43648875 8.99003275,9.98718069 Z M25.0041992,6.99580084 L25.0041992,12.9785286 L19.0215034,12.9785286 L19.0215034,6.99580084 L25.0041992,6.99580084 Z M26.0919737,5.00156894 L17.9337289,5.00156894 C17.435155,5.00156894 17.0272715,5.40948437 17.0272715,5.90802634 L17.0272715,14.0662711 C17.0272715,14.564845 17.435187,14.9727285 17.9337289,14.9727285 L26.0919737,14.9727285 C26.5905476,14.9727285 26.9984311,14.564813 26.9984311,14.0662711 L26.9984311,5.90802634 C26.998463,5.40948437 26.5905476,5.00156894 26.0919737,5.00156894 Z M21.0157353,9.98718069 C21.0157353,10.5378726 21.4621593,10.9842966 22.0128513,10.9842966 C22.5635432,10.9842966 23.0099672,10.5378726 23.0099672,9.98718069 C23.0099672,9.43648875 22.5635432,8.99006473 22.0128513,8.99006473 C21.4621593,8.99006473 21.0157353,9.43648875 21.0157353,9.98718069 Z M12.9784966,19.0214714 L12.9784966,25.0041992 L6.99576887,25.0041992 L6.99576887,19.0214714 L12.9784966,19.0214714 Z M14.0662711,17.0272395 L5.90799438,17.0272395 C5.40945238,17.0272395 5.00153697,17.435155 5.00153697,17.9336969 L5.00153697,26.0919417 C5.00153697,26.5905156 5.40945241,26.9983991 5.90799438,26.9983991 L14.0662391,26.9983991 C14.5648131,26.9983991 14.9726965,26.5904836 14.9726965,26.0919417 L14.9726965,17.933697 C14.9727285,17.435155 14.5648131,17.0272395 14.0662711,17.0272395 Z M8.99003275,22.0128193 C8.99003275,22.5635112 9.43645677,23.0099353 9.9871487,23.0099353 C10.5378406,23.0099353 10.9842647,22.5635112 10.9842647,22.0128193 C10.9842647,21.4621274 10.5378406,21.0157034 9.9871487,21.0157034 C9.43645677,21.0157034 8.99003275,21.4621274 8.99003275,22.0128193 Z M26.0919737,17.0272395 L24.9801195,17.0272395 L24.9801195,21.0157033 L22.9858876,21.0157033 L22.9858876,17.0272395 L17.9337289,17.0272395 C17.435155,17.0272395 17.0272715,17.435155 17.0272715,17.9336969 L17.0272715,26.0919417 C17.0272715,26.5905156 17.435187,26.9983991 17.9337289,26.9983991 L19.0215034,26.9983991 L19.0215034,25.0041672 L19.0215034,23.0099352 L19.0215034,21.0157033 L21.0157353,21.0157033 L21.0157353,23.0099352 L26.998463,23.0099353 L26.998463,17.9336969 C26.998463,17.435155 26.5905476,17.0272395 26.0919737,17.0272395 Z" id="形状" fill="#333333" fill-rule="nonzero"></path>
            </g>
        </g>
    </g>
</svg>