<?xml version="1.0" encoding="UTF-8"?>
<svg width="19px" height="19px" viewBox="0 0 19 19" version="1.1" xmlns="http://www.w3.org/2000/svg" xmlns:xlink="http://www.w3.org/1999/xlink">
    <!-- Generator: Sketch 52.6 (67491) - http://www.bohemiancoding.com/sketch -->
    <title>停车场</title>
    <desc>Created with Sketch.</desc>
    <g id="Page-1" stroke="none" stroke-width="1" fill="none" fill-rule="evenodd">
        <g id="我的" transform="translate(-16.000000, -480.000000)">
            <g id="停车场" transform="translate(16.000000, 480.000000)">
                <rect id="矩形" fill="#000000" opacity="0" x="0" y="0" width="19" height="19"></rect>
                <path d="M9.5,17.8125 C4.909125,17.8125 1.1875,14.090875 1.1875,9.5 C1.1875,4.909125 4.909125,1.1875 9.5,1.1875 C14.090875,1.1875 17.8125,4.909125 17.8125,9.5 C17.8125,14.090875 14.090875,17.8125 9.5,17.8125 Z M9.5,16.625 C13.4350225,16.625 16.625,13.4350225 16.625,9.5 C16.625,5.56497754 13.4350225,2.375 9.5,2.375 C5.56497754,2.375 2.375,5.56497754 2.375,9.5 C2.375,13.4350225 5.56497754,16.625 9.5,16.625 Z M8.08984375,5.640625 L10.3256836,5.640625 C11.7961982,5.640625 12.9882812,6.83270801 12.9882812,8.30322266 C12.9882812,9.7737373 11.7961982,10.9658203 10.3256836,10.9658203 L8.08984375,10.9658203 L8.08984375,14.7138672 L6.90234375,14.7138672 L6.90234375,5.640625 L8.08984375,5.640625 Z M8.08984375,6.82816211 L8.08984375,9.7782832 L8.09912109,9.77832031 L10.3256836,9.77832031 C11.1403643,9.77832031 11.8007812,9.11790332 11.8007812,8.30322266 C11.8007812,7.48854199 11.1403643,6.828125 10.3256836,6.828125 L8.09912109,6.828125 C8.09602246,6.828125 8.09294238,6.828125 8.08984375,6.82816211 Z" id="形状" fill="#00C1DE" fill-rule="nonzero"></path>
            </g>
        </g>
    </g>
</svg>