<?xml version="1.0" encoding="UTF-8"?>
<svg width="19px" height="19px" viewBox="0 0 19 19" version="1.1" xmlns="http://www.w3.org/2000/svg" xmlns:xlink="http://www.w3.org/1999/xlink">
    <!-- Generator: Sketch 52.6 (67491) - http://www.bohemiancoding.com/sketch -->
    <title>系统推送</title>
    <desc>Created with Sketch.</desc>
    <g id="Page-1" stroke="none" stroke-width="1" fill="none" fill-rule="evenodd">
        <g id="我的" transform="translate(-16.000000, -424.000000)">
            <g id="系统推送" transform="translate(16.000000, 424.000000)">
                <rect id="矩形" fill="#000000" opacity="0" x="0" y="0" width="19" height="19"></rect>
                <path d="M15.8976269,14.7159536 L14.5293576,12.3086328 L14.5293576,7.45607378 C14.5293576,5.59687331 13.1318861,3.58473154 11.0946623,2.8474804 C10.9954166,1.86214346 10.336981,1.14357566 9.47420598,1.14357566 C8.61262714,1.14357566 7.95181816,1.86216245 7.85378762,2.8474804 C5.81770309,3.58473154 4.42025057,5.59685433 4.42025057,7.45607378 L4.42025057,12.3086327 L2.98543137,14.8338636 C2.88971725,15.0008174 2.89205268,15.2051189 2.98776679,15.3709145 C3.08349989,15.5366721 3.26097256,15.637114 3.45241975,15.637114 L6.8672545,15.637114 C7.11826431,16.8489294 8.19118888,17.7618684 9.47422498,17.7618684 C10.7584573,17.7618684 11.8313438,16.8489294 12.0811765,15.637114 L15.4960112,15.637114 C15.5053908,15.637114 15.5123591,15.637114 15.5205426,15.637114 C15.8182607,15.637114 16.0587707,15.3977813 16.0587707,15.1000631 C16.0587517,14.9494573 15.9980308,14.8128639 15.8976269,14.7159536 Z M9.474206,2.22115206 C9.66800759,2.22115206 9.82444253,2.36824533 9.92484646,2.58773652 C9.77541777,2.57254682 9.63064092,2.53753455 9.474206,2.53753455 C9.31777107,2.53753455 9.17301321,2.57254682 9.02356554,2.58773652 C9.12398844,2.36822635 9.28042336,2.22115206 9.474206,2.22115206 Z M9.474206,16.6854692 C8.79123905,16.6854692 8.22035312,16.2465059 7.99850752,15.637114 L10.9498665,15.637114 C10.7280779,16.2464869 10.1583691,16.6854692 9.474206,16.6854692 Z M4.37705486,14.5618541 L5.42544805,12.7160965 C5.47211842,12.6366733 5.49780799,12.5432757 5.49780799,12.449916 L5.49780799,7.45607378 C5.49780799,5.64240445 7.19763051,3.61395274 9.474206,3.61395274 C11.7507625,3.61395274 13.4529204,5.64240445 13.4529204,7.45607378 L13.4529204,12.449916 C13.4529204,12.5432757 13.4774518,12.6366733 13.5229639,12.7160965 L14.5725154,14.5618541 L4.37705486,14.5618541 Z" id="形状" fill="#00C1DE" fill-rule="nonzero"></path>
            </g>
        </g>
    </g>
</svg>