<?xml version="1.0" encoding="UTF-8"?>
<svg width="355px" height="167px" viewBox="0 0 355 167" version="1.1" xmlns="http://www.w3.org/2000/svg" xmlns:xlink="http://www.w3.org/1999/xlink">
    <!-- Generator: Sketch 52.6 (67491) - http://www.bohemiancoding.com/sketch -->
    <title>一卡通</title>
    <desc>Created with Sketch.</desc>
    <defs>
        <linearGradient x1="2.61546629%" y1="-18.9510192%" x2="87.8252012%" y2="104.541311%" id="linearGradient-1">
            <stop stop-color="#F1DFB6" offset="0%"></stop>
            <stop stop-color="#F9F1DE" offset="42.2126496%"></stop>
            <stop stop-color="#F8EED8" offset="48.0560145%"></stop>
            <stop stop-color="#E9CE92" offset="100%"></stop>
        </linearGradient>
        <rect id="path-2" x="10" y="8" width="335" height="147" rx="10"></rect>
        <filter x="-4.8%" y="-9.5%" width="109.6%" height="121.8%" filterUnits="objectBoundingBox" id="filter-4">
            <feOffset dx="0" dy="2" in="SourceAlpha" result="shadowOffsetOuter1"></feOffset>
            <feGaussianBlur stdDeviation="5" in="shadowOffsetOuter1" result="shadowBlurOuter1"></feGaussianBlur>
            <feColorMatrix values="0 0 0 0 0.415284864   0 0 0 0 0.345641674   0 0 0 0 0.189773582  0 0 0 0.121886322 0" type="matrix" in="shadowBlurOuter1"></feColorMatrix>
        </filter>
    </defs>
    <g id="Page-1" stroke="none" stroke-width="1" fill="none" fill-rule="evenodd">
        <g id="一卡通" transform="translate(-10.000000, -76.000000)">
            <g transform="translate(10.000000, 76.000000)">
                <mask id="mask-3" fill="white">
                    <use xlink:href="#path-2"></use>
                </mask>
                <g id="矩形">
                    <use fill="black" fill-opacity="1" filter="url(#filter-4)" xlink:href="#path-2"></use>
                    <use fill="url(#linearGradient-1)" fill-rule="evenodd" xlink:href="#path-2"></use>
                </g>
                <g id="钱袋" mask="url(#mask-3)">
                    <g transform="translate(234.000000, 39.000000)">
                        <rect id="矩形" fill="#000000" fill-rule="evenodd" opacity="0" x="0" y="0" width="134" height="134"></rect>
                        <path d="M50.070026,43.5113381 L86.6620514,43.5113381 C89.1298255,43.5113381 91.5057986,42.4668463 93.0897719,40.5729463 C96.8660378,36.0850263 100.44722,30.5755515 101.250675,25.6400034 C102.869067,15.7573991 98.6336654,10.7414791 86.3521508,10.7414791 C74.0706363,10.7414791 78.2256926,18.7990736 73.4508093,19.464801 C69.8926166,19.9583558 70.0188627,15.2638442 64.4290687,10.7529607 C60.41174,7.52763189 55.9123645,16.6411997 50.6094813,16.6985819 C44.4228235,16.7789275 35.7224388,15.0687082 35.7224388,25.639977 C35.7224388,29.9098238 39.4642858,35.6832723 43.5504783,40.4696113 C45.19186,42.3864746 47.5563252,43.5113381 50.070026,43.5113381 Z M95.7182371,52.9233247 C93.7669812,50.7080689 90.9318983,49.4684148 87.9820248,49.4684148 L48.933707,49.4684148 C46.1101057,49.4684148 43.3898135,50.6047339 41.4385314,52.6478431 C29.1684722,65.5032843 17.8511302,83.8566921 17.8511302,97.2401069 C17.8511302,109.039548 29.7079538,123.938072 44.3309964,123.938072 L89.669307,123.938072 C104.29235,123.938072 116.149173,109.16582 116.149173,97.2401069 C116.149199,83.6156556 107.047087,65.7787657 95.7182371,52.9233247 Z M83.7925497,69.1647857 L75.9415731,83.409064 C75.2528822,84.6601735 76.1596463,86.1982202 77.5829286,86.1982202 L79.8096661,86.1982202 C80.8427025,86.1982202 81.6920582,87.0361205 81.6920582,88.0806123 C81.6920582,89.1136486 80.8541579,89.9630043 79.8096661,89.9630043 L74.2083642,89.9630043 C73.1179457,89.9630043 72.2456266,90.8353496 72.2341449,91.925742 L72.2341449,92.8554695 C72.2341449,93.8885058 73.0720452,94.7378616 74.116537,94.7378616 L79.80964,94.7378616 C80.8426763,94.7378616 81.6920321,95.5757618 81.6920321,96.6202536 C81.6920321,97.6647454 80.8541318,98.5026457 79.80964,98.5026457 L74.116537,98.5026457 C73.0835007,98.5026457 72.2341449,99.340546 72.2341449,100.385038 L72.2341449,105.171377 C72.2341449,106.204413 71.3962447,107.053769 70.3517529,107.053769 L66.9427696,107.053769 C65.9097332,107.053769 65.0603775,106.215868 65.0603775,105.171377 L65.0603775,100.385038 C65.0603775,99.3520015 64.2224772,98.5026457 63.1779854,98.5026457 L57.5422646,98.5026457 C56.5092282,98.5026457 55.6598725,97.6647454 55.6598725,96.6202536 C55.6598725,95.5757618 56.4977728,94.7378616 57.5422646,94.7378616 L63.1665037,94.7378616 C64.2110216,94.7378616 65.0489219,93.8999613 65.0603775,92.8554695 L65.0718592,91.9372237 C65.0833409,90.8468053 64.199514,89.9515227 63.09764,89.9515227 L57.5422647,89.9515227 C56.5092283,89.9515227 55.6598726,89.1136224 55.6598726,88.0691307 C55.6598726,87.0360943 56.4977729,86.1867386 57.5422647,86.1867386 L59.71162,86.1867386 C61.1463839,86.1867386 62.0416664,84.6486919 61.3529755,83.3975824 L53.5019727,69.1533301 C52.8132818,67.9022206 53.7200459,66.3641478 55.1433282,66.3641478 L58.8851753,66.3641478 C59.5968033,66.3641478 60.2510753,66.7658754 60.5609757,67.3971841 L66.9542513,80.1492902 C67.6429422,81.5266458 69.6171615,81.5266458 70.317334,80.1492902 L76.7106095,67.3971841 C77.0319917,66.7659016 77.6747559,66.3641478 78.38641,66.3641478 L82.128257,66.3641478 C83.5744503,66.387085 84.4812405,67.9136761 83.7925497,69.1647857 Z" id="形状" fill-opacity="0.786599864" fill="#E1C285" fill-rule="nonzero"></path>
                    </g>
                </g>
                <g id="金币" mask="url(#mask-3)">
                    <g transform="translate(240.000000, 50.140000)"></g>
                </g>
            </g>
        </g>
    </g>
</svg>