<?xml version="1.0" encoding="UTF-8"?>
<svg width="32px" height="32px" viewBox="0 0 32 32" version="1.1" xmlns="http://www.w3.org/2000/svg" xmlns:xlink="http://www.w3.org/1999/xlink">
    <!-- Generator: Sketch 52.6 (67491) - http://www.bohemiancoding.com/sketch -->
    <title>考勤通知</title>
    <desc>Created with Sketch.</desc>
    <g id="Page-1" stroke="none" stroke-width="1" fill="none" fill-rule="evenodd">
        <g id="微信通知" transform="translate(-18.000000, -504.000000)">
            <g id="考勤通知" transform="translate(18.000000, 504.000000)">
                <circle id="椭圆形-copy-7" fill="#FF8E58" cx="16" cy="16" r="16"></circle>
                <g id="考勤-蓝-copy" transform="translate(8.888889, 8.888889)" fill="#FFFFFF" fill-rule="nonzero">
                    <g id="kaoqin">
                        <path d="M14.2103189,13.0121952 L14.2103189,2.61596992 C14.2103189,2.34535234 13.8787448,2.30024941 13.8787448,2.30024941 L11.2261519,2.30024941 L11.2261519,0.451029296 C10.3498489,-0.405926366 9.6156491,0.428477831 9.6156491,0.428477831 L9.6156491,2.32280087 L4.87887614,2.32280087 L4.87887614,0.383374902 C4.00257315,-0.451029296 3.26837334,0.383374902 3.26837334,0.383374902 L3.26837334,2.30024941 L0.307890242,2.30024941 C0,2.30024941 0,2.61596992 0,2.61596992 L0,13.0347467 C0,14.1397684 0.971038456,13.9819082 0.971038456,13.9819082 L13.2629643,13.9819082 C14.2340027,13.9819082 14.2103189,13.0121952 14.2103189,13.0121952 Z M11.4156228,8.02832147 C10.515636,9.06568885 6.91568851,12.3356512 6.91568851,12.3356512 C6.91568851,12.3356512 6.18148871,12.8768864 5.61307595,12.3356512 C5.0446632,11.7944161 3.03153469,9.94519598 3.03153469,9.94519598 C3.03153469,9.94519598 2.84206377,8.63721102 4.28677952,8.93038006 L5.92096619,10.5089826 C5.92096619,10.5089826 6.20517257,10.8472546 6.58411441,10.5089826 L10.326165,7.10371141 C10.326165,7.10371141 11.8419324,6.74288797 11.4156228,8.02832147 Z M12.8603386,4.803462 L1.32629643,4.803462 L1.32629643,3.90140341 C1.32629643,3.63078583 1.6815544,3.56313144 1.6815544,3.56313144 L12.4577129,3.56313144 C12.8366547,3.56313144 12.8603386,3.90140341 12.8603386,3.90140341 L12.8603386,4.803462 Z" id="Shape"></path>
                    </g>
                </g>
            </g>
        </g>
    </g>
</svg>