<?xml version="1.0" encoding="UTF-8"?>
<svg width="32px" height="32px" viewBox="0 0 32 32" version="1.1" xmlns="http://www.w3.org/2000/svg" xmlns:xlink="http://www.w3.org/1999/xlink">
    <!-- Generator: Sketch 52.6 (67491) - http://www.bohemiancoding.com/sketch -->
    <title>访客通知</title>
    <desc>Created with Sketch.</desc>
    <g id="Page-1" stroke="none" stroke-width="1" fill="none" fill-rule="evenodd">
        <g id="微信通知" transform="translate(-18.000000, -227.000000)">
            <g id="访客通知" transform="translate(18.000000, 227.000000)">
                <circle id="椭圆形-copy-2" fill="#5DB5F6" cx="16" cy="16" r="16"></circle>
                <g id="访客预约-蓝-copy" transform="translate(8.888889, 8.000000)">
                    <rect id="矩形" x="1.13686838e-13" y="6.82121026e-13" width="14.2222222" height="16.1851852"></rect>
                    <path d="M11.0140451,8.10126531 C10.4178779,8.50066359 9.7078686,8.73599166 8.94599575,8.7663192 L8.96254547,8.77804695 L9.00377443,8.89084082 C10.8970215,9.82848127 12.2153812,11.7440295 12.3398447,13.985286 C13.2949621,13.7138944 13.9314334,13.3106524 13.9318245,12.7765863 C13.9333161,10.7146863 12.7411306,8.93464619 11.0140451,8.10126531 Z" id="Shape" fill="#FFFFFF" fill-rule="nonzero" transform="translate(11.438911, 11.043276) rotate(4.000000) translate(-11.438911, -11.043276) "></path>
                    <path d="M11.0566481,4.84964805 C11.0556283,6.24195647 10.357785,7.4673398 9.29667573,8.22398924 C11.2747,8.2132784 12.8768187,6.62404818 12.8782542,4.66419506 C12.8796939,2.69858316 11.2710743,1.10645863 9.28497412,1.10789835 C9.10550815,1.10802845 8.93345015,1.1352805 8.76098199,1.16055152 C10.1193625,1.84973044 11.0578315,3.23396959 11.0566481,4.84964805 Z" id="Shape" fill="#FFFFFF" fill-rule="nonzero" transform="translate(10.819619, 4.665943) rotate(4.000000) translate(-10.819619, -4.665943) "></path>
                    <path d="M5.13629265,8.59853382 C5.31522511,8.62884452 5.49825525,8.6459348 5.68407333,8.65315604 C5.73986927,8.65532241 5.79209143,8.6695427 5.84841127,8.6695427 C6.0197471,8.6695427 6.18266301,8.63930606 6.34864752,8.61962354 C6.80051607,8.56600118 7.22989408,8.45096123 7.62604153,8.26713431 C7.7144693,8.22608432 7.79743349,8.1763318 7.88236233,8.12952333 C8.0757209,8.02292668 8.25839555,7.90447977 8.43145278,7.7700906 C9.41306469,7.00795322 10.0553916,5.83683426 10.0553916,4.50625545 C10.0553916,3.01721665 9.2592984,1.7205962 8.07164193,0.984714503 C7.56047851,0.668053737 6.97591218,0.467432808 6.34864754,0.392961418 C6.18264431,0.373278911 6.01974712,0.343042253 5.84841129,0.343042253 C3.524834,0.343042253 1.64129997,2.20688207 1.64129997,4.50627394 C1.64131866,6.56430969 3.15360949,8.26235718 5.13629265,8.59853382 Z M5.83736291,8.60662036 C5.81455123,8.58974356 5.79309897,8.56355534 5.77038676,8.5459996 L5.87038676,8.50662036 C5.85858308,8.5379491 5.84903401,8.57519456 5.83736291,8.60662036 Z" id="Shape" fill="#FFFFFF" fill-rule="nonzero" transform="translate(5.848346, 4.506292) rotate(4.000000) translate(-5.848346, -4.506292) "></path>
                    <path d="M8.73257943,8.99746346 C8.61134628,8.91079944 8.48606652,8.83130442 8.35840922,8.75369987 C8.19475122,8.6542714 8.03287289,8.55184189 7.85953028,8.4682154 C7.24548633,8.87960709 6.52717079,9.1390873 5.75669016,9.22215733 C5.59158048,9.23996069 5.42699306,9.25998573 5.25721883,9.2601088 C5.13936476,9.26019423 5.02614483,9.24283335 4.91048611,9.23434384 C4.82646426,9.2281275 4.7413541,9.22618937 4.65864512,9.21562059 C4.12851076,9.14788103 3.62721629,8.99277615 3.16745696,8.76235125 C1.42657705,9.82631925 0.255482171,11.7440795 0.253869528,13.9457825 C0.252994308,15.1407002 2.89924695,15.7653399 5.70864723,15.832316 C8.5574169,15.7665897 11.272079,15.131546 11.2729534,13.9377948 C11.2729859,13.8933912 11.2645224,13.8512342 11.2636193,13.807072 C11.2226983,11.8178817 10.2339219,10.070895 8.73257943,8.99746346 Z" id="Shape" fill="#FFFFFF" fill-rule="nonzero" transform="translate(5.763411, 12.150266) rotate(4.000000) translate(-5.763411, -12.150266) "></path>
                </g>
            </g>
        </g>
    </g>
</svg>