<?xml version="1.0" encoding="UTF-8"?>
<svg width="32px" height="32px" viewBox="0 0 32 32" version="1.1" xmlns="http://www.w3.org/2000/svg" xmlns:xlink="http://www.w3.org/1999/xlink">
    <!-- Generator: Sketch 52.6 (67491) - http://www.bohemiancoding.com/sketch -->
    <title>客服通知</title>
    <desc>Created with Sketch.</desc>
    <g id="Page-1" stroke="none" stroke-width="1" fill="none" fill-rule="evenodd">
        <g id="微信通知" transform="translate(-18.000000, -448.000000)">
            <g id="客服通知" transform="translate(18.000000, 448.000000)">
                <circle id="椭圆形-copy-6" fill="#5DB5F6" cx="16" cy="16" r="16"></circle>
                <g id="管家服务-蓝-copy" transform="translate(8.888889, 8.888889)" fill="#FFFFFF" fill-rule="nonzero">
                    <path d="M3.00420032,8.21534277 C1.37711879,8.21534277 -0.517223164,13.2812643 0.132754204,13.6922379 C0.132754204,13.6922379 4.84936634,14.7578782 7.04303999,14.7867909 L5.78370882,8.21740796 L3.00420032,8.21740796 L3.00420032,8.21534277 Z M11.2636167,8.21534277 L8.30450923,8.21534277 L7.04517807,14.7867909 C7.07511124,14.7867909 7.10504441,14.7888561 7.13497757,14.7888561 C9.28802762,14.7888561 14.1350628,13.6943031 14.1350629,13.6943031 C14.6054412,13.2131129 12.8906983,8.21534276 11.2636167,8.21534277 Z M7.04517807,0.00206519001 C9.13408563,0.00206519001 10.8253096,1.59639516 10.8253096,3.5603949 C10.8253096,5.52645983 9.13194753,7.11872461 7.04517807,7.11872461 C4.95627051,7.11872461 3.2650465,5.52439464 3.2650465,3.5603949 C3.26290842,1.59639516 4.95627053,0.00206519001 7.04517807,0.00206519001 Z" id="Shape"></path>
                </g>
            </g>
        </g>
    </g>
</svg>