<?xml version="1.0" encoding="UTF-8"?>
<svg width="32px" height="32px" viewBox="0 0 32 32" version="1.1" xmlns="http://www.w3.org/2000/svg" xmlns:xlink="http://www.w3.org/1999/xlink">
    <!-- Generator: Sketch 52.6 (67491) - http://www.bohemiancoding.com/sketch -->
    <title>餐厅通知</title>
    <desc>Created with Sketch.</desc>
    <g id="Page-1" stroke="none" stroke-width="1" fill="none" fill-rule="evenodd">
        <g id="微信通知" transform="translate(-18.000000, -172.000000)">
            <g id="餐厅通知" transform="translate(18.000000, 172.000000)">
                <circle id="椭圆形-copy" fill="#FF8E58" cx="16" cy="16" r="16"></circle>
                <g id="餐厅-蓝-copy" transform="translate(9.777778, 8.000000)" fill="#FFFFFF" fill-rule="nonzero">
                    <path d="M12.3291315,15.0202062 C12.3274712,15.6156701 12.1332201,15.9950515 11.4093444,15.9934021 C10.6871289,15.9917526 10.5294037,15.6107216 10.5310639,15.0152577 L10.5094805,10.0140206 C10.4829162,10.0156701 7.58907351,9.74185567 7.78166431,7.55628866 C7.78166431,7.55628866 8.61013678,0.00989690722 11.7231346,0.0148453608 C12.5167415,0.0164948454 12.3141891,1.66597938 12.3141891,1.66597938 L12.3291315,15.0202062 Z M2.91658424,4.18474227 C2.91658424,4.20474227 2.88658424,4.20474227 2.91658424,4.18474227 L2.91658424,4.20474227 L2.91658424,4.18474227 Z" id="Shape"></path>
                    <path d="M5.82089078,4.79505155 C5.82089078,3.25443299 5.14018193,1.46969072 4.73009635,0.024742268 L4.73009635,0.0148453608 L4.36649821,0.0148453608 L4.35819689,4.18474227 C4.35819689,4.40247423 4.22703591,4.58061856 3.94977158,4.58061856 C3.69077016,4.58061856 3.58617344,4.42721649 3.55960919,4.22762887 C3.55462839,4.21278351 3.55960919,4.19958763 3.55960919,4.18474227 L3.09141433,0.0148453608 L2.72781618,0.0148453608 L2.31939088,4.18804124 L2.31441008,4.22762887 C2.28784583,4.42721649 2.14672327,4.58061856 1.88274106,4.58061856 C1.60547672,4.58061856 1.46933495,4.40247423 1.46933495,4.18474227 L1.45107203,0.0148453608 L1.08747389,0.0148453608 C0.687349909,1.47793814 0.00664106192,3.25773196 0.00664106192,4.79835052 C0.00664106192,5.71546392 0.669086989,6.51381443 1.6735476,6.87505155 C2.18158884,7.05649485 2.18656964,7.2428866 2.18656964,7.2428866 C2.18656964,7.2428866 1.46103362,14.4379381 1.46103362,14.8437113 C1.46103362,15.251134 1.64200256,15.5035052 1.89270265,15.6997938 C2.14174247,15.8960825 2.53688565,15.9917526 2.91044539,15.9917526 L2.92870831,15.9917526 C3.30060778,15.9917526 3.69243043,15.8960825 3.94645105,15.6997938 C4.19549087,15.5035052 4.36815848,15.3105155 4.36815848,14.8437113 C4.36815848,14.3769072 3.6409622,7.24123711 3.6409622,7.24123711 C3.6409622,7.24123711 3.59613503,7.06309278 4.15896503,6.86350515 C5.14018193,6.51381443 5.82089078,5.71546392 5.82089078,4.79505155 Z" id="Shape"></path>
                </g>
            </g>
        </g>
    </g>
</svg>