<?xml version="1.0" encoding="UTF-8"?>
<svg width="32px" height="32px" viewBox="0 0 32 32" version="1.1" xmlns="http://www.w3.org/2000/svg" xmlns:xlink="http://www.w3.org/1999/xlink">
    <!-- Generator: Sketch 52.6 (67491) - http://www.bohemiancoding.com/sketch -->
    <title>活动通知</title>
    <desc>Created with Sketch.</desc>
    <g id="Page-1" stroke="none" stroke-width="1" fill="none" fill-rule="evenodd">
        <g id="微信通知" transform="translate(-18.000000, -283.000000)">
            <g id="活动通知" transform="translate(18.000000, 283.000000)">
                <circle id="椭圆形-copy-3" fill="#5DB5F6" cx="16" cy="16" r="16"></circle>
                <g id="园区活动-蓝-copy" transform="translate(8.888889, 8.888889)" fill="#FFFFFF" fill-rule="nonzero">
                    <path d="M3.8101831,2.82096815 L11.2906948,2.81244043 C11.3708553,2.81244043 11.4510158,2.76809631 11.4953599,2.69646351 C11.9302734,1.99377978 11.8245297,1.10689742 11.2378229,0.52019062 C10.5539002,-0.163732129 9.43506396,-0.163732129 8.74090795,0.52019062 L7.55043893,1.72771507 L6.35144219,0.528718335 C5.66751944,-0.155204414 4.54868322,-0.155204414 3.85452721,0.528718335 C3.26782042,1.11542513 3.17060446,2.01254076 3.60551793,2.70499122 C3.65156759,2.77662403 3.73002257,2.82096815 3.8101831,2.82096815 Z M13.779082,3.44349135 L1.32350138,3.44349135 C0.595234512,3.44349135 0,4.01143717 0,4.71412089 C0,5.41680461 0.586706797,5.97622272 1.32350138,5.97622272 L13.7876097,5.97622272 C14.5158766,5.97622272 15.1111111,5.4082769 15.1111111,4.70559318 C15.1111111,4.00290946 14.5158766,3.44349135 13.779082,3.44349135 Z M6.6891397,6.6055681 L1.49235014,6.6055681 L1.49235014,12.9399549 C1.49235014,13.9615751 2.32806622,14.7972912 3.34968648,14.7972912 L7.01830951,14.7972912 L7.01830951,6.6055681 L6.6891397,6.6055681 Z M13.1753198,6.6055681 L8.06721846,6.6055681 L8.06721846,14.7972912 L11.7546025,14.7972912 C12.7762227,14.7972912 13.6119388,13.9615751 13.6119388,12.9399549 L13.6119388,6.6055681 L13.1753198,6.6055681 Z" id="Shape"></path>
                </g>
            </g>
        </g>
    </g>
</svg>