<?xml version="1.0" encoding="UTF-8"?>
<svg width="32px" height="32px" viewBox="0 0 32 32" version="1.1" xmlns="http://www.w3.org/2000/svg" xmlns:xlink="http://www.w3.org/1999/xlink">
    <!-- Generator: Sketch 52.6 (67491) - http://www.bohemiancoding.com/sketch -->
    <title>系统通知</title>
    <desc>Created with Sketch.</desc>
    <g id="Page-1" stroke="none" stroke-width="1" fill="none" fill-rule="evenodd">
        <g id="微信通知" transform="translate(-18.000000, -118.000000)">
            <g id="系统通知" transform="translate(18.000000, 118.000000)">
                <circle id="椭圆形" fill="#00C1DE" cx="16" cy="16" r="16"></circle>
                <g id="通知" transform="translate(8.888889, 8.888889)">
                    <rect id="矩形" fill="#000000" opacity="0" x="0" y="0" width="14.2222222" height="14.2222222"></rect>
                    <path d="M13.2580919,10.8754276 L12.3124026,10.8754276 L12.3124026,6.14698082 C12.3124026,3.44561918 10.2252662,1.20930026 7.58395579,0.968385903 L7.58395579,0.472844681 C7.58395579,0.212780111 7.37117568,0 7.11111111,0 C6.85104654,0 6.63826643,0.212780111 6.63826643,0.472844681 L6.63826643,0.968385903 C3.99695606,1.20930026 1.90981965,3.44561917 1.90981965,6.14698082 L1.90981965,10.8754276 L0.964130292,10.8754276 C0.795179859,10.8753986 0.639050831,10.965516 0.554567255,11.1118265 C0.470083678,11.2581371 0.470083678,11.4384075 0.554567255,11.584718 C0.639050831,11.7310285 0.795179859,11.8211459 0.964130292,11.8211169 L13.2580919,11.8211169 C13.4270424,11.8211459 13.5831714,11.7310285 13.667655,11.584718 C13.7521385,11.4384075 13.7521385,11.2581371 13.667655,11.1118265 C13.5831714,10.965516 13.4270424,10.8753986 13.2580919,10.8754276 Z M7.11111111,14.2222222 C7.48929275,14.2222849 7.85200306,14.0720807 8.11941786,13.8046658 C8.38683266,13.537251 8.53703696,13.1745407 8.53697426,12.7963591 L5.68524797,12.7963591 C5.68518527,13.1745407 5.83538956,13.537251 6.10280436,13.8046658 C6.37021917,14.0720807 6.73292947,14.2222849 7.11111111,14.2222222 Z" id="形状" fill="#FFFFFF" fill-rule="nonzero"></path>
                </g>
            </g>
        </g>
    </g>
</svg>