<?xml version="1.0" encoding="UTF-8"?>
<svg width="32px" height="32px" viewBox="0 0 32 32" version="1.1" xmlns="http://www.w3.org/2000/svg" xmlns:xlink="http://www.w3.org/1999/xlink">
    <!-- Generator: Sketch 52.6 (67491) - http://www.bohemiancoding.com/sketch -->
    <title>通讯录通知</title>
    <desc>Created with Sketch.</desc>
    <g id="Page-1" stroke="none" stroke-width="1" fill="none" fill-rule="evenodd">
        <g id="微信通知" transform="translate(-18.000000, -616.000000)">
            <g id="通讯录通知" transform="translate(18.000000, 616.000000)">
                <circle id="椭圆形-copy-9" fill="#5DB5F6" cx="16" cy="16" r="16"></circle>
                <g id="通讯录-蓝-copy" transform="translate(8.888889, 8.888889)" fill="#FFFFFF" fill-rule="nonzero">
                    <path d="M10.1539232,8.3489846 L6.45235891,8.3489846 C5.50544711,8.3489846 4.75222181,9.03506402 4.75222181,9.87707056 C4.75222181,10.7190771 5.51620747,11.4051565 6.45235891,11.4051565 L10.1539232,11.4051565 C11.100835,11.4051565 11.8540603,10.7190771 11.8540603,9.87707056 C11.8648207,9.03506402 11.100835,8.3489846 10.1539232,8.3489846 Z M8.30314106,7.20551893 C9.38993756,7.20551893 10.2830476,6.25956096 10.2830476,5.10570013 C10.2830476,3.95183931 9.40069793,3.00588134 8.30314106,3.00588134 C7.20558419,3.00588134 6.32323457,3.95183931 6.32323457,5.10570013 C6.33399492,6.26995609 7.21634456,7.20551893 8.30314106,7.20551893 Z M11.9724243,0.00168515141 C13.2098658,0.00168515141 14.2105794,0.968433409 14.2105794,2.15347965 L14.2105794,12.3407193 C14.2105794,13.5257656 13.2098658,14.4925138 11.9724243,14.4925138 L3.24577123,14.4925138 C2.00832967,14.4925138 1.00761606,13.5257656 1.00761607,12.3407193 L1.00761607,11.1140925 L2.32038016,11.1140925 C2.80459641,11.1140925 3.20272978,10.7294722 3.20272978,10.2616908 C3.20272978,9.79390942 2.80459641,9.40928915 2.32038016,9.40928914 L1.00761607,9.40928914 L1.00761607,8.02673519 L2.32038016,8.02673519 C2.80459641,8.02673519 3.20272978,7.64211492 3.20272978,7.17433349 C3.20272978,6.70655208 2.80459641,6.32193181 2.32038016,6.32193181 L1.00761607,6.32193181 L1.00761607,4.949773 L2.30961979,4.949773 C2.79383605,4.949773 3.19196941,4.56515273 3.19196943,4.0973713 C3.19196944,3.62958988 2.79383606,3.24496962 2.30961979,3.24496962 L1.00761607,3.24496962 L1.00761607,2.15347965 C1.00761607,0.968433409 2.00832968,0.00168515141 3.24577123,0.00168515141 L11.9724243,0.00168515141 Z" id="Shape"></path>
                    <path d="M2.2452495,4.67949929 L0.480276611,4.67949929 C0.221987891,4.67949929 0.00674729029,4.47159644 0.00674729029,4.22211302 C0.00674729029,3.97262959 0.221987891,3.76472674 0.480276611,3.76472674 L2.2452495,3.76472674 C2.50353822,3.76472674 2.71877882,3.97262959 2.71877882,4.22211302 C2.71877882,4.47159644 2.50353822,4.67949929 2.2452495,4.67949929 M2.2452495,7.7356712 L0.480276611,7.7356712 C0.221987891,7.7356712 0.00674729029,7.52776834 0.00674729029,7.27828492 C0.00674729029,7.0288015 0.221987891,6.82089866 0.480276611,6.82089866 L2.2452495,6.82089866 C2.50353822,6.82089866 2.71877882,7.02880151 2.71877882,7.27828492 C2.71877882,7.52776834 2.50353822,7.7356712 2.2452495,7.7356712 M2.2452495,10.781448 L0.480276611,10.781448 C0.221987891,10.781448 0.00674729029,10.5735451 0.00674729029,10.3240617 C0.00674729029,10.0745783 0.221987891,9.86667541 0.480276611,9.86667541 L2.2452495,9.86667541 C2.50353822,9.86667541 2.71877882,10.0745783 2.71877882,10.3240617 C2.71877882,10.5839402 2.50353822,10.781448 2.2452495,10.781448" id="Shape"></path>
                </g>
            </g>
        </g>
    </g>
</svg>