<?xml version="1.0" encoding="UTF-8"?>
<svg width="32px" height="32px" viewBox="0 0 32 32" version="1.1" xmlns="http://www.w3.org/2000/svg" xmlns:xlink="http://www.w3.org/1999/xlink">
    <!-- Generator: Sketch 52.6 (67491) - http://www.bohemiancoding.com/sketch -->
    <title>停车场通知</title>
    <desc>Created with Sketch.</desc>
    <g id="Page-1" stroke="none" stroke-width="1" fill="none" fill-rule="evenodd">
        <g id="微信通知" transform="translate(-18.000000, -560.000000)">
            <g id="停车场通知" transform="translate(18.000000, 560.000000)">
                <circle id="椭圆形-copy-8" fill="#00C1DE" cx="16" cy="16" r="16"></circle>
                <g id="停车场-蓝-copy" transform="translate(12.444444, 8.888889)" fill="#FFFFFF" fill-rule="nonzero">
                    <path d="M2.85121621,7.21479085 L2.85121621,2.31733643 L5.12263252,2.32207657 C7.04594472,2.32829801 7.56202757,3.42267806 7.56202757,4.91019356 C7.56202757,6.32394061 7.07142298,7.21479085 4.99701878,7.21479085 M0.00268773585,0 L0.00268773585,14.220423 L2.83462572,14.220423 L2.83462572,9.67581279 C2.83462572,9.67581279 4.11831515,9.67581279 5.86505711,9.67581279 C6.88240987,9.57478853 7.58750584,9.4693204 8.47006084,9.06048324 C9.69360974,8.3393893 10.1768078,7.43194855 10.2431698,4.91345239 C10.1765116,3.20048394 10.2123589,1.78821818 8.00256443,0.451202169 C7.39227128,0.151388257 6.6397739,0.000592509178 5.7471461,0.000592509178" id="Shape"></path>
                </g>
            </g>
        </g>
    </g>
</svg>