<?xml version="1.0" encoding="UTF-8"?>
<svg width="32px" height="32px" viewBox="0 0 32 32" version="1.1" xmlns="http://www.w3.org/2000/svg" xmlns:xlink="http://www.w3.org/1999/xlink">
    <!-- Generator: Sketch 52.6 (67491) - http://www.bohemiancoding.com/sketch -->
    <title>会议室通知</title>
    <desc>Created with Sketch.</desc>
    <g id="Page-1" stroke="none" stroke-width="1" fill="none" fill-rule="evenodd">
        <g id="微信通知" transform="translate(-18.000000, -339.000000)">
            <g id="会议室通知" transform="translate(18.000000, 339.000000)">
                <circle id="椭圆形-copy-4" fill="#00C1DE" cx="16" cy="16" r="16"></circle>
                <g id="会议室-蓝-copy" transform="translate(8.000000, 9.777778)" fill="#FFFFFF" fill-rule="nonzero">
                    <path d="M0.525268184,0.000750685281 L0.525268184,0.991443106 L1.51523516,0.991443106 L1.51523516,9.33695825 C1.51523516,10.4801051 2.34677555,11.2803845 3.49516912,11.2803845 L6.46469701,11.2803845 L5.07314413,12.9947376 L5.07314413,13.7191815 L5.98941722,13.7191815 L7.96936814,11.2804008 L8.95933512,11.2804008 L10.9388791,13.7191815 L11.928863,13.7191815 L11.928863,13.0852114 L10.4639893,11.2803682 L13.4335172,11.2803682 C14.5819108,11.2803682 15.4130611,10.4800887 15.4130611,9.33694193 L15.4130611,0.991443106 L16.3636207,0.991443106 L16.3636207,0.000750685281 L0.525268184,0.000750685281 Z M8.12777778,9.22259298 L3.85144668,9.22259298 C3.65361267,9.22259298 3.49518608,8.99387875 3.49518608,8.72725492 C3.49518608,8.46041895 3.65361267,8.23190055 3.85144668,8.23190055 L8.12777778,8.23190055 C8.32561178,8.23190055 8.48403838,8.42229719 8.48403838,8.72725492 C8.48403838,8.99387875 8.32561178,9.22259298 8.12777778,9.22259298 Z M8.12777778,7.24084911 L3.85144668,7.24084911 C3.65361267,7.24084911 3.49518608,7.01233072 3.49518608,6.74569057 C3.49518608,6.47887091 3.65361267,6.25015669 3.85144668,6.25015669 L8.12777778,6.25015669 C8.32561178,6.25015669 8.48403838,6.47887091 8.48403838,6.74569057 C8.48403838,7.01233072 8.32561178,7.24084911 8.12777778,7.24084911 Z M13.3937028,5.25949691 C13.3937028,5.79295672 12.9582204,6.25017301 12.4041258,6.25017301 L10.4241919,6.25017301 C9.86969032,6.25017301 9.43420794,5.79295672 9.43420794,5.25949691 L9.43420794,3.31605431 C9.43420794,2.78239867 9.86969032,2.32518238 10.4241919,2.32518238 L12.4041258,2.32518238 C12.9582374,2.32518238 13.3937028,2.78241499 13.3937028,3.31605431 L13.3937028,5.25949691 Z" id="Shape"></path>
                    <path d="M1.04036234,0.496284567 C1.04036234,0.770317333 0.809818831,0.992193791 0.525285141,0.992193791 C0.24075145,0.992193791 0.0102079429,0.770317333 0.0102079429,0.496284567 C0.0102079429,0.222627143 0.24075145,0.000750685281 0.525285141,0.000750685281 C0.809818831,0.000750685281 1.04036234,0.222643463 1.04036234,0.496284567 Z M16.8786979,0.496284567 C16.8786979,0.770317333 16.6481374,0.992193791 16.3636037,0.992193791 C16.0790701,0.992193791 15.8485266,0.770317333 15.8485266,0.496284567 C15.8485266,0.222627143 16.0790701,0.000750685281 16.3636037,0.000750685281 C16.6481374,0.000750685281 16.8786979,0.222643463 16.8786979,0.496284567 Z M12.0309255,13.4022781 C12.0309255,13.7155586 11.7633315,13.9694861 11.4330656,13.9694861 C11.1024266,13.9694861 10.8348327,13.7155586 10.8348327,13.4022781 C10.8348327,13.0893565 11.1024266,12.8354454 11.4330656,12.8354454 C11.7633315,12.8354291 12.0309255,13.0893565 12.0309255,13.4022781 Z M6.09307363,13.4024576 C6.09307363,13.7155749 5.82429273,13.9694861 5.49246676,13.9694861 C5.16064079,13.9694861 4.89185988,13.7155586 4.89185988,13.4024576 C4.89185988,13.0893565 5.16064079,12.8356412 5.49246676,12.8356412 C5.82429273,12.8356412 6.09307363,13.0893565 6.09307363,13.4024576 Z" id="Shape"></path>
                </g>
            </g>
        </g>
    </g>
</svg>