<?xml version="1.0" encoding="UTF-8"?>
<svg width="32px" height="32px" viewBox="0 0 32 32" version="1.1" xmlns="http://www.w3.org/2000/svg" xmlns:xlink="http://www.w3.org/1999/xlink">
    <!-- Generator: Sketch 52.6 (67491) - http://www.bohemiancoding.com/sketch -->
    <title>积分商城通知</title>
    <desc>Created with Sketch.</desc>
    <g id="Page-1" stroke="none" stroke-width="1" fill="none" fill-rule="evenodd">
        <g id="微信通知" transform="translate(-18.000000, -393.000000)">
            <g id="积分商城通知" transform="translate(18.000000, 393.000000)">
                <circle id="椭圆形-copy-5" fill="#FF8E58" cx="16" cy="16" r="16"></circle>
                <g id="积分商城-蓝-copy" transform="translate(8.000000, 8.888889)" fill="#FFFFFF" fill-rule="nonzero">
                    <path d="M14.7557052,1.80740041 L1.23850656,1.80740041 L0.00974570925,5.30451543 C0.00974570925,6.38228817 0.903781744,7.25628041 2.00671649,7.25628041 C3.10930863,7.25628041 4.00368728,6.38295814 4.00368726,5.30451543 C4.00368726,6.38228817 4.89770525,7.25628041 6.00031544,7.25628041 C7.1029256,7.25628041 7.99728622,6.38295814 7.9972862,5.30451543 C7.9972862,6.38228817 8.89130419,7.25628041 9.99425699,7.25628041 C11.0968672,7.25628041 11.9912278,6.38295814 11.9912278,5.30451543 C11.9912278,6.38228817 12.8852458,7.25628041 13.987874,7.25628041 C15.0908267,7.25628041 15.9848448,6.38295814 15.9848447,5.30451543 L14.7557052,1.80740041 M2.59006412,1.19556528 L13.4045083,1.19556528 C13.8115047,1.19556528 14.1418477,0.931750823 14.1418477,0.606262729 C14.1418477,0.280792261 13.8115227,0.0164841273 13.4045083,0.0164841273 L2.59006412,0.0164841273 C2.18308578,0.0164841273 1.85274271,0.280280939 1.85274271,0.606262729 C1.85274271,0.932262145 2.1830858,1.19556528 2.59006412,1.19556528 M11.9908852,7.35095954 C11.4489025,7.84773397 10.7441286,8.11999374 9.99423896,8.11999372 C9.24434936,8.1199937 8.53890821,7.84773397 7.99726818,7.35095954 C7.45496097,7.84773397 6.75016897,8.11999374 6.00029741,8.11999372 C5.25042585,8.1199937 4.54498469,7.84773397 4.00332663,7.35095954 C3.46101942,7.84773397 2.75622742,8.11999374 2.00635584,8.11999372 C1.95480285,8.11999372 1.90359246,8.11883007 1.85272469,8.11634408 L1.85272469,12.4206471 C1.85272469,13.1379515 2.51442062,13.5999045 3.08150356,13.5999045 L12.9123837,13.5999045 C13.6527525,13.5999045 14.1414871,13.064659 14.1414871,12.4206471 L14.1414871,8.11634408 C14.0902587,8.11883007 14.0390483,8.12032871 13.9874953,8.12032871 C13.2383089,8.12032871 12.5328678,7.84773397 11.9908852,7.35095954" id="Shape"></path>
                </g>
            </g>
        </g>
    </g>
</svg>