<?xml version="1.0" encoding="UTF-8"?>
<svg width="18px" height="21px" viewBox="0 0 18 21" version="1.1" xmlns="http://www.w3.org/2000/svg" xmlns:xlink="http://www.w3.org/1999/xlink">
    <!-- Generator: Sketch 52.6 (67491) - http://www.bohemiancoding.com/sketch -->
    <title>我的-选中</title>
    <desc>Created with Sketch.</desc>
    <g id="Page-1" stroke="none" stroke-width="1" fill="none" fill-rule="evenodd">
        <g id="我的" transform="translate(-297.000000, -625.000000)" fill="#00C1DE" fill-rule="nonzero">
            <g id="标签栏" transform="translate(0.000000, 618.000000)">
                <g id="个人" transform="translate(296.000000, 6.000000)">
                    <g id="我的-选择" transform="translate(1.000000, 0.000000)">
                        <g id="我的-选中" transform="translate(0.000000, 1.000000)">
                            <path d="M17.9987991,19.7777483 C17.9747815,18.9044374 17.9915938,18.5645542 17.517246,17.3513601 C17.0525052,16.1629492 16.3860164,15.0937334 15.5369938,14.1755768 C14.6831677,13.2526996 13.6864367,12.5269074 12.576823,12.019443 C12.365468,11.9226707 12.1517113,11.8353396 11.9367536,11.7562695 C12.4135032,11.4907358 12.8578291,11.1591137 13.2553206,10.7684841 C14.4117686,9.63199976 15.0482354,8.12140792 15.0482354,6.51522393 C15.0482354,4.90903995 14.4117686,3.3984481 13.2553206,2.26196377 C12.1000734,1.12547944 10.5629462,0.5 8.9285476,0.5 C7.29294816,0.5 5.75582094,1.12547944 4.60057375,2.26196377 C3.44412569,3.3984481 2.80765895,4.90903995 2.80765895,6.51522393 C2.80765895,8.12140792 3.44412569,9.63199976 4.60057375,10.7684841 C4.99806525,11.1591137 5.44239109,11.4907358 5.9191407,11.7562695 C5.70418307,11.8353396 5.49042631,11.9226707 5.2802722,12.019443 C4.1694576,12.5269074 3.17272667,13.2526996 2.31890053,14.1755768 C1.46987791,15.0937334 0.768563613,16.1499675 0.338648342,17.3513601 C0.00120088065,18.2966602 0.0156114484,19.2313389 0.00360264194,19.7222812 C0.00120088065,19.7458842 0,19.7694872 0,19.7942704 L0,19.8060719 C0.00600440323,20.1896206 0.325438655,20.5 0.719327507,20.5 C1.11321636,20.5 16.8879845,20.5 17.2806725,20.5 C17.6745613,20.5 17.9939956,20.1896206 18,19.8060719 L18,19.7942704 C18,19.7883696 18,19.783649 17.9987991,19.7777483 Z" id="Shape"></path>
                        </g>
                    </g>
                </g>
            </g>
        </g>
    </g>
</svg>