<?xml version="1.0" encoding="UTF-8"?>
<svg width="21px" height="19px" viewBox="0 0 21 19" version="1.1" xmlns="http://www.w3.org/2000/svg" xmlns:xlink="http://www.w3.org/1999/xlink">
    <!-- Generator: Sketch 52.6 (67491) - http://www.bohemiancoding.com/sketch -->
    <title>服务-未选</title>
    <desc>Created with Sketch.</desc>
    <g id="Page-1" stroke="none" stroke-width="1" fill="none" fill-rule="evenodd">
        <g id="我的" transform="translate(-180.000000, -627.000000)" fill="#8A8A8A" fill-rule="nonzero">
            <g id="标签栏" transform="translate(0.000000, 618.000000)">
                <g id="服务" transform="translate(179.000000, 8.000000)">
                    <g id="服务-未选" transform="translate(1.000000, 1.000000)">
                        <path d="M18.2120586,1.79906436 C17.051428,0.638556477 15.5063136,-6.03961325e-14 13.8608546,-6.03961325e-14 C12.2153956,-6.03961325e-14 10.6695449,0.639210988 9.50901656,1.79984159 L5.21397769,6.09418503 C4.936854,6.37137009 4.936854,6.82318663 5.21397769,7.10039214 C5.34878633,7.234444 5.52693582,7.30877181 5.71709147,7.30877181 C5.90724713,7.30877181 6.08617385,7.23511897 6.22020525,7.10039214 L10.5145487,2.8060896 C11.4064211,1.91421724 12.5951138,1.42231194 13.8602615,1.42231194 C15.1254092,1.42231194 16.3133042,1.91354227 17.205197,2.80533282 C19.0498726,4.65013108 19.0498726,7.65116244 17.205197,9.49659475 L10.0121712,16.6903364 L2.81779553,9.49735153 C0.97299728,7.65265554 0.97299728,4.65072423 2.81779553,2.80672366 C3.7081748,1.9163444 4.88979063,1.42585039 6.14518203,1.42585039 C6.37186753,1.42585039 6.60196876,1.44202906 6.82861336,1.47428414 C6.86236154,1.47919297 6.89596654,1.48134058 6.92971472,1.48134058 C7.28120714,1.48134058 7.58367264,1.21814568 7.63345632,0.869414484 C7.68816928,0.480676354 7.41664983,0.120061708 7.02862757,0.0652464818 C6.74232028,0.0239305278 6.45110417,0.00355889901 6.1613607,0.00355889901 C5.51081851,0.00355889901 4.87162797,0.103126258 4.26047911,0.300358804 C3.33070651,0.600697155 2.50626915,1.10520177 1.8108521,1.79986204 C-0.588254899,4.19894859 -0.588254899,8.10385849 1.81158843,10.5028428 L9.50836204,18.1997596 C9.64239345,18.3336887 9.82132017,18.4081188 10.0114758,18.4081188 C10.2016519,18.4081188 10.3798832,18.3344659 10.5145896,18.1997596 L18.2114859,10.5028428 C20.6118611,8.10310171 20.611227,4.19890768 18.2121609,1.79906436 L18.2120586,1.79906436 Z" id="Shape"></path>
                    </g>
                </g>
            </g>
        </g>
    </g>
</svg>