<?xml version="1.0" encoding="UTF-8"?>
<svg width="16px" height="16px" viewBox="0 0 16 16" version="1.1" xmlns="http://www.w3.org/2000/svg" xmlns:xlink="http://www.w3.org/1999/xlink">
    <!-- Generator: Sketch 52.6 (67491) - http://www.bohemiancoding.com/sketch -->
    <title>电话</title>
    <desc>Created with Sketch.</desc>
    <g id="Page-1" stroke="none" stroke-width="1" fill="none" fill-rule="evenodd">
        <g id="包间预订" transform="translate(-151.000000, -272.000000)">
            <g id="电话" transform="translate(151.000000, 272.000000)">
                <rect id="矩形" fill="#000000" opacity="0" x="0" y="0" width="16" height="16"></rect>
                <path d="M4.71745455,2.79963636 C4.95490909,2.79963636 5.17090909,2.87672727 5.31418181,3.06472727 C5.48327272,3.28654545 5.91636363,4.84654545 6.05563636,5.35854545 C6.08285501,5.45876674 6.05458254,5.56589724 5.98145455,5.63963636 L5.092,6.53818181 C4.97036982,6.66073996 4.93372482,6.84410813 4.99890909,7.004 C5.748,8.83818181 7.29854545,10.3330909 8.96290909,10.9414545 C9.06888982,10.9805454 9.18792368,10.9545822 9.268,10.8749091 L10.1327273,10.0203636 C10.2006296,9.95328107 10.2970614,9.92367242 10.3909091,9.94109091 C10.924,10.0396364 12.7109091,10.3810909 12.9509091,10.5592727 C13.1727273,10.7236364 13.2632727,11.1374545 13.1534545,11.5465455 C13.0483636,11.9378182 12.3556364,13.2003636 10.9461818,13.2003636 C10.8797977,13.2003959 10.8134398,13.197727 10.7472727,13.1923636 C9.20363637,13.0661818 7.40836364,12.0105455 5.54436364,10.2025455 C3.68036364,8.39418181 2.64218183,6.03127272 2.81927273,4.63454545 C2.97854547,3.37890909 4.10581819,2.90981819 4.41490909,2.83672727 C4.51672728,2.81272727 4.61890909,2.79963636 4.71745455,2.79963636 Z M4.71745455,2.18181819 C4.57381819,2.18181819 4.42436364,2.2 4.27272727,2.23563636 C3.99709091,2.30109091 3.56145453,2.488 3.16545455,2.81745455 C2.62545455,3.26727273 2.29381819,3.86836364 2.20618181,4.55672727 C2.15309091,4.97563636 2.18654545,5.45309091 2.30581819,5.97636364 C2.41854545,6.47163637 2.604,6.99381819 2.85818181,7.52909091 C3.12573177,8.08842005 3.44262293,8.62277839 3.80509091,9.12581819 C4.19541025,9.6703862 4.63350852,10.179067 5.11418181,10.6458182 C6.08545455,11.5883636 7.04181817,12.3341818 7.95672727,12.8629091 C8.92036362,13.42 9.84254545,13.7381818 10.6967273,13.808 C10.7803636,13.8145455 10.864,13.8181818 10.9461818,13.8181818 C11.7138182,13.8181818 12.4163636,13.52 12.9774545,12.9556364 C13.42,12.5105455 13.6705455,12.0043636 13.7501818,11.7065455 C13.8283509,11.4222673 13.8389359,11.1236448 13.7810909,10.8345455 C13.712,10.5029091 13.552,10.236 13.3192727,10.0636364 C13.1818182,9.96145455 12.9712727,9.85054545 11.9138182,9.61709091 C11.3701818,9.49709091 10.7967273,9.388 10.5029091,9.33345455 C10.2103905,9.27967262 9.91002761,9.37196668 9.69818181,9.58072727 L8.984,10.2869091 C8.308,10.0072727 7.65054545,9.56290909 7.07163636,8.99236364 C6.45716281,8.38882433 5.964029,7.67313224 5.61890909,6.884 L6.42072727,6.07418181 C6.64837786,5.84348998 6.73643057,5.50927736 6.652,5.19636364 C6.57927273,4.92981819 6.43563636,4.40945455 6.28727273,3.92290909 C6.00581819,2.99927273 5.89490909,2.80763636 5.80581819,2.69018181 C5.55563636,2.36290909 5.16945455,2.18181819 4.71745455,2.18181819 Z" id="形状" stroke="#656D72" stroke-width="0.2" fill="#656D72" fill-rule="nonzero"></path>
            </g>
        </g>
    </g>
</svg>