<?xml version="1.0" encoding="UTF-8"?>
<svg width="16px" height="16px" viewBox="0 0 16 16" version="1.1" xmlns="http://www.w3.org/2000/svg" xmlns:xlink="http://www.w3.org/1999/xlink">
    <!-- Generator: Sketch 52.6 (67491) - http://www.bohemiancoding.com/sketch -->
    <title>定位</title>
    <desc>Created with Sketch.</desc>
    <g id="Page-1" stroke="none" stroke-width="1" fill="none" fill-rule="evenodd">
        <g id="包间预订" transform="translate(-23.000000, -272.000000)">
            <g id="分组-10" transform="translate(16.000000, 74.000000)">
                <g id="分组-7">
                    <g id="分组-2" transform="translate(7.000000, 198.000000)">
                        <g id="分组-8">
                            <g id="分组-6">
                                <g id="定位">
                                    <rect id="矩形" fill="#000000" opacity="0" x="0" y="0" width="16" height="16"></rect>
                                    <path d="M8,1.5 C4.85197693,1.5 2.3,4.05197693 2.3,7.2 C2.3,9.256 4.0208,11.688 7.4184,14.5648 C7.7544,14.8488 8.2464,14.8488 8.5816,14.5648 C11.9792,11.688 13.7,9.256 13.7,7.2 C13.7,4.05197693 11.1480231,1.5 8,1.5 Z M8.0674675,13.8190675 C8.08859605,13.829866 8.10910772,13.8418311 8.1289075,13.8549075 L8.0674675,13.8190675 Z M3.3,7.2 C3.30000004,4.6042617 5.4042617,2.50000007 8,2.50000007 C10.5957383,2.50000007 12.7,4.6042617 12.7,7.2 C12.7,8.8648 11.148,11.0696 8,13.7464 C4.852,11.0696 3.3,8.8648 3.3,7.2 Z" id="形状" fill="#656D72" fill-rule="nonzero"></path>
                                    <path d="M8,4.7 C7.10683602,4.69999999 6.28151846,5.17649729 5.83493646,5.94999999 C5.38835446,6.72350269 5.38835446,7.67649731 5.83493646,8.45000001 C6.28151846,9.22350271 7.10683602,9.70000001 8,9.7 C9.38071187,9.7 10.5,8.58071187 10.5,7.2 C10.5,5.81928813 9.38071187,4.7 8,4.7 Z M8,5.7 C8.5358984,5.69999998 9.03108894,5.98589837 9.29903814,6.44999999 C9.56698735,6.91410161 9.56698735,7.48589839 9.29903814,7.95000001 C9.03108894,8.41410163 8.5358984,8.70000002 8,8.7 C7.17157289,8.69999998 6.50000003,8.02842711 6.50000003,7.2 C6.50000003,6.37157289 7.17157289,5.70000002 8,5.7 Z" id="形状" fill="#656D72" fill-rule="nonzero"></path>
                                </g>
                            </g>
                        </g>
                    </g>
                </g>
            </g>
        </g>
    </g>
</svg>