<?xml version="1.0" encoding="UTF-8"?>
<svg width="18px" height="18px" viewBox="0 0 18 18" version="1.1" xmlns="http://www.w3.org/2000/svg" xmlns:xlink="http://www.w3.org/1999/xlink">
    <!-- Generator: Sketch 52.6 (67491) - http://www.bohemiancoding.com/sketch -->
    <title>垃圾桶</title>
    <desc>Created with Sketch.</desc>
    <g id="Page-1" stroke="none" stroke-width="1" fill="none" fill-rule="evenodd">
        <g id="清空搜索历史" transform="translate(-120.000000, -596.000000)">
            <g id="分组-7" transform="translate(40.000000, 583.000000)">
                <g id="分组" transform="translate(80.000000, 13.000000)">
                    <g id="垃圾桶">
                        <rect id="矩形" fill="#000000" opacity="0" x="0" y="0" width="18" height="18"></rect>
                        <path d="M14.6460938,7.48476562 C14.4544922,7.48476562 14.2998047,7.63945312 14.2998047,7.83105469 L14.2998047,15.0714844 C14.2998047,15.1892578 14.2681641,16.2140625 13.1677734,16.2140625 L4.83222656,16.2140625 C3.74414062,16.2140625 3.70195312,15.1875 3.70019531,15.0714844 L3.70019531,4.78828125 L14.6443359,4.78828125 C14.8359375,4.78828125 14.990625,4.63359375 14.990625,4.44199219 C14.990625,4.25039062 14.8359375,4.09570312 14.6443359,4.09570312 L3.35390625,4.09570312 C3.16230469,4.09570312 3.00761719,4.25039062 3.00761719,4.44199219 L3.00761719,15.0714844 C3.00761719,15.7060547 3.3890625,16.9083984 4.83398438,16.9083984 L13.1695313,16.9083984 C14.6144531,16.9083984 14.9958984,15.7078125 14.9958984,15.0714844 L14.9958984,7.8328125 C14.9923828,7.64121094 14.8376953,7.48476562 14.6460938,7.48476562 Z M3.36796875,3.26601562 L14.6302734,3.26601562 C14.821875,3.26601562 14.9765625,3.11132812 14.9765625,2.91972656 C14.9765625,2.728125 14.821875,2.5734375 14.6302734,2.5734375 L10.7701172,2.5734375 C10.7279297,2.29570313 10.6171875,1.91074219 10.321875,1.59960938 C10.0037109,1.26035156 9.55898438,1.08984375 9,1.08984375 C8.44101563,1.08984375 7.99628906,1.26035156 7.678125,1.59609375 C7.3828125,1.90898438 7.27207031,2.2921875 7.22988281,2.56992187 L3.36796875,2.56992187 C3.17636719,2.56992187 3.02167969,2.72460938 3.02167969,2.91621094 C3.02167969,3.10957031 3.17636719,3.26601562 3.36796875,3.26601562 Z M8.18261719,2.07421875 C8.36367188,1.88261719 8.63964844,1.78417969 9,1.78417969 C9.35859375,1.78417969 9.6328125,1.88085937 9.81386719,2.07070312 C9.95800781,2.22011719 10.0283203,2.41171875 10.0652344,2.57167969 L7.93476563,2.57167969 C7.96992188,2.41171875 8.04023438,2.22363281 8.18261719,2.07421875 Z" id="形状" stroke="#656D72" stroke-width="0.2" fill="#656D72" fill-rule="nonzero"></path>
                        <path d="M10.153125,7.83457031 L10.153125,13.1730469 C10.153125,13.3646484 10.3078125,13.5193359 10.4994141,13.5193359 C10.6910156,13.5193359 10.8457031,13.3646484 10.8457031,13.1730469 L10.8457031,7.83457031 C10.8457031,7.64296875 10.6910156,7.48828125 10.4994141,7.48828125 C10.3078125,7.48652344 10.153125,7.64296875 10.153125,7.83457031 Z M7.15253906,7.83457031 L7.15253906,13.1730469 C7.15253906,13.3646484 7.30722656,13.5193359 7.49882813,13.5193359 C7.69042969,13.5193359 7.84511719,13.3646484 7.84511719,13.1730469 L7.84511719,7.83457031 C7.84511719,7.64296875 7.69042969,7.48828125 7.49882813,7.48828125 C7.30722656,7.48828125 7.15253906,7.64296875 7.15253906,7.83457031 Z" id="形状" stroke="#656D72" stroke-width="0.2" fill="#656D72" fill-rule="nonzero"></path>
                    </g>
                </g>
            </g>
        </g>
    </g>
</svg>