<?xml version="1.0" encoding="UTF-8"?>
<svg width="22px" height="21px" viewBox="0 0 22 21" version="1.1" xmlns="http://www.w3.org/2000/svg" xmlns:xlink="http://www.w3.org/1999/xlink">
    <!-- Generator: Sketch 52.6 (67491) - http://www.bohemiancoding.com/sketch -->
    <title>在线预约-选中</title>
    <desc>Created with Sketch.</desc>
    <g id="Page-1" stroke="none" stroke-width="1" fill="none" fill-rule="evenodd">
        <g id="在线预约" transform="translate(-244.000000, -632.000000)" fill="#00C1DE" fill-rule="nonzero" stroke="#00C1DE" stroke-width="0.1">
            <g id="底" transform="translate(0.000000, 618.000000)">
                <g id="分组-11" transform="translate(244.000000, 14.000000)">
                    <g id="分组-5">
                        <g id="在线预约-未选">
                            <path d="M3.93392593,11.057363 L11.0286815,11.057363 L11.0286815,11.8919941 L3.93392593,11.8919941 L3.93392593,11.057363 Z M3.93392593,13.5604741 L8.94014815,13.5604741 L8.94014815,14.3951052 L3.93392593,14.3951052 L3.93392593,13.5604741 Z M16.8353778,13.7690667 L16.0688,13.7690667 L16.0688,16.8275556 L18.3633185,16.8275556 L18.3633185,16.0635852 L16.8353778,16.0635852 L16.8353778,13.7690667 Z" id="形状"></path>
                            <path d="M20.1957333,13.0071111 L20.1957333,4.872 C20.1942964,3.59816793 19.1620099,2.56588137 17.8881778,2.56444444 L15.5024,2.56444444 L15.5024,1 L14.6680296,1 L14.6680296,2.56444444 L6.53031111,2.56444444 L6.53031111,1 L5.69594074,1 L5.69594074,2.56444444 L3.31016296,2.56444444 C2.03531275,2.56444363 1.00143888,3.5971506 1,4.872 L1,16.5297185 C1.00143888,17.8045679 2.03531275,18.8372749 3.31016296,18.8372741 L13.1453037,18.8372741 C14.0094932,19.7686234 15.2226894,20.2977432 16.4932148,20.2974222 C19.0250074,20.2974222 21.0822519,18.2401778 21.0822519,15.7083852 C21.0821381,14.7364987 20.7715328,13.790066 20.1957333,13.0071111 Z M3.31016296,3.39881481 L5.69594074,3.39881481 L5.69594074,6.00622222 L6.53031111,6.00622222 L6.53031111,3.39881481 L14.6680296,3.39881481 L14.6680296,6.00622222 L15.5024,6.00622222 L15.5024,3.39881481 L17.8881778,3.39881481 C18.7017955,3.39881481 19.361363,4.05838229 19.361363,4.872 L19.361363,6.94488889 L1.83697778,6.94488889 L1.83697778,4.872 C1.83697778,4.05838229 2.49654525,3.39881481 3.31016296,3.39881481 Z M3.31016296,18.0029037 C2.49654525,18.0029037 1.83697778,17.3433362 1.83697778,16.5297185 L1.83697778,7.77925926 L19.361363,7.77925926 L19.361363,12.1310222 C18.5488243,11.4762876 17.5367169,11.1192897 16.4932148,11.1193481 C13.9614222,11.1193481 11.9015704,13.1765926 11.9015704,15.7083852 C11.9017486,16.5150065 12.1168504,17.3070133 12.5247407,18.0029037 L3.31016296,18.0029037 Z M19.1293037,18.472237 C17.8149569,19.7350186 15.7896283,19.8881212 14.3003852,18.8372741 C13.9716738,18.6058928 13.6813244,18.3243418 13.4399407,18.0029037 C12.9390064,17.3428709 12.6679359,16.5369855 12.6681481,15.7083852 C12.6681481,13.5989926 14.3838222,11.8833185 16.4932148,11.8833185 C18.2411676,11.8886426 19.7641021,13.075888 20.1957333,14.7697185 C20.361691,15.3954572 20.3589922,16.0539834 20.1879111,16.6783407 C20.1424238,17.4112507 19.7488959,18.0781157 19.1293037,18.472237 Z" id="形状"></path>
                        </g>
                    </g>
                </g>
            </g>
        </g>
    </g>
</svg>